<?xml version="1.0" encoding="UTF-8"?>
<svg width="66px" height="44px" viewBox="0 0 66 44" version="1.1" xmlns="http://www.w3.org/2000/svg" xmlns:xlink="http://www.w3.org/1999/xlink">
    <!-- Generator: Sketch 42 (36781) - http://www.bohemiancoding.com/sketch -->
    <title>adidas</title>
    <desc>Created with Sketch.</desc>
    <defs></defs>
    <g id="one-pager" stroke="none" stroke-width="1" fill="none" fill-rule="evenodd">
        <g id="Landing_page" transform="translate(-453.000000, -795.000000)" fill="#6B6B6B">
            <g id="Header_clients" transform="translate(-11.000000, 743.000000)">
                <g id="header_clients" transform="translate(173.000000, 50.000000)">
                    <g id="adidas" transform="translate(291.000000, 2.000000)">
                        <path d="M65.4429748,35.622437 L62.5733613,35.622437 C62.4842521,35.1465714 62.3459664,34.811395 62.1570252,34.6230084 C61.8501345,34.3159328 61.3265714,34.1578655 60.6033445,34.1578655 C59.8910252,34.1578655 59.3966723,34.276 59.1201008,34.5139328 C58.9117479,34.6923361 58.8026723,34.9393277 58.8026723,35.2462185 C58.8026723,35.6808571 59.4070252,36.0278655 60.6033445,36.2951933 C61.9697479,36.5915462 62.9495798,36.8490756 63.5526387,37.0566891 C63.7112605,37.1162185 63.8495462,37.1657647 63.9488235,37.2147563 C65.1667731,37.7889748 65.7696471,38.6608403 65.7696471,39.8279496 C65.7696471,41.2527731 65.1760168,42.2919496 63.9981849,42.9447395 C63.8495462,43.024605 63.7112605,43.093563 63.5526387,43.1628908 C62.7911429,43.4897479 61.9007899,43.6572437 60.9011765,43.6572437 C59.4070252,43.6572437 58.1992437,43.389916 57.2793109,42.8654286 C56.7004706,42.5287731 56.2678655,42.1059664 55.9796471,41.596084 C55.6916134,41.0863866 55.5474118,40.4912773 55.5474118,39.8079832 L58.5553109,39.8079832 C58.5553109,40.3226723 58.7436975,40.7288403 59.109563,41.0054118 C59.4763529,41.2928908 60.099563,41.4415294 60.979563,41.4415294 C61.6428908,41.4415294 62.1372437,41.3023193 62.4642857,41.025563 C62.7221849,40.8075966 62.8403193,40.5696639 62.8403193,40.2930924 C62.8403193,39.8279496 62.2477983,39.4624538 61.0688571,39.2047395 C59.3077479,38.828521 58.1992437,38.5214454 57.7442689,38.303479 C56.5375966,37.7397983 55.9435966,36.8695966 55.9435966,35.6610756 C55.9435966,34.6923361 56.2504874,33.8707563 56.8834958,33.1981849 C57.6753109,32.3568235 58.8622017,31.9408571 60.4362185,31.9408571 C61.7321849,31.9408571 62.7713613,32.1292437 63.5530084,32.4951092 C63.6219664,32.5243193 63.6818655,32.5546387 63.7415798,32.5947563 C64.3052605,32.9005378 64.7304706,33.3070756 65.0153613,33.8123361 C65.2998824,34.3159328 65.4429748,34.9204706 65.4429748,35.622437" id="Fill-74"></path>
                        <path d="M64.1470084,28.3188067 C64.2065378,28.3986723 64.2359328,28.4874118 64.2359328,28.5859496 C64.2359328,28.7242353 64.1867563,28.8438487 64.0871092,28.9420168 C63.9885714,29.0416639 63.8598992,29.101563 63.7018319,29.1106218 C63.7707899,29.1398319 63.8199664,29.170521 63.8598992,29.2091597 L64.1364706,29.5761345 L64.3542521,29.9414454 L63.9978151,29.9414454 L63.8292101,29.6450924 C63.7216134,29.4576303 63.6325042,29.3182353 63.5526387,29.2492773 C63.5432101,29.2398487 63.5328571,29.2291261 63.5128908,29.2196975 L63.276437,29.1507395 L63.0980336,29.1507395 L63.0980336,29.9414454 L62.8005714,29.9414454 L62.8005714,28.0819832 L63.443563,28.0819832 C63.4836807,28.0819832 63.5234286,28.0914118 63.5526387,28.0914118 C63.7108908,28.0914118 63.8292101,28.111563 63.9090756,28.1407731 C64.0076134,28.1710924 64.0871092,28.2296975 64.1470084,28.3188067 L64.1470084,28.3188067 Z M63.9090756,28.6162689 C63.9090756,28.5567395 63.8996471,28.5073782 63.8693277,28.4676303 C63.8401176,28.4184538 63.8,28.3877647 63.7415798,28.3692773 C63.7018319,28.3585546 63.6419328,28.3491261 63.5526387,28.3385882 L63.0980336,28.3385882 L63.0980336,28.8928403 L63.4638992,28.8928403 L63.5526387,28.8928403 C63.6818655,28.8835966 63.7707899,28.8636303 63.8199664,28.8142689 C63.8798655,28.7639832 63.9090756,28.6946555 63.9090756,28.6162689 L63.9090756,28.6162689 Z" id="Fill-75"></path>
                        <path d="M65.275479,28.9926723 C65.275479,29.2795966 65.205042,29.5667059 65.0467899,29.8432773 C64.8990756,30.1198487 64.6905378,30.3285714 64.4141513,30.475916 C64.1364706,30.6354622 63.8598992,30.7044202 63.5620672,30.7044202 L63.5526387,30.7044202 C63.2562857,30.7044202 62.9789748,30.6354622 62.7024034,30.475916 C62.4243529,30.3282017 62.2171092,30.1198487 62.0682857,29.8432773 C61.9100336,29.5667059 61.8410756,29.2795966 61.8410756,28.9926723 C61.8410756,28.6852269 61.9100336,28.3986723 62.0682857,28.1209916 C62.2263529,27.8444202 62.4350756,27.6369916 62.7116471,27.4879832 C62.9893277,27.3391597 63.2655294,27.2702017 63.5526387,27.2607731 L63.5620672,27.2607731 C63.8495462,27.2607731 64.1272269,27.3395294 64.4034286,27.4879832 C64.681479,27.6369916 64.8990756,27.8444202 65.0467899,28.1209916 C65.205042,28.3986723 65.275479,28.6852269 65.275479,28.9926723 L65.275479,28.9926723 Z M64.9883697,28.9926723 C64.9883697,28.7347731 64.9284706,28.4979496 64.7997983,28.2696303 C64.6705714,28.0422353 64.4929076,27.8642017 64.2655126,27.7353445 C64.0379328,27.6168403 63.8,27.5475126 63.5620672,27.5475126 L63.5526387,27.5475126 C63.3150756,27.5475126 63.0782521,27.6168403 62.851042,27.7353445 C62.6225378,27.8642017 62.4445042,28.0422353 62.3156471,28.2696303 C62.1877143,28.4979496 62.1183866,28.7347731 62.1183866,28.9926723 C62.1183866,29.2398487 62.1877143,29.4764874 62.3156471,29.7049916 C62.4350756,29.9220336 62.6131092,30.1011765 62.8403193,30.2285546 C63.0677143,30.3577815 63.3056471,30.4174958 63.5526387,30.4174958 L63.5620672,30.4174958 C63.8105378,30.4174958 64.0473613,30.3574118 64.2758655,30.2285546 C64.5030756,30.1011765 64.681479,29.9220336 64.7997983,29.7049916 C64.9284706,29.4764874 64.9883697,29.2398487 64.9883697,28.9926723 L64.9883697,28.9926723 Z" id="Fill-76"></path>
                        <polyline id="Fill-77" points="48.4417815 15.009916 56.5668067 28.5473109 43.5147059 28.5473109 35.7564706 15.6135294 29.8787731 5.82667227 35.7564706 2.29391597 39.4567227 0.0676638655 48.4417815 15.009916"></polyline>
                        <path d="M51.638437,38.5611933 L51.638437,37.3343697 C51.3513277,35.8498319 50.0355798,34.7211765 48.4721008,34.7211765 L48.4417815,34.7211765 C46.6710588,34.7318992 45.2356975,36.1766891 45.2356975,37.947042 C45.2356975,39.7188739 46.6710588,41.1636639 48.4417815,41.1834454 L48.4721008,41.1834454 C50.0355798,41.1834454 51.3513277,40.0457311 51.638437,38.5611933 L51.638437,38.5611933 Z M54.3403697,37.947042 L54.3403697,43.4989916 L51.638437,43.4989916 L51.638437,42.8852101 C50.7277479,43.4792101 49.6390252,43.8258487 48.4721008,43.8258487 L48.4417815,43.8258487 C45.215916,43.8058824 42.5932941,41.1729076 42.5932941,37.947042 C42.5932941,34.7215462 45.215916,32.0894958 48.4417815,32.0697143 L48.4721008,32.0697143 C49.6390252,32.0697143 50.7277479,32.4167227 51.638437,33.0092437 L51.638437,32.3662521 L54.3403697,32.3662521 L54.3403697,37.947042 L54.3403697,37.947042 Z" id="Fill-78"></path>
                        <path d="M38.9529412,38.5611933 L38.9529412,37.3343697 C38.6658319,35.8498319 37.3487899,34.7211765 35.7856807,34.7211765 L35.7564706,34.7211765 C33.9848235,34.7318992 32.5503866,36.1766891 32.5503866,37.947042 C32.5503866,39.7188739 33.9848235,41.1636639 35.7564706,41.1834454 L35.7856807,41.1834454 C37.3487899,41.1834454 38.6658319,40.0457311 38.9529412,38.5611933 L38.9529412,38.5611933 Z M41.6537647,37.947042 L41.6537647,43.4989916 L38.9529412,43.4989916 L38.9529412,42.8852101 C38.0318992,43.4792101 36.9537143,43.8258487 35.7856807,43.8258487 L35.7564706,43.8258487 C32.5304202,43.8058824 29.9081681,41.1729076 29.9081681,37.947042 C29.9081681,34.7215462 32.5304202,32.0894958 35.7564706,32.0697143 L35.7856807,32.0697143 C36.9538992,32.0697143 38.0318992,32.4167227 38.9529412,33.0092437 L38.9529412,28.5473109 L41.6537647,28.5473109 L41.6537647,37.947042 L41.6537647,37.947042 Z" id="Fill-79"></path>
                        <polyline id="Fill-80" points="35.7564706 23.2225714 38.9424034 28.5473109 25.8995462 28.5473109 18.6569244 16.4944538 18.340605 15.9695966 18.6569244 15.7821345 27.9289076 10.1998655 35.7564706 23.2225714"></polyline>
                        <polygon id="Fill-81" points="25.910084 43.4989916 28.8488403 43.4989916 28.8488403 32.0693445 25.910084 32.0693445"></polygon>
                        <polygon id="Fill-82" points="25.910084 31.1882353 28.8488403 31.1882353 28.8488403 28.605916 25.910084 28.605916"></polygon>
                        <path d="M21.8628235,38.5611933 L21.8628235,37.3343697 C21.5757143,35.8498319 20.2597815,34.7211765 18.6861345,34.7211765 L18.6569244,34.7211765 C16.8850924,34.7318992 15.4510252,36.1766891 15.4510252,37.947042 C15.4510252,39.7188739 16.8850924,41.1636639 18.6569244,41.1834454 L18.6861345,41.1834454 C20.2597815,41.1834454 21.5757143,40.0457311 21.8628235,38.5611933 L21.8628235,38.5611933 Z M24.5636471,37.947042 L24.5636471,43.4989916 L21.8628235,43.4989916 L21.8628235,42.8852101 C20.9430756,43.4792101 19.8545378,43.8258487 18.6861345,43.8258487 L18.6569244,43.8258487 C15.4310588,43.8058824 12.8086218,41.1729076 12.8086218,37.947042 C12.8086218,34.7215462 15.4310588,32.0894958 18.6569244,32.0697143 L18.6861345,32.0697143 C19.8545378,32.0697143 20.9430756,32.4167227 21.8628235,33.0092437 L21.8628235,28.5473109 L24.5636471,28.5473109 L24.5636471,37.947042 L24.5636471,37.947042 Z" id="Fill-83"></path>
                        <polyline id="Fill-84" points="18.6569244 24.0935126 21.3285378 28.5473109 8.2762521 28.5473109 6.8114958 26.1029076 16.3999832 20.3437143 18.6569244 24.0935126"></polyline>
                        <path d="M9.04847059,38.5611933 L9.04847059,37.3343697 C8.76136134,35.8498319 7.44542857,34.7211765 5.87178151,34.7211765 L5.84127731,34.7211765 C4.08016807,34.7318992 2.64591597,36.1766891 2.64591597,37.947042 C2.64591597,39.7188739 4.08016807,41.1636639 5.84127731,41.1834454 L5.87178151,41.1834454 C7.44542857,41.1834454 8.76136134,40.0457311 9.04847059,38.5611933 L9.04847059,38.5611933 Z M11.7492941,37.947042 L11.7492941,43.4989916 L9.04847059,43.4989916 L9.04847059,42.8852101 C8.12742857,43.4792101 7.03889076,43.8258487 5.87178151,43.8258487 L5.84127731,43.8258487 C2.62594958,43.8058824 0.00369747899,41.1729076 0.00369747899,37.947042 C0.00369747899,34.7215462 2.62594958,32.0894958 5.84127731,32.0697143 L5.87178151,32.0697143 C7.03889076,32.0697143 8.12742857,32.4167227 9.04847059,33.0092437 L9.04847059,32.3662521 L11.7492941,32.3662521 L11.7492941,37.947042 L11.7492941,37.947042 Z" id="Fill-85"></path>
                    </g>
                </g>
            </g>
        </g>
    </g>
</svg>