<?xml version="1.0" encoding="UTF-8"?>
<svg width="75px" height="25px" viewBox="0 0 75 25" version="1.1" xmlns="http://www.w3.org/2000/svg" xmlns:xlink="http://www.w3.org/1999/xlink">
    <!-- Generator: Sketch 42 (36781) - http://www.bohemiancoding.com/sketch -->
    <title>allegro</title>
    <desc>Created with Sketch.</desc>
    <defs></defs>
    <g id="one-pager" stroke="none" stroke-width="1" fill="none" fill-rule="evenodd">
        <g id="Landing_page" transform="translate(-696.000000, -4381.000000)" fill="#6B6B6B">
            <g id="Happy_Customers" transform="translate(161.000000, 4141.000000)">
                <path d="M562.193187,251.004067 C562.193187,250.014073 563.022135,248.132726 565.400115,248.132726 C566.711756,248.132726 568.252396,248.878736 568.252396,251.004067 L562.193187,251.004067 L562.193187,251.004067 Z M565.400115,245.531817 C561.392534,245.531817 559.657905,248.206112 559.073781,250.464633 C558.918159,251.065301 558.843105,251.70981 558.843105,252.330731 C558.843105,253.794159 559.25626,255.298808 560.133885,256.48966 C561.404283,258.213513 563.43481,259.054115 565.559814,259.132981 C567.723423,259.213276 569.170305,258.845394 570.252949,258.221376 C570.463723,258.099384 570.510002,257.95285 570.510002,257.563286 L570.510002,255.825613 C570.510002,255.469168 570.296591,255.306909 569.961367,255.518965 C568.795756,256.256875 567.387719,256.710771 565.598659,256.570671 C563.79689,256.429617 562.308525,255.174433 562.167529,253.399591 L571.065112,253.399591 C571.262218,253.399591 571.417361,253.253058 571.43031,253.038857 C571.57658,250.619506 570.878077,245.531817 565.400115,245.531817 L565.400115,245.531817 Z M543.811499,256.759139 L540.092863,256.759139 C539.572282,256.727449 539.117164,256.593782 538.701851,256.276412 C538.254406,255.931165 538.049627,255.526352 538.045551,254.995257 C538.052265,254.294994 538.52153,252.884937 540.908622,252.884937 L543.811499,252.884937 L543.811499,256.759139 L543.811499,256.759139 Z M546.711978,250.983576 C546.711978,249.204922 546.311531,247.839421 545.453809,246.926386 C544.562276,245.979518 542.966965,245.531817 541.369975,245.531817 C539.773225,245.531817 538.23906,245.939966 536.87946,246.743637 C536.790499,246.795102 536.737985,246.889217 536.737985,246.991671 C536.737985,246.999534 536.737985,247.002393 536.738225,247.007873 C536.738225,247.007873 536.858119,248.962368 536.858839,248.968562 C536.8797,249.233276 537.092632,249.319766 537.33314,249.17085 C539.419777,247.878973 541.705918,247.806064 542.748757,248.327627 C543.975514,248.9414 543.811499,250.49394 543.811499,250.49394 L540.7295,250.49394 C539.321704,250.49394 535,250.991915 535,254.959517 C535,254.973575 535,254.98525 535.00048,255.000976 C535.00048,255.007885 535,255.015272 535,255.024326 C535.001679,256.377437 535.468546,257.469647 536.398925,258.190163 C537.260724,258.863502 538.438803,259.183731 539.898155,259.18397 L546.327117,259.182302 C546.541968,259.182302 546.715814,259.009083 546.715814,258.796073 L546.711978,250.983576 L546.711978,250.983576 Z M579.638981,256.532072 C578.021129,256.532072 576.851682,255.355515 576.360596,253.893278 C576.204254,253.427945 576.099706,252.85849 576.098987,252.330731 C576.099706,251.802972 576.204254,251.233279 576.360596,250.767469 C576.851682,249.305947 578.021129,248.128914 579.638981,248.128914 C583.260023,248.128914 583.382075,251.802972 583.382795,252.330731 C583.382075,252.85849 583.260023,256.532072 579.638981,256.532072 L579.638981,256.532072 Z M586.35545,252.330731 C586.35545,250.847526 585.95836,249.386719 585.065389,248.171802 C583.794511,246.447472 581.765663,245.534199 579.638981,245.528481 C577.512538,245.534199 575.48369,246.447472 574.213292,248.171802 C572.476745,250.52825 572.474587,254.130829 574.213292,256.48966 C575.48369,258.213513 577.512538,259.127024 579.638981,259.132981 C581.031671,259.129169 582.38072,258.734124 583.503888,257.978821 L583.503888,259.62357 C583.503888,261.857312 581.538104,262.263317 580.280414,262.340515 C579.43588,262.392218 578.234061,262.278804 577.693099,262.19827 C577.348523,262.146566 577.108016,262.206609 577.108016,262.565438 C577.109454,262.557813 577.101302,264.541614 577.108735,264.54495 C577.101302,264.690769 577.220237,264.8485 577.463622,264.86923 C580.380166,265.118456 582.348108,265.065561 583.828561,264.229963 C584.880992,263.635728 585.604673,262.654311 585.984977,261.508014 C586.258815,260.683615 586.35545,259.669079 586.35545,258.787972 L586.35545,252.330731 L586.35545,252.330731 Z M596.001891,246.32 L596.001891,247.892078 C596.006687,248.239231 595.777689,248.399345 595.470281,248.336443 C592.922291,247.814403 591.356473,248.939971 591.356473,251.279979 L591.352877,258.795596 C591.352877,259.009083 591.17879,259.182302 590.96394,259.182302 L588.709451,259.182302 C588.49484,259.182302 588.320754,259.009083 588.320754,258.795596 L588.320754,251.082218 C588.320754,249.069825 589.238184,247.915904 589.981048,247.181569 C590.989358,246.183712 592.462137,245.528004 594.102289,245.528481 C594.345674,245.527051 595.249915,245.567557 595.665948,245.676444 L595.666907,245.676444 C595.963045,245.76222 596.001891,245.918999 596.001891,246.32 L596.001891,246.32 Z M551.80484,258.796073 C551.80484,259.009083 551.630754,259.182302 551.415904,259.182302 L549.161654,259.182302 C548.946564,259.182302 548.772718,259.009083 548.772718,258.796073 L548.772718,240.386705 C548.772718,240.173219 548.946564,240 549.161654,240 L551.415904,240 C551.630754,240 551.80484,240.173219 551.80484,240.386705 L551.80484,258.796073 L551.80484,258.796073 Z M557.101043,258.796073 C557.101043,259.009083 556.926717,259.182302 556.712107,259.182302 L554.457857,259.182302 C554.243007,259.182302 554.068681,259.009083 554.068681,258.796073 L554.068681,240.386705 C554.068681,240.173219 554.243007,240 554.457857,240 L556.712107,240 C556.926717,240 557.101043,240.173219 557.101043,240.386705 L557.101043,258.796073 L557.101043,258.796073 Z M606.503897,253.893278 C606.012811,255.355515 604.843363,256.523017 603.225272,256.532072 C601.607421,256.523017 600.437494,255.355515 599.946887,253.893278 C599.790306,253.427945 599.685758,252.85849 599.685278,252.330731 C599.685758,251.802972 599.790306,251.233279 599.946887,250.767469 C600.437494,249.305947 601.607421,248.138206 603.225272,248.128914 C604.843363,248.138206 606.012811,249.305947 606.503897,250.767469 C606.660479,251.233279 606.764787,251.802972 606.765506,252.330731 C606.764787,252.85849 606.660479,253.427945 606.503897,253.893278 L606.503897,253.893278 Z M608.651201,248.171802 C607.381043,246.447472 605.352194,245.534199 603.225272,245.528481 C601.09859,245.534199 599.069742,246.447472 597.799344,248.171802 C596.921479,249.362654 596.508564,250.867064 596.508564,252.330731 C596.508564,253.794159 596.921479,255.298808 597.799344,256.48966 C599.069742,258.213513 601.09859,259.127024 603.225272,259.132981 C605.352194,259.127024 607.381043,258.213513 608.651201,256.48966 C609.529066,255.298808 609.942461,253.794159 609.942461,252.330731 C609.942461,250.867064 609.529066,249.362654 608.651201,248.171802 L608.651201,248.171802 Z" id="allegro"></path>
            </g>
        </g>
    </g>
</svg>