<?xml version="1.0" encoding="UTF-8"?>
<svg width="154px" height="16px" viewBox="0 0 154 16" version="1.1" xmlns="http://www.w3.org/2000/svg" xmlns:xlink="http://www.w3.org/1999/xlink">
    <!-- Generator: Sketch 42 (36781) - http://www.bohemiancoding.com/sketch -->
    <title>bestseller_logo_vektor</title>
    <desc>Created with Sketch.</desc>
    <defs></defs>
    <g id="one-pager" stroke="none" stroke-width="1" fill="none" fill-rule="evenodd">
        <g id="Landing_page" transform="translate(-162.000000, -4390.000000)" fill="#6B6B6B">
            <g id="Happy_Customers" transform="translate(161.000000, 4141.000000)">
                <g id="bestseller_logo_vektor" transform="translate(1.000000, 249.000000)">
                    <path d="M69.0415,11.6215 C69.003,13.8080556 67.4306111,15.8888889 64.3726111,15.8888889 C61.7925,15.8888889 59.6340556,13.9901667 59.5167222,11.5493889 C59.9665,11.55 61.9092222,11.5493889 62.2563333,11.5493889 C62.3156111,12.7606111 63.1650556,13.4878333 64.6445556,13.4224444 C65.9645556,13.3625556 66.5787222,12.2344444 66.6001111,11.3709444 C66.6263889,10.3296111 66.4418333,9.39522222 63.5207222,8.37527778 C61.0249444,7.50383333 59.8228889,6.44477778 59.8228889,4.02294444 C59.8228889,1.59316667 62.0888889,0.106333333 64.0536111,0.0745555556 C67.3187778,0.0207777778 68.8294444,2.12422222 68.7836111,3.88116667 L66.0983889,3.88116667 C66.0171111,2.97733333 65.1230556,2.33872222 64.1697222,2.33872222 C63.1962222,2.33872222 62.2398333,2.98711111 62.2386111,4.25761111 C62.2373889,5.63505556 63.0733889,6.13127778 65.0815,6.84811111 C68.5905,7.98172222 69.0891667,9.6305 69.0415,11.6215" id="Fill-1"></path>
                    <path d="M39.6189444,11.6215 C39.5804444,13.8080556 38.0080556,15.8888889 34.9500556,15.8888889 C32.3699444,15.8888889 30.2121111,13.9901667 30.0947778,11.5493889 C30.5445556,11.55 32.4866667,11.5493889 32.8343889,11.5493889 C32.8930556,12.7606111 33.7431111,13.4878333 35.222,13.4224444 C36.542,13.3625556 37.1561667,12.2344444 37.1781667,11.3709444 C37.2044444,10.3296111 37.0192778,9.39522222 34.0981667,8.37527778 C31.6023889,7.50383333 30.4009444,6.44477778 30.4009444,4.02294444 C30.4009444,1.59316667 32.6663333,0.106333333 34.6316667,0.0745555556 C37.8962222,0.0207777778 39.4075,2.12422222 39.3610556,3.88116667 L36.6758333,3.88116667 C36.5945556,2.97733333 35.7011111,2.33872222 34.7477778,2.33872222 C33.7742778,2.33872222 32.8178889,2.98711111 32.8166667,4.25761111 C32.8154444,5.63505556 33.6508333,6.13127778 35.6595556,6.84811111 C39.1679444,7.98172222 39.6672222,9.6305 39.6189444,11.6215" id="Fill-3"></path>
                    <path d="M152.188667,0.455888889 C152.912222,0.462611111 153.471389,1.02911111 153.465889,1.7325 C153.460389,2.45055556 152.892667,3.00116667 152.159944,2.99566667 C151.435167,2.98955556 150.860722,2.431 150.865611,1.71416667 C150.872944,1.00955556 151.454722,0.450388889 152.1795,0.455888889 L152.188667,0.455888889 L152.188667,0.455888889 Z M152.169722,0.713166667 C151.613,0.708277778 151.193778,1.15866667 151.190111,1.71477778 C151.185833,2.27883333 151.597111,2.72983333 152.169722,2.73472222 C152.725222,2.74572222 153.138333,2.29472222 153.142611,1.73005556 C153.146889,1.17272222 152.739889,0.717444444 152.177667,0.713166667 L152.169722,0.713166667 L152.169722,0.713166667 Z M151.962556,2.37722222 L151.671056,2.37538889 L151.680833,1.11711111 C151.797556,1.0945 151.958889,1.07188889 152.166667,1.07372222 C152.407444,1.07555556 152.510722,1.1165 152.607889,1.17761111 C152.6745,1.23383333 152.7295,1.33527778 152.728278,1.44833333 C152.728278,1.59744444 152.615833,1.70316667 152.463056,1.749 L152.463056,1.76305556 C152.585278,1.80277778 152.655556,1.90483333 152.691611,2.07411111 C152.7295,2.26783333 152.752111,2.34483333 152.782056,2.38272222 L152.466111,2.38088889 C152.427,2.33261111 152.403778,2.22627778 152.368333,2.07777778 C152.346333,1.93966667 152.268722,1.87855556 152.106778,1.87611111 L151.968056,1.8755 L151.962556,2.37722222 L151.962556,2.37722222 Z M151.977833,1.66711111 L152.116556,1.66894444 C152.279722,1.67016667 152.408667,1.61516667 152.408667,1.48438889 C152.409889,1.36827778 152.327389,1.29127778 152.140389,1.28944444 C152.065833,1.28883333 152.012667,1.298 151.979056,1.30533333 L151.977833,1.66711111 L151.977833,1.66711111 Z" id="Fill-4"></path>
                    <polyline id="Fill-6" points="108.056667 0.504166667 105.722833 0.504166667 105.722833 15.3773889 113.884222 15.3773889 113.884222 13.2421667 108.165444 13.2421667 108.056667 13.1309444 108.056667 0.504166667"></polyline>
                    <polyline id="Fill-7" points="93.9723889 0.504166667 91.6373333 0.504166667 91.6373333 15.3773889 99.7987222 15.3773889 99.7987222 13.2421667 94.0805556 13.2391111 93.9723889 13.1309444 93.9723889 0.504166667"></polyline>
                    <polyline id="Fill-8" points="48.5417778 2.75244444 48.4342222 2.64427778 44.4644444 2.64733333 44.4644444 0.504166667 54.9529444 0.504166667 54.9529444 2.64733333 50.9880556 2.64427778 50.8792778 2.75244444 50.8774444 15.3773889 48.5417778 15.3749444 48.5417778 2.75244444"></polyline>
                    <polyline id="Fill-9" points="128.514833 0.504777778 120.362 0.504777778 120.362 15.3767778 128.514833 15.3767778 128.514833 13.2421667 122.799111 13.2421667 122.692778 13.1346111 122.692167 8.95583333 122.799111 8.8495 127.557222 8.8495 127.557222 6.6825 122.799111 6.6825 122.692167 6.57616667 122.692167 2.75366667 122.799111 2.64672222 128.514833 2.64672222 128.514833 0.504777778"></polyline>
                    <polyline id="Fill-10" points="83.9935556 0.504777778 75.8413333 0.504777778 75.8413333 15.3767778 83.9935556 15.3767778 83.9935556 13.2421667 78.2790556 13.2421667 78.1715 13.1346111 78.1715 8.95583333 78.2778333 8.8495 83.0377778 8.8495 83.0377778 6.6825 78.2778333 6.6825 78.1715 6.57616667 78.1715 2.75366667 78.2778333 2.64672222 83.9935556 2.64672222 83.9935556 0.504777778"></polyline>
                    <polyline id="Fill-11" points="24.0753333 0.509055556 15.9231111 0.509055556 15.9231111 15.3810556 24.0753333 15.3810556 24.0753333 13.2458333 18.3602222 13.2458333 18.2532778 13.1395 18.2526667 8.96072222 18.3602222 8.85316667 23.1195556 8.85316667 23.1195556 6.68677778 18.3602222 6.68677778 18.2526667 6.57983333 18.2526667 2.75916667 18.3602222 2.65161111 24.0753333 2.65161111 24.0753333 0.509055556"></polyline>
                    <path d="M138.459444,6.68555556 L138.350667,6.57738889 L138.350667,2.75794444 L138.457611,2.64916667 L139.951778,2.64672222 C141.681222,2.64672222 142.283778,3.74611111 142.283778,4.61938889 C142.283778,6.3525 141.141611,6.70755556 139.957889,6.68555556 L138.459444,6.68555556 L138.459444,6.68555556 Z M139.607111,0.508444444 C138.703889,0.508444444 136.447056,0.508444444 136.016222,0.591555556 L136.016222,15.3718889 L138.354333,15.3718889 C138.354333,15.1647222 138.350667,9.06338889 138.350667,9.06338889 L138.457611,8.96072222 L139.596722,8.96072222 C140.655167,8.96072222 141.034667,9.65555556 141.504611,10.6852778 C142.143833,12.0920556 142.434111,13.3368889 143.035444,15.3737222 L145.578889,15.3718889 C145.339944,14.5939444 144.478278,11.9863333 143.725389,9.97027778 C143.281722,8.78044444 142.711556,8.12777778 142.033833,7.96033333 L142.033833,7.89372222 C143.260944,7.41094444 144.601111,6.55538889 144.660389,4.36822222 C144.692778,3.25722222 144.455056,2.26966667 143.745556,1.58522222 C142.864333,0.749833333 141.466722,0.508444444 139.607111,0.508444444 L139.607111,0.508444444 Z" id="Fill-12"></path>
                    <path d="M3.0745,13.2446111 L2.44016667,13.2446111 L2.332,13.1333889 L2.332,8.96011111 L2.44016667,8.85072222 L3.88544444,8.84705556 C5.52322222,8.84705556 6.64277778,9.64211111 6.64277778,11.1436111 C6.64155556,12.3255 6.10194444,13.2446111 4.01561111,13.2519444 C3.65444444,13.2519444 3.33911111,13.2446111 3.0745,13.2446111 L3.0745,13.2446111 Z M2.44261111,6.68311111 L2.33444444,6.57433333 L2.332,2.7555 L2.44016667,2.64733333 C2.58805556,2.64733333 2.68033333,2.64855556 2.81722222,2.64855556 C3.13561111,2.64855556 3.45216667,2.65038889 3.89155556,2.65038889 C5.64422222,2.65038889 6.18811111,3.52794444 6.18811111,4.55888889 C6.18811111,5.82938889 5.67783333,6.68677778 3.9985,6.68677778 C3.95938889,6.68677778 2.44261111,6.68311111 2.44261111,6.68311111 L2.44261111,6.68311111 Z M3.76138889,0.507833333 C3.71311111,0.507833333 3.66605556,0.508444444 3.61594444,0.508444444 C2.72494444,0.515777778 0.4235,0.508444444 0,0.585444444 L0,15.3498889 C0.463833333,15.4336111 2.75916667,15.4537778 3.729,15.4537778 C6.11294444,15.4537778 6.99233333,15.1867222 7.93894444,14.344 C8.69977778,13.6565 9.07744444,12.6139444 9.07744444,11.3269444 C9.07744444,9.12205556 8.05077778,8.11922222 6.73383333,7.62972222 L6.73383333,7.56311111 C7.73422222,7.03572222 8.49994444,6.12272222 8.49994444,4.2515 C8.49994444,3.07083333 8.10761111,2.21772222 7.40605556,1.59011111 C6.53155556,0.807277778 5.34966667,0.507833333 3.76138889,0.507833333 L3.76138889,0.507833333 Z" id="Fill-13"></path>
                </g>
            </g>
        </g>
    </g>
</svg>