<?xml version="1.0" encoding="UTF-8"?>
<svg width="139px" height="40px" viewBox="0 0 139 40" version="1.1" xmlns="http://www.w3.org/2000/svg" xmlns:xlink="http://www.w3.org/1999/xlink">
    <!-- Generator: Sketch 42 (36781) - http://www.bohemiancoding.com/sketch -->
    <title>Bijenkorf</title>
    <desc>Created with Sketch.</desc>
    <defs></defs>
    <g id="one-pager" stroke="none" stroke-width="1" fill="none" fill-rule="evenodd">
        <g id="Landing_page" transform="translate(-419.000000, -4283.000000)" fill="#6B6B6B">
            <g id="Happy_Customers" transform="translate(161.000000, 4141.000000)">
                <g id="Bijenkorf" transform="translate(258.000000, 142.000000)">
                    <polyline id="Fill-2" points="71.0503704 20.7681481 71.0962963 20.8177778 75.0051852 16.3325926 78.4044444 16.3325926 74.3133333 20.6666667 78.9622222 27.9777778 75.4 27.9777778 72.3266667 22.6066667 70.9851852 23.862963 70.9851852 27.9777778 68.1140741 27.9777778 68.1140741 12.0548148 71.0503704 12.0548148 71.0503704 20.7681481"></polyline>
                    <path d="M79.8518519,22.2207407 C79.8518519,23.7466667 80.3881481,26.1962963 82.7918519,26.1962963 C85.197037,26.1962963 85.7792593,23.6207407 85.7792593,22.2207407 C85.7792593,20.5755556 85.3007407,18.2822222 82.8207407,18.2474074 C80.4155556,18.2474074 79.8518519,20.6940741 79.8518519,22.2207407 C79.8518519,22.2207407 79.8518519,20.6940741 79.8518519,22.2207407 L79.8518519,22.2207407 Z M88.562963,23.0088889 C88.1614815,26.1177778 86.042963,28.3659259 82.822963,28.3659259 C79.3296296,28.3659259 77.0451852,25.7311111 77.0451852,22.1977778 C77.0451852,18.6703704 79.3422222,16.0451852 82.822963,16.0303704 C85.8140741,16.0392593 87.9385185,17.9814815 88.4711111,20.7674074 C88.6985185,21.9555556 88.6311111,22.4866667 88.562963,23.0088889 L88.562963,23.0088889 Z" id="Fill-3"></path>
                    <path d="M88.977037,16.3222222 L91.6822222,16.3348148 L91.7333333,17.8140741 L91.7785185,17.8140741 C92.6496296,16.0748148 94.3577778,15.9014815 95.2651852,16.06 L95.2651852,18.5466667 L94.6948148,18.5466667 C92.8859259,18.5740741 91.837037,20.0140741 91.7888889,21.6118519 L91.7888889,27.9777778 L88.9718519,27.9777778 L88.977037,16.3222222" id="Fill-4"></path>
                    <path d="M101.76,14.2466667 C100.085185,14.2318519 99.6274074,14.6948148 99.7162963,16.2874074 L101.8,16.2874074 L101.8,18.2303704 L99.7362963,18.2303704 L99.7362963,27.96 L96.8814815,27.96 L96.8814815,18.2303704 L95.437037,18.2303704 L95.437037,16.2874074 L96.9288889,16.2874074 C96.8422222,13.1385185 98.2222222,11.9955556 100.899259,12.0303704 C101.037778,12.0348148 101.434074,12.0155556 101.76,12.0422222 L101.76,14.2466667" id="Fill-5"></path>
                    <polygon id="Fill-6" points="37.8148148 27.9748148 40.6377778 27.9748148 40.6377778 16.4014815 37.8148148 16.4014815"></polygon>
                    <path d="M45.3059259,29.42 C45.2888889,30.8844444 44.4785185,31.8340741 43.0518519,31.8340741 C42.6711111,31.8340741 41.882963,31.8340741 40.6651852,31.8274074 L40.6651852,29.5755556 C42.2333333,29.5659259 42.477037,28.96 42.4844444,28.5562963 L42.4844444,16.4014815 L45.3059259,16.4014815 L45.3059259,29.42" id="Fill-8"></path>
                    <path d="M60.222963,17.6785185 L60.2911111,17.7474074 C60.5696296,17.3192593 61.7585185,16.0185185 63.3266667,16.0185185 C65.9111111,16.0185185 67.2962963,17.6311111 67.2962963,20.3918519 L67.2962963,27.9748148 L64.5066667,27.9748148 L64.5066667,20.9711111 C64.4866667,19.717037 64.0837037,18.5266667 62.4348148,18.5266667 C61.3859259,18.5266667 60.157037,19.2762963 60.1140741,20.9711111 L60.1140741,27.9748148 L57.3074074,27.9748148 L57.3074074,16.3496296 L60.222963,16.3496296 L60.222963,17.6785185" id="Fill-10"></path>
                    <path d="M11.1051852,25.897037 C11.1051852,26.6244444 11.0755556,27.3711111 11.1177778,28.0985185 L8.26518519,28.0985185 C8.22592593,27.5718519 8.2,27.4385185 8.2,26.9111111 L8.1562963,26.9111111 C7.63777778,27.6037037 6.61851852,28.48 4.94518519,28.48 C1.83037037,28.48 0.0696296296,25.4118519 0.0696296296,22.5740741 C0.0696296296,18.4651852 2.27925926,16.2259259 4.88296296,16.2259259 C6.83111111,16.2259259 7.97925926,17.2281481 8.28148148,17.6955556 L8.32222222,17.6955556 L8.32222222,12.2081481 L11.1051852,12.2081481 L11.1051852,25.897037 L11.1051852,25.897037 Z M8.44074074,22.3666667 C8.43851852,20.7955556 7.76888889,18.5807407 5.77259259,18.5807407 C3.48740741,18.5807407 2.95555556,20.7955556 2.95555556,22.3666667 C2.95555556,24.0340741 3.57703704,26.1562963 5.77259259,26.1562963 C7.76888889,26.1562963 8.43851852,23.94 8.44074074,22.3666667 C8.44074074,22.3666667 8.43851852,23.94 8.44074074,22.3666667 L8.44074074,22.3666667 Z" id="Fill-11"></path>
                    <path d="M19.6888889,21.0474074 C19.6888889,19.6103704 18.7688889,18.4081481 17.1533333,18.4081481 C15.1785185,18.4081481 14.5355556,19.9274074 14.48,21.0474074 L19.6888889,21.0474074 L19.6888889,21.0474074 Z M14.4288889,23.0266667 C14.3511111,24.7533333 15.6955556,26.0548148 17.2814815,26.0548148 C18.3518519,26.0548148 19.1111111,25.5851852 19.6503704,24.6422222 L22.5562963,24.6422222 C22.4755556,25.0288889 21.6318519,28.3903704 17.1022222,28.3903704 C14.0444444,28.3903704 11.5592593,25.5748148 11.5592593,22.422963 C11.5592593,19.1007407 13.4014815,16.137037 17.12,16.137037 C19.4014815,16.137037 20.9585185,17.297037 21.9637037,19.3259259 C22.282963,19.9422222 22.5266667,20.8918519 22.617037,21.597037 C22.7081481,22.28 22.7037037,22.6311111 22.7081481,23.0266667 L14.4288889,23.0266667 L14.4288889,23.0266667 Z" id="Fill-12"></path>
                    <path d="M27.9659259,25.6074074 L31.3288889,25.6074074 C32.8081481,25.6074074 34.262963,25.0111111 34.262963,23.2296296 C34.262963,21.3540741 32.7637037,20.8496296 31.3288889,20.8496296 L27.9659259,20.8496296 L27.9659259,25.6074074 L27.9659259,25.6074074 Z M25.0118519,12.2177778 L30.7511111,12.2177778 C33.6148148,12.0348148 36.7888889,12.9037037 36.7888889,16.1814815 C36.7888889,17.9948148 35.7281481,18.9940741 34.1133333,19.5562963 L34.1133333,19.5977778 C35.9985185,20.0059259 37.2851852,21.502963 37.2851852,23.7348148 C37.2851852,26.0525926 35.8592593,28.3237037 30.9244444,27.9525926 L25.0118519,27.9525926 L25.0118519,12.2177778 L25.0118519,12.2177778 Z M27.9659259,18.6037037 L31.2103704,18.6037037 C32.9103704,18.6037037 33.9185185,17.9207407 33.9185185,16.5948148 C33.9185185,15.2237037 32.9533333,14.5881481 31.2103704,14.5881481 L27.9659259,14.5881481 L27.9659259,18.6037037 L27.9659259,18.6037037 Z" id="Fill-13"></path>
                    <path d="M53.8918519,21.0474074 C53.8918519,19.6103704 52.9725926,18.4081481 51.3562963,18.4081481 C49.3822222,18.4081481 48.7362963,19.9274074 48.682963,21.0474074 L53.8918519,21.0474074 L53.8918519,21.0474074 Z M48.6325926,23.0266667 C48.5518519,24.7533333 49.8962963,26.0548148 51.4844444,26.0548148 C52.5525926,26.0548148 53.3140741,25.5851852 53.8511111,24.6422222 L56.7592593,24.6422222 C56.6762963,25.0288889 55.8325926,28.3903704 51.3051852,28.3903704 C48.2474074,28.3903704 45.76,25.5748148 45.76,22.422963 C45.76,19.1007407 47.6044444,16.137037 51.3207407,16.137037 C53.6022222,16.137037 55.1614815,17.297037 56.1666667,19.3259259 C56.4859259,19.9422222 56.7296296,20.8918519 56.82,21.597037 C56.9118519,22.28 56.9066667,22.6311111 56.9118519,23.0266667 L48.6325926,23.0266667 L48.6325926,23.0266667 Z" id="Fill-14"></path>
                    <path d="M135.832593,11.8918519 L123.674815,4.64518519 L123.674815,9.3237037 L122.559259,9.3237037 C119.521481,9.3237037 117.638519,11.6666667 117.638519,14.0762963 L117.638519,23.4748148 L113.081481,23.4748148 L113.081481,24.8703704 L123.674815,24.8703704 L123.674815,35.4288889 L135.832593,28.1881481 L135.832593,11.8918519 L135.832593,11.8918519 Z M108.687407,28.142963 L120.854815,35.3940741 L120.854815,27.8022222 L110.260741,27.8022222 L110.260741,20.542963 L114.817778,20.542963 L114.817778,13.9718519 C114.817778,9.92740741 118.242222,6.97111111 120.854815,6.59703704 L120.854815,4.68518519 L108.687407,11.9362963 L108.687407,28.142963 L108.687407,28.142963 Z M105.86963,10.2362963 L122.299259,0.448888889 L138.652593,10.1940741 L138.652593,29.8851852 L122.299259,39.6325926 L105.86963,29.84 L105.86963,10.2362963 L105.86963,10.2362963 Z" id="Fill-15"></path>
                </g>
            </g>
        </g>
    </g>
</svg>