<?xml version="1.0" encoding="UTF-8"?>
<svg width="45px" height="45px" viewBox="0 0 45 45" version="1.1" xmlns="http://www.w3.org/2000/svg" xmlns:xlink="http://www.w3.org/1999/xlink">
    <!-- Generator: Sketch 42 (36781) - http://www.bohemiancoding.com/sketch -->
    <title>coolblue_logo_-_web</title>
    <desc>Created with Sketch.</desc>
    <defs>
        <polygon id="path-1" points="0 44.9937644 44.9651848 44.9937644 44.9651848 0.033256351 0 0.033256351"></polygon>
    </defs>
    <g id="one-pager" stroke="none" stroke-width="1" fill="none" fill-rule="evenodd">
        <g id="Landing_page" transform="translate(-1229.000000, -4375.000000)">
            <g id="Happy_Customers" transform="translate(161.000000, 4141.000000)">
                <g id="coolblue_logo_-_web" transform="translate(1068.000000, 234.000000)">
                    <g id="Group-3">
                        <mask id="mask-2" fill="white">
                            <use xlink:href="#path-1"></use>
                        </mask>
                        <g id="Clip-2"></g>
                        <path d="M44.9651848,22.5162125 C44.9651848,34.9331986 34.8986952,45 22.4825404,45 C10.0662818,45 0,34.9331986 0,22.5162125 C0,10.0988106 10.0662818,0.033256351 22.4825404,0.033256351 C34.8986952,0.033256351 44.9651848,10.0988106 44.9651848,22.5162125" id="Fill-1" fill="#6B6B6B" mask="url(#mask-2)"></path>
                    </g>
                    <path d="M22.3462933,18.3432679 C22.3462933,18.0522748 22.3161547,17.7871594 22.2597229,17.5481293 C22.2028753,17.308164 22.1038337,17.1049885 21.9617667,16.935485 C21.8184527,16.7658776 21.6284758,16.634515 21.3887182,16.5401501 C21.1479215,16.4449538 20.846224,16.398291 20.4817552,16.398291 C20.1165589,16.398291 19.8146536,16.4449538 19.5756236,16.5401501 C19.3338915,16.634515 19.144642,16.7658776 19.002679,16.935485 C18.8611316,17.1049885 18.7629215,17.308164 18.7098152,17.5481293 C18.6545266,17.7871594 18.6276097,18.0522748 18.6276097,18.3432679 C18.6276097,18.6338453 18.6545266,18.8990647 18.7098152,19.1387182 C18.7629215,19.3783718 18.8611316,19.5838337 19.002679,19.7559353 C19.144642,19.9285566 19.3338915,20.0641801 19.5756236,20.1606236 C19.8146536,20.259873 20.1165589,20.3088222 20.4817552,20.3088222 C20.846224,20.3088222 21.1479215,20.259873 21.3887182,20.1606236 C21.6284758,20.0641801 21.8184527,19.9285566 21.9617667,19.7559353 C22.1038337,19.5838337 22.2028753,19.3783718 22.2597229,19.1387182 C22.3161547,18.8990647 22.3462933,18.6338453 22.3462933,18.3432679 M16.489746,18.292448 C16.489746,17.7251155 16.5634296,17.2200346 16.7085104,16.7778291 C16.8522402,16.3353118 17.0869053,15.9634642 17.4076212,15.6637413 C17.7291686,15.3625635 18.1398845,15.1342379 18.6436143,14.979388 C19.1466166,14.8242263 19.7598845,14.7466975 20.4817552,14.7466975 C21.1985335,14.7466975 21.8101386,14.8242263 22.3161547,14.979388 C22.8209238,15.1342379 23.2347575,15.3625635 23.5564088,15.6637413 C23.8778522,15.9634642 24.111582,16.3353118 24.2546882,16.7778291 C24.401224,17.2200346 24.472933,17.7251155 24.472933,18.292448 C24.472933,18.8660162 24.401224,19.3747344 24.2546882,19.816836 C24.111582,20.259873 23.8778522,20.6308891 23.5564088,20.9317552 C23.2347575,21.2318938 22.8209238,21.4601155 22.3161547,21.6149654 C21.8101386,21.7703349 21.1985335,21.8492148 20.4817552,21.8492148 C19.7598845,21.8492148 19.1466166,21.7703349 18.6436143,21.6149654 C18.1398845,21.4601155 17.7291686,21.2318938 17.4076212,20.9317552 C17.0869053,20.6308891 16.8522402,20.259873 16.7085104,19.816836 C16.5634296,19.3747344 16.489746,18.8660162 16.489746,18.292448" id="Fill-4" fill="#FFFFFF"></path>
                    <path d="M31.0230831,18.3432679 C31.0230831,18.0522748 30.9947113,17.7871594 30.9378637,17.5481293 C30.8800808,17.308164 30.7812471,17.1049885 30.6399076,16.935485 C30.4978406,16.7658776 30.3055774,16.634515 30.0659238,16.5401501 C29.825127,16.4449538 29.5246767,16.398291 29.1597921,16.398291 C28.7956351,16.398291 28.4922748,16.4449538 28.2526212,16.5401501 C28.0118245,16.634515 27.8236143,16.7658776 27.681963,16.935485 C27.5391686,17.1049885 27.4399192,17.308164 27.3869169,17.5481293 C27.3328753,17.7871594 27.3060624,18.0522748 27.3060624,18.3432679 C27.3060624,18.6338453 27.3328753,18.8990647 27.3869169,19.1387182 C27.4399192,19.3783718 27.5391686,19.5838337 27.681963,19.7559353 C27.8236143,19.9285566 28.0118245,20.0641801 28.2526212,20.1606236 C28.4922748,20.259873 28.7956351,20.3088222 29.1597921,20.3088222 C29.5246767,20.3088222 29.825127,20.259873 30.0659238,20.1606236 C30.3055774,20.0641801 30.4978406,19.9285566 30.6399076,19.7559353 C30.7812471,19.5838337 30.8800808,19.3783718 30.9378637,19.1387182 C30.9947113,18.8990647 31.0230831,18.6338453 31.0230831,18.3432679 M25.1689261,18.292448 C25.1689261,17.7251155 25.2403233,17.2200346 25.3860277,16.7778291 C25.5293418,16.3353118 25.7654619,15.9634642 26.0844111,15.6637413 C26.4054388,15.3625635 26.8180254,15.1342379 27.3212356,14.979388 C27.8244457,14.8242263 28.4369861,14.7466975 29.1597921,14.7466975 C29.8754273,14.7466975 30.4864088,14.8242263 30.9947113,14.979388 C31.4989607,15.1342379 31.913418,15.3625635 32.2346536,15.6637413 C32.5553695,15.9634642 32.7900346,16.3353118 32.9337644,16.7778291 C33.0790531,17.2200346 33.1507621,17.7251155 33.1507621,18.292448 C33.1507621,18.8660162 33.0790531,19.3747344 32.9337644,19.816836 C32.7900346,20.259873 32.5553695,20.6308891 32.2346536,20.9317552 C31.913418,21.2318938 31.4989607,21.4601155 30.9947113,21.6149654 C30.4864088,21.7703349 29.8754273,21.8492148 29.1597921,21.8492148 C28.4369861,21.8492148 27.8244457,21.7703349 27.3212356,21.6149654 C26.8180254,21.4601155 26.4054388,21.2318938 26.0844111,20.9317552 C25.7654619,20.6308891 25.5293418,20.259873 25.3860277,19.816836 C25.2403233,19.3747344 25.1689261,18.8660162 25.1689261,18.292448" id="Fill-5" fill="#FFFFFF"></path>
                    <path d="M36.3548037,20.0574249 C36.4187182,20.1146882 36.451455,20.182448 36.451455,20.2636143 L36.451455,21.5264203 C36.451455,21.6139261 36.4187182,21.6864665 36.3548037,21.7488222 C36.2906813,21.8092032 36.2118014,21.8378868 36.1172286,21.8378868 L34.2223441,21.8378868 C34.1148845,21.8378868 34.0255081,21.8044226 33.9507852,21.7384296 C33.8764781,21.6705658 33.8407275,21.5902309 33.8407275,21.4961778 L33.8407275,12.8665704 C33.8407275,12.7866513 33.8710739,12.7157737 33.9351963,12.6544573 C33.9999423,12.5948037 34.0783025,12.5652887 34.171836,12.5652887 L35.5960393,12.5652887 C35.6908199,12.5652887 35.7691801,12.5948037 35.8345497,12.6544573 C35.8966975,12.7157737 35.9292263,12.7866513 35.9292263,12.8665704 L35.9292263,19.3446998 C35.9292263,19.8568476 35.9304734,19.7714203 35.9304734,19.9611894 L36.1274134,19.9611894 C36.2141917,19.9676328 36.2906813,19.9999538 36.3548037,20.0574249" id="Fill-6" fill="#FFFFFF"></path>
                    <path d="M20.7110162,30.5561432 C20.7777367,30.6164203 20.8117206,30.687194 20.8117206,30.7721016 L20.8117206,32.0937298 C20.8117206,32.1856005 20.7777367,32.2611547 20.7110162,32.3267321 C20.6439838,32.3900231 20.560739,32.4198499 20.4620092,32.4198499 L18.4788915,32.4198499 C18.3665473,32.4198499 18.2730139,32.3847229 18.1943418,32.3155081 C18.1166051,32.2447344 18.0797113,32.1606582 18.0797113,32.0620323 L18.0797113,23.0298152 C18.0797113,22.945739 18.111097,22.8716397 18.1783372,22.8081409 C18.2462009,22.7455774 18.3280947,22.7143995 18.4259931,22.7143995 L19.916709,22.7143995 C20.0153349,22.7143995 20.0977483,22.7455774 20.1661316,22.8081409 C20.2313972,22.8716397 20.265485,22.945739 20.265485,23.0298152 L20.265485,29.8101617 C20.265485,30.3462125 20.2667321,30.2571478 20.2667321,30.4556467 L20.4726097,30.4556467 C20.5637529,30.4625058 20.6439838,30.4960739 20.7110162,30.5561432" id="Fill-7" fill="#FFFFFF"></path>
                    <path d="M15.9666859,20.3809469 L15.4214896,19.6738337 C15.3645381,19.5955774 15.2953233,19.552552 15.2122864,19.5452771 C15.1311201,19.5392494 15.0471478,19.5664781 14.962448,19.6301848 C14.8111316,19.7309931 14.2725866,20.2503118 12.8041109,20.2503118 C11.7328406,20.2503118 10.4710739,19.6764319 10.4710739,18.3000346 C10.4710739,16.9455658 11.8106813,16.3497575 12.8041109,16.3497575 C14.183418,16.3497575 14.8111316,16.8688684 14.962448,16.9696767 C15.0471478,17.0335912 15.1311201,17.0610277 15.2122864,17.0546882 C15.2953233,17.0471016 15.3645381,17.0040762 15.4214896,16.9261316 L15.9666859,16.2188106 C16.060739,16.1044919 16.060739,16.1018938 16.0955543,16.0553349 C16.2933256,15.8045612 15.9110855,15.5562818 15.8972633,15.5490069 C15.6463857,15.3774249 15.5048383,15.301455 15.2880485,15.1897344 C15.0716744,15.0796767 14.8411663,14.9904042 14.6000577,14.9234758 C14.3561432,14.8565473 14.0926905,14.8079099 13.8068938,14.7780831 C13.5237991,14.7512702 13.1899885,14.7367206 12.8041109,14.7367206 C11.9501501,14.7367206 11.2536374,14.837321 10.7171709,15.035612 C10.1788337,15.2351501 8.44066975,16.0471247 8.44066975,18.223545 C8.44066975,20.493291 10.1788337,21.3649192 10.7171709,21.5645612 C11.2536374,21.7629561 11.9501501,21.8631409 12.8041109,21.8631409 C13.1899885,21.8631409 13.5237991,21.8486952 13.8068938,21.8213626 C14.0926905,21.7918476 14.3561432,21.743418 14.6000577,21.6763857 C14.8411663,21.6088337 15.0716744,21.5203926 15.2880485,21.4100231 C15.5048383,21.2989261 15.6463857,21.2225404 15.8972633,21.0509584 C15.9110855,21.0439954 16.2933256,20.7955081 16.0955543,20.543903 C16.060739,20.4978637 16.060739,20.4958891 15.9666859,20.3809469" id="Fill-8" fill="#FFFFFF"></path>
                    <path d="M15.1114781,29.6481409 C15.0523441,29.8903926 14.9499769,30.0974134 14.8003233,30.269515 C14.651709,30.4402656 14.4543533,30.5742263 14.20597,30.6651617 C13.9561316,30.7570323 13.642067,30.8017206 13.2594111,30.8017206 C12.8802887,30.8017206 12.5668476,30.7570323 12.3171132,30.6651617 C12.068418,30.5742263 11.8693995,30.4402656 11.7216166,30.269515 C11.5744573,30.0974134 11.4713626,29.8903926 11.411709,29.6481409 C11.3500808,29.4055774 11.3205658,29.1324596 11.3205658,28.83097 C11.3205658,28.5291686 11.3500808,28.2512702 11.411709,28.0014319 C11.4713626,27.7531524 11.5744573,27.5382333 11.7216166,27.3593764 C11.8693995,27.1793764 12.068418,27.0410508 12.3171132,26.9420092 C12.5668476,26.8437991 12.8802887,26.7944342 13.2594111,26.7944342 C13.642067,26.7944342 13.9561316,26.8437991 14.20597,26.9420092 C14.4543533,27.0410508 14.651709,27.1793764 14.8003233,27.3593764 C14.9499769,27.5382333 15.0523441,27.7531524 15.1114781,28.0014319 C15.1709238,28.2512702 15.2022055,28.5291686 15.2022055,28.83097 C15.2022055,29.1324596 15.1709238,29.4055774 15.1114781,29.6481409 M8.91633949,32.1302079 C8.91633949,32.2211432 8.95157044,32.2964896 9.02275982,32.3567667 C9.09135104,32.4170439 9.17792148,32.4474942 9.27394919,32.4474942 C9.27394919,32.4474942 10.9654503,32.4402194 11.031963,32.4243187 C11.0976443,32.4121594 11.1310046,32.362067 11.1310046,32.2784065 L11.1444111,32.0626559 C11.4232448,32.1714665 11.7395958,32.266455 12.0955427,32.346582 C12.4575173,32.4272286 12.8609584,32.4679677 13.3044111,32.4679677 C14.0495612,32.4679677 14.6829908,32.3870092 15.2062587,32.2243649 C15.7308776,32.0626559 16.1573903,31.8286143 16.4872517,31.5186028 C16.8189838,31.2084873 17.0573903,30.8260393 17.2046536,30.3647113 C17.3527483,29.9049423 17.4258083,29.3741917 17.4258083,28.7779677 C17.4258083,28.1796651 17.3490069,27.6506813 17.1938453,27.1904965 C17.0406582,26.7298961 16.7967436,26.3422517 16.465739,26.0231986 C16.1356697,25.7085104 15.7057275,25.4693764 15.1742494,25.3084988 C14.6440185,25.1473095 14.0042494,25.0648961 13.2594111,25.0648961 C12.8175173,25.0648961 12.4234296,25.0940993 12.0748614,25.1501155 C11.7273326,25.2059238 11.4193995,25.2863626 11.1444111,25.3918476 L11.1444111,23.1156582 C11.1444111,23.1065127 11.1435797,23.096224 11.1419169,23.0874942 L11.1419169,23.0645266 C11.1345381,22.9798268 11.0976443,22.9071824 11.031963,22.8481524 C10.9654503,22.7872517 10.8800231,22.7578406 10.7827483,22.7578406 L9.26646651,22.7578406 C9.1704388,22.7578406 9.087194,22.7892263 9.02099307,22.8517898 C8.9530254,22.9144573 8.92008083,22.9940647 8.92008083,23.0837529 L8.91633949,32.1302079" id="Fill-9" fill="#FFFFFF"></path>
                    <path d="M28.2298614,25.1611316 C28.2983487,25.2223441 28.3318129,25.297067 28.3318129,25.3821824 L28.3318129,28.8733718 C28.3318129,29.4979677 28.2828637,30.0363048 28.1823672,30.484642 C28.0835335,30.9358891 27.9078984,31.301709 27.6507852,31.5878176 C27.3941917,31.8716397 27.0403233,32.0811547 26.590843,32.2134527 C26.1412587,32.3488684 25.5685219,32.4155889 24.8729446,32.4155889 C24.1757044,32.4155889 23.6016166,32.3488684 23.1505774,32.2134527 C22.6948614,32.0811547 22.3380831,31.8716397 22.0802425,31.5878176 C21.8186605,31.301709 21.637933,30.937552 21.5354619,30.4909815 C21.4331986,30.0439954 21.3835219,29.5081524 21.3835219,28.8825173 L21.3835219,25.3821824 C21.3835219,25.297067 21.4160508,25.2223441 21.4822517,25.1611316 C21.5496998,25.0971132 21.6327367,25.0648961 21.7315704,25.0648961 L23.059642,25.0648961 C23.1566051,25.0648961 23.2400577,25.0971132 23.3115589,25.1611316 C23.3837875,25.2223441 23.4186028,25.297067 23.4186028,25.3821824 L23.4186028,28.925127 C23.4186028,29.1772517 23.4164203,29.4121247 23.4331524,29.6264203 C23.4505081,29.840612 23.5059007,30.0222748 23.6016166,30.1734873 C23.6973326,30.325739 23.8445958,30.4434873 24.0439261,30.5276674 C24.2457506,30.6117436 24.5238568,30.6543533 24.8827136,30.6543533 C25.2412587,30.6543533 25.5183256,30.6117436 25.7167206,30.5276674 C25.9126212,30.4434873 26.0582217,30.3231409 26.1539376,30.1690185 C26.2480947,30.0137529 26.3036952,29.8292841 26.3226097,29.6155081 C26.33903,29.4010046 26.3473441,29.1676905 26.3473441,28.9148383 L26.3473441,25.3821824 C26.3473441,25.297067 26.3839261,25.2223441 26.4480485,25.1611316 C26.5140416,25.0971132 26.5981178,25.0648961 26.6967436,25.0648961 L27.9837644,25.0648961 C28.0822864,25.0648961 28.1640762,25.0971132 28.2298614,25.1611316" id="Fill-10" fill="#FFFFFF"></path>
                    <path d="M31.0784758,28.0389492 C31.1040416,27.8209122 31.1576674,27.6262587 31.2304157,27.4539492 C31.3055543,27.2824711 31.4161316,27.136351 31.5637067,27.0159007 C31.7107621,26.8970092 31.896582,26.8029561 32.1234527,26.7368591 C32.3471016,26.6694111 32.6279099,26.635739 32.9649423,26.635739 C33.3019746,26.635739 33.5721824,26.6721132 33.7731755,26.7415358 C33.9725058,26.8125173 34.1270439,26.9106236 34.2353349,27.0322171 C34.3450808,27.1559931 34.4201155,27.302321 34.4633487,27.4746305 C34.5031524,27.6475635 34.5323557,27.835358 34.5464896,28.0389492 L32.3571824,28.0389492 C32.1818591,28.0389492 32.1742725,28.2146882 32.1742725,28.2146882 L32.1742725,29.2850231 C32.1742725,29.2850231 32.1742725,29.4413279 32.3571824,29.4413279 L36.5178637,29.4413279 C36.5266975,29.0483834 36.5266975,28.6657275 36.5178637,28.2971016 C36.5127714,27.929515 36.4755658,27.580843 36.4084296,27.2546189 C36.3405658,26.9272517 36.2360162,26.6297113 36.0904157,26.3637644 C35.9473095,26.0948037 35.7447575,25.8660624 35.4859815,25.6722402 C35.225127,25.4787298 34.8943303,25.329388 34.4943187,25.2223441 C34.0937875,25.1186259 33.6086605,25.0648961 33.0386259,25.0648961 C32.2027483,25.0648961 31.5217206,25.1651848 30.9942956,25.3662818 C30.4658314,25.5672748 30.0541801,25.8354042 29.7550808,26.1719169 C29.4566051,26.5098845 29.252806,26.9023095 29.1437875,27.3478406 C29.0331062,27.7944111 28.9788568,28.2638453 28.9788568,28.7572864 C28.9788568,29.2630947 29.0331062,29.7394919 29.1437875,30.1852309 C29.252806,30.6318014 29.4529677,31.0240185 29.7486374,31.360739 C30.0442032,31.6984988 30.457933,31.9649654 30.9896189,32.1621132 C31.5187067,32.3580139 32.2065935,32.4570554 33.0493303,32.4570554 C33.4306351,32.4570554 33.7599769,32.4428176 34.0391224,32.4155889 C34.3215935,32.3870092 34.5813048,32.3388915 34.8225173,32.2726905 C35.0598845,32.2061778 35.2875866,32.1184642 35.5018822,32.0098614 C35.7156582,31.8995958 35.8550231,31.8245612 36.1029908,31.6554734 C36.1165012,31.6485104 36.4937529,31.4025173 36.2985797,31.1550693 C36.2640762,31.1096536 36.2640762,31.1070554 36.1708545,30.9939838 L35.6332448,30.2954965 C35.5773326,30.2187991 35.5087413,30.1762933 35.4272633,30.1690185 C35.3463048,30.1627829 35.2635797,30.1894919 35.1802309,30.2528868 C35.0314088,30.3521363 34.8943303,30.4386028 34.7688915,30.5112471 C34.6409584,30.5853464 34.5000346,30.649261 34.3468476,30.7008083 C34.1916859,30.754642 34.0122055,30.7942379 33.8095497,30.8232333 C33.6048152,30.8504619 33.352067,30.8644919 33.0493303,30.8644919 C32.69806,30.8644919 32.4046767,30.8332102 32.1682448,30.7655543 C31.9342032,30.6986259 31.7401732,30.6011432 31.5889607,30.4743533 C31.4384758,30.3476674 31.3222864,30.1972864 31.2410162,30.0203002 C31.1601617,29.8461201 31.1040416,29.6526097 31.0784758,29.4413279 C30.9922171,28.8147575 31.0784758,28.0389492 31.0784758,28.0389492" id="Fill-11" fill="#FFFFFF"></path>
                    <path d="M31.0230831,18.3432679 C31.0230831,18.0522748 30.9947113,17.7871594 30.9378637,17.5481293 C30.8800808,17.308164 30.7812471,17.1049885 30.6399076,16.935485 C30.4978406,16.7658776 30.3055774,16.634515 30.0659238,16.5401501 C29.825127,16.4449538 29.5246767,16.398291 29.1597921,16.398291 C28.7956351,16.398291 28.4922748,16.4449538 28.2526212,16.5401501 C28.0118245,16.634515 27.8236143,16.7658776 27.681963,16.935485 C27.5391686,17.1049885 27.4399192,17.308164 27.3869169,17.5481293 C27.3328753,17.7871594 27.3060624,18.0522748 27.3060624,18.3432679 C27.3060624,18.6338453 27.3328753,18.8990647 27.3869169,19.1387182 C27.4399192,19.3783718 27.5391686,19.5838337 27.681963,19.7559353 C27.8236143,19.9285566 28.0118245,20.0641801 28.2526212,20.1606236 C28.4922748,20.259873 28.7956351,20.3088222 29.1597921,20.3088222 C29.5246767,20.3088222 29.825127,20.259873 30.0659238,20.1606236 C30.3055774,20.0641801 30.4978406,19.9285566 30.6399076,19.7559353 C30.7812471,19.5838337 30.8800808,19.3783718 30.9378637,19.1387182 C30.9947113,18.8990647 31.0230831,18.6338453 31.0230831,18.3432679 M25.1689261,18.292448 C25.1689261,17.7251155 25.2403233,17.2200346 25.3860277,16.7778291 C25.5293418,16.3353118 25.7654619,15.9634642 26.0844111,15.6637413 C26.4054388,15.3625635 26.8180254,15.1342379 27.3212356,14.979388 C27.8244457,14.8242263 28.4369861,14.7466975 29.1597921,14.7466975 C29.8754273,14.7466975 30.4864088,14.8242263 30.9947113,14.979388 C31.4989607,15.1342379 31.913418,15.3625635 32.2346536,15.6637413 C32.5553695,15.9634642 32.7900346,16.3353118 32.9337644,16.7778291 C33.0790531,17.2200346 33.1507621,17.7251155 33.1507621,18.292448 C33.1507621,18.8660162 33.0790531,19.3747344 32.9337644,19.816836 C32.7900346,20.259873 32.5553695,20.6308891 32.2346536,20.9317552 C31.913418,21.2318938 31.4989607,21.4601155 30.9947113,21.6149654 C30.4864088,21.7703349 29.8754273,21.8492148 29.1597921,21.8492148 C28.4369861,21.8492148 27.8244457,21.7703349 27.3212356,21.6149654 C26.8180254,21.4601155 26.4054388,21.2318938 26.0844111,20.9317552 C25.7654619,20.6308891 25.5293418,20.259873 25.3860277,19.816836 C25.2403233,19.3747344 25.1689261,18.8660162 25.1689261,18.292448" id="Fill-12" fill="#FFFFFF"></path>
                    <path d="M31.0784758,28.0389492 C31.1040416,27.8209122 31.1576674,27.6262587 31.2304157,27.4539492 C31.3055543,27.2824711 31.4161316,27.136351 31.5637067,27.0159007 C31.7107621,26.8970092 31.896582,26.8029561 32.1234527,26.7368591 C32.3471016,26.6694111 32.6279099,26.635739 32.9649423,26.635739 C33.3019746,26.635739 33.5721824,26.6721132 33.7731755,26.7415358 C33.9725058,26.8125173 34.1270439,26.9106236 34.2353349,27.0322171 C34.3450808,27.1559931 34.4201155,27.302321 34.4633487,27.4746305 C34.5031524,27.6475635 34.5323557,27.835358 34.5464896,28.0389492 L32.3571824,28.0389492 C32.1818591,28.0389492 32.1742725,28.2146882 32.1742725,28.2146882 L32.1742725,29.2850231 C32.1742725,29.2850231 32.1742725,29.4413279 32.3571824,29.4413279 L36.5178637,29.4413279 C36.5266975,29.0483834 36.5266975,28.6657275 36.5178637,28.2971016 C36.5127714,27.929515 36.4755658,27.580843 36.4084296,27.2546189 C36.3405658,26.9272517 36.2360162,26.6297113 36.0904157,26.3637644 C35.9473095,26.0948037 35.7447575,25.8660624 35.4859815,25.6722402 C35.225127,25.4787298 34.8943303,25.329388 34.4943187,25.2223441 C34.0937875,25.1186259 33.6086605,25.0648961 33.0386259,25.0648961 C32.2027483,25.0648961 31.5217206,25.1651848 30.9942956,25.3662818 C30.4658314,25.5672748 30.0541801,25.8354042 29.7550808,26.1719169 C29.4566051,26.5098845 29.252806,26.9023095 29.1437875,27.3478406 C29.0331062,27.7944111 28.9788568,28.2638453 28.9788568,28.7572864 C28.9788568,29.2630947 29.0331062,29.7394919 29.1437875,30.1852309 C29.252806,30.6318014 29.4529677,31.0240185 29.7486374,31.360739 C30.0442032,31.6984988 30.457933,31.9649654 30.9896189,32.1621132 C31.5187067,32.3580139 32.2065935,32.4570554 33.0493303,32.4570554 C33.4306351,32.4570554 33.7599769,32.4428176 34.0391224,32.4155889 C34.3215935,32.3870092 34.5813048,32.3388915 34.8225173,32.2726905 C35.0598845,32.2061778 35.2875866,32.1184642 35.5018822,32.0098614 C35.7156582,31.8995958 35.8550231,31.8245612 36.1029908,31.6554734 C36.1165012,31.6485104 36.4937529,31.4025173 36.2985797,31.1550693 C36.2640762,31.1096536 36.2640762,31.1070554 36.1708545,30.9939838 L35.6332448,30.2954965 C35.5773326,30.2187991 35.5087413,30.1762933 35.4272633,30.1690185 C35.3463048,30.1627829 35.2635797,30.1894919 35.1802309,30.2528868 C35.0314088,30.3521363 34.8943303,30.4386028 34.7688915,30.5112471 C34.6409584,30.5853464 34.5000346,30.649261 34.3468476,30.7008083 C34.1916859,30.754642 34.0122055,30.7942379 33.8095497,30.8232333 C33.6048152,30.8504619 33.352067,30.8644919 33.0493303,30.8644919 C32.69806,30.8644919 32.4046767,30.8332102 32.1682448,30.7655543 C31.9342032,30.6986259 31.7401732,30.6011432 31.5889607,30.4743533 C31.4384758,30.3476674 31.3222864,30.1972864 31.2410162,30.0203002 C31.1601617,29.8461201 31.1040416,29.6526097 31.0784758,29.4413279 C30.9922171,28.8147575 31.0784758,28.0389492 31.0784758,28.0389492" id="Fill-13" fill="#FFFFFF"></path>
                </g>
            </g>
        </g>
    </g>
</svg>