<?xml version="1.0" encoding="UTF-8"?>
<svg width="207px" height="19px" viewBox="0 0 207 19" version="1.1" xmlns="http://www.w3.org/2000/svg" xmlns:xlink="http://www.w3.org/1999/xlink">
    <!-- Generator: Sketch 42 (36781) - http://www.bohemiancoding.com/sketch -->
    <title>g-star</title>
    <desc>Created with Sketch.</desc>
    <defs></defs>
    <g id="one-pager" stroke="none" stroke-width="1" fill="none" fill-rule="evenodd">
        <g id="Landing_page" transform="translate(-162.000000, -807.000000)" fill="#6B6B6B">
            <g id="Header_clients" transform="translate(-11.000000, 743.000000)">
                <g id="header_clients" transform="translate(173.000000, 50.000000)">
                    <g id="g-star" transform="translate(0.000000, 14.000000)">
                        <path d="M182,0.000909090909 L186.331445,0.000909090909 L186.331445,14.2145455 L191.867128,14.2145455 L191.867128,0.000909090909 L196.198573,0.000909090909 L196.198573,14.2145455 L200.421119,14.2145455 C201.184317,14.2127273 201.80141,13.5954545 201.802317,12.8309091 L201.802317,0 L206.133762,0 L206.133762,12.8309091 C206.133762,15.99 203.575551,18.5527273 200.421119,18.5527273 L182,18.5527273 L182,0.000909090909 Z" id="Fill-1"></path>
                        <path d="M174.029938,5.72272727 C174.028123,4.95818182 173.411031,4.34 172.64874,4.33909091 L162.712643,4.33909091 C161.950352,4.34 161.332352,4.95818182 161.330537,5.72272727 L161.330537,8.43545455 L174.029938,8.43545455 L174.029938,5.72272727 Z M157,5.72272727 C157.000907,2.56181818 159.558211,0 162.713551,0 L172.64874,0 C175.803172,0 178.360476,2.56181818 178.360476,5.72272727 L178.360476,18.5509091 L174.029938,18.5509091 L174.029938,12.7745455 L161.330537,12.7745455 L161.330537,18.5518182 L157.000907,18.5518182 L157,5.72272727 Z" id="Fill-4"></path>
                        <path d="M148.158643,8.43636364 C148.921841,8.43545455 149.538934,7.81636364 149.540749,7.05181818 L149.540749,5.72272727 C149.538934,4.95818182 148.922749,4.34 148.158643,4.33909091 L138.32963,4.33818182 L138.32963,8.43636364 L148.158643,8.43636364 Z M153.871286,7.05363636 C153.870379,9.17818182 152.715145,11.0318182 150.999084,12.0181818 L153.903956,18.5518182 L149.172308,18.5518182 L146.60593,12.7736364 L138.32963,12.7736364 L138.32963,18.5518182 L134,18.5518182 L134,0 L148.159551,0 C151.31489,0 153.871286,2.56181818 153.871286,5.72181818 L153.871286,7.05363636 Z" id="Fill-6"></path>
                        <path d="M117.158643,8.43636364 C117.920934,8.43545455 118.538934,7.81636364 118.540749,7.05181818 L118.540749,5.72272727 C118.538934,4.95818182 117.921841,4.34 117.158643,4.33909091 L107.32963,4.33818182 L107.32963,8.43636364 L117.158643,8.43636364 Z M122.871286,7.05363636 C122.870379,9.17818182 121.715145,11.0318182 119.998176,12.0181818 L122.903048,18.5518182 L118.171401,18.5518182 L115.605022,12.7736364 L107.32963,12.7736364 L107.32963,18.5518182 L103,18.5518182 L103,0 L117.158643,0 C120.313982,0 122.870379,2.56181818 122.870379,5.72181818 L122.871286,7.05363636 Z" id="Fill-8"></path>
                        <path d="M95.0290308,5.72272727 C95.0281233,4.95818182 94.4101233,4.34 93.6469251,4.33909091 L83.7126432,4.33909091 C82.9494449,4.34 82.3314449,4.95818182 82.3305374,5.72272727 L82.3305374,8.43545455 L95.0290308,8.43545455 L95.0290308,5.72272727 Z M78,5.72272727 C78,2.56181818 80.5582115,0 83.7126432,0 L93.6487401,0 C96.8022643,0 99.3595683,2.56181818 99.3595683,5.72272727 L99.3595683,18.5509091 L95.0290308,18.5509091 L95.0290308,12.7745455 L82.3305374,12.7745455 L82.3305374,18.5518182 L78,18.5518182 L78,5.72272727 Z" id="Fill-10"></path>
                        <polygon id="Fill-12" points="76.7568899 0 76.7568899 4.33727273 69.5868194 4.33727273 69.5831894 18.5527273 65.170978 18.5527273 65.170978 4.33727273 58.001815 4.33727273 58 0"></polygon>
                        <path d="M40.32963,5.72272727 C40.3305374,6.48727273 40.9485374,7.10545455 41.7108282,7.10727273 L50.7022291,7.10727273 C53.8566608,7.10727273 56.4148722,9.67 56.4148722,12.8290909 C56.4148722,15.99 53.8566608,18.5509091 50.7022291,18.5518182 L36.6778943,18.5509091 L36.6778943,14.2136364 L50.7013216,14.2136364 C51.4645198,14.2127273 52.0816123,13.5936364 52.0834273,12.8290909 C52.0816123,12.0654545 51.4645198,11.4463636 50.7013216,11.4454545 L41.7117357,11.4454545 C38.557304,11.4454545 36,8.88363636 36,5.72272727 C36,2.56181818 38.557304,0.000909090909 41.7117357,0 L55.1634449,0 L55.1634449,4.33818182 L41.7108282,4.33909091 C40.9485374,4.34 40.3305374,4.95818182 40.32963,5.72272727" id="Fill-15"></path>
                        <polygon id="Fill-17" points="25 12.3390909 31.8842115 12.3390909 31.8842115 8 25 8"></polygon>
                        <path d="M5.71173568,18.5527273 C2.55639648,18.5518182 0,15.99 0,12.8290909 L0,5.72272727 C0,2.56181818 2.55639648,0 5.71173568,0 L21.1227137,0 L21.1227137,4.33818182 L5.71173568,4.33909091 C4.94853744,4.34 4.33144493,4.95818182 4.32962996,5.72272727 L4.33053744,12.8290909 C4.33144493,13.5945455 4.94853744,14.2127273 5.71173568,14.2136364 L15.819348,14.2136364 C16.5825463,14.2127273 17.1996388,13.5945455 17.2014537,12.8290909 L17.2014537,11.4454545 L10.6530132,11.4454545 L10.6530132,7.10727273 L21.5319912,7.10727273 L21.5319912,12.8290909 C21.5319912,15.99 18.9737797,18.5518182 15.8202555,18.5527273 L5.71173568,18.5527273 Z" id="Fill-19"></path>
                    </g>
                </g>
            </g>
        </g>
    </g>
</svg>