<?xml version="1.0" encoding="UTF-8"?>
<svg width="105px" height="23px" viewBox="0 0 105 23" version="1.1" xmlns="http://www.w3.org/2000/svg" xmlns:xlink="http://www.w3.org/1999/xlink">
    <!-- Generator: Sketch 42 (36781) - http://www.bohemiancoding.com/sketch -->
    <title>Group 12</title>
    <desc>Created with Sketch.</desc>
    <defs></defs>
    <g id="one-pager" stroke="none" stroke-width="1" fill="none" fill-rule="evenodd">
        <g id="Landing_page" transform="translate(-681.000000, -4293.000000)" fill="#6B6B6B">
            <g id="Happy_Customers" transform="translate(161.000000, 4141.000000)">
                <g id="Group-12" transform="translate(520.000000, 152.000000)">
                    <path d="M34.9315882,22.8670252 L35.3956471,22.8670252 L35.3956471,20.4096975 L34.8647143,20.4096975 L34.0948908,21.4661513 L33.3250672,20.4096975 L32.7908487,20.4096975 L32.7908487,22.8670252 L33.2547143,22.8670252 L33.2547143,21.0799832 L34.0386471,22.1509328 L34.1300672,22.1509328 L34.9315882,21.0834622 L34.9315882,22.8670252 L34.9315882,22.8670252 Z M7.52815126,12.2845126 L12.4362353,5.1579916 L12.4362353,16.1009664 L15.1245294,16.1009664 L15.1245294,0.655016807 L12.2576471,0.655016807 L7.59328571,7.85015126 L2.92080672,0.655016807 L0.0334369748,0.655016807 L0.0334369748,16.1009664 L2.72173109,16.1009664 L2.72173109,5.13595798 L7.52815126,12.2845126 L7.52815126,12.2845126 Z M101.437538,11.2236134 L93.1581176,0.547941176 L90.6866807,0.547941176 L90.6866807,16.037958 L93.3784538,16.037958 L93.3784538,5.20669748 L101.878403,16.037958 L104.129311,16.037958 L104.129311,0.547941176 L101.437538,0.547941176 L101.437538,11.2236134 L101.437538,11.2236134 Z M84.7012689,16.037958 L87.4257059,16.037958 L80.8227731,0.547941176 L78.3064958,0.547941176 L71.7033697,16.037958 L74.4075126,16.037958 L75.9268655,12.3479076 L83.2024034,12.3479076 L84.7012689,16.037958 L84.7012689,16.037958 Z M82.2122437,9.95706723 L76.9170252,9.95706723 L79.5645378,3.8035042 L82.2122437,9.95706723 L82.2122437,9.95706723 Z M68.398521,2.66394118 C66.8378067,1.16063025 64.7863613,0.326445378 62.6326723,0.330117647 C59.7690756,0.334756303 57.2524118,1.43257143 55.7398235,3.83094958 C54.0637227,6.48812605 53.9431176,10.3884622 55.6362269,13.0723109 C57.1405042,15.4567731 59.7992269,16.3854706 62.6326723,16.3841176 C64.2805546,16.3833445 65.829479,15.9956303 67.1418319,15.1154454 C67.7518151,14.7045378 68.313479,14.2138067 68.8198655,13.6357143 L68.8198655,7.20093277 L62.1670672,7.20093277 L62.1670672,9.775 L66.1365966,9.775 L66.1365966,12.4797227 C65.040521,13.3403866 63.9933445,13.7105126 62.6326723,13.7012353 C60.7518908,13.6882857 59.0324958,13.073084 58.0570252,11.4762269 C56.8014958,9.42091597 57.1155714,6.36868067 58.7112689,4.60521849 C60.7406807,2.36262185 64.4657143,2.52594118 66.5801681,4.49621008 L68.398521,2.66394118 L68.398521,2.66394118 Z M47.5038908,10.248916 C49.4795714,9.73363866 50.6539244,8.47636975 50.9751513,7.26162185 C51.4496471,5.46723529 51.0851261,3.47454622 49.7861092,2.11677311 C48.7700504,1.05471429 47.2922521,0.550453782 45.7375294,0.547941176 C44.5411429,0.558957983 43.3449496,0.558957983 42.1487563,0.555285714 C40.9523697,0.551613445 39.7561765,0.547941176 38.5597899,0.547941176 L38.5597899,16.037958 L41.4050252,16.037958 L41.4050252,10.7185798 L44.7075546,10.7185798 L48.4503697,16.037958 L51.6558739,16.037958 L47.5038908,10.248916 L47.5038908,10.248916 Z M45.7375294,3.26580672 C46.870521,3.27527731 47.8052101,3.77992437 48.1732101,4.8385042 C48.5845042,6.02252101 48.1878992,7.47480672 46.9049244,8.02410084 C46.5780924,8.16403361 46.1901849,8.234 45.7375294,8.23767227 L41.4050252,8.23767227 L41.4050252,3.26580672 L45.7375294,3.26580672 L45.7375294,3.26580672 Z M73.3709664,22.0506218 L73.652958,22.0506218 L73.7420588,20.3571261 L73.2816723,20.3571261 L73.3709664,22.0506218 L73.3709664,22.0506218 Z M73.2816723,22.8670252 L73.7422521,22.8670252 L73.7422521,22.4064454 L73.2816723,22.4064454 L73.2816723,22.8670252 Z M37.8187647,20.3571261 C37.6488739,20.3577059 37.4959916,20.3822521 37.3605042,20.4297983 C37.2252101,20.4777311 37.1069244,20.5432521 37.0056471,20.6271345 C36.9047563,20.7115966 36.8210672,20.8082353 36.7536134,20.9184034 C36.6867395,21.0277983 36.6364874,21.1456975 36.6030504,21.2709412 C36.5696134,21.3963782 36.5531849,21.5241345 36.5531849,21.6542101 C36.5531849,21.7842857 36.5696134,21.9114622 36.6018908,22.0343866 C36.6341681,22.158084 36.6838403,22.2734706 36.7495546,22.3801597 C36.8156555,22.4872353 36.898958,22.5815546 36.9996555,22.6625378 C37.1005462,22.7439076 37.2188319,22.8076891 37.3552857,22.8534958 C37.4913529,22.8991092 37.6459748,22.9226891 37.8187647,22.9232689 C37.9915546,22.9221092 38.1455966,22.8985294 38.2814706,22.8517563 C38.416958,22.8053697 38.5346639,22.7410084 38.6342017,22.6582857 C38.7345126,22.5763361 38.817042,22.481437 38.8827563,22.3735882 C38.9482773,22.2659328 38.9969832,22.1503529 39.0296471,22.0274286 C39.0625042,21.9043109 39.0795126,21.7788739 39.0806723,21.6507311 C39.0818319,21.5212353 39.0667563,21.3940588 39.0333193,21.2692017 C39.0004622,21.1445378 38.9505966,21.0268319 38.883916,20.9172437 C38.8164622,20.8076555 38.7321933,20.7110168 38.6307227,20.6271345 C38.5300252,20.5432521 38.4115462,20.4771513 38.2762521,20.4297983 C38.1403782,20.3822521 37.9880756,20.3577059 37.8187647,20.3571261 L37.8187647,20.3571261 Z M37.8187647,20.7788571 C37.9347311,20.779437 38.0373613,20.7964454 38.1256891,20.8304622 C38.2147899,20.8638992 38.2909412,20.9100924 38.3547227,20.9686555 C38.4186975,21.0272185 38.4701092,21.0940924 38.5106975,21.169084 C38.5505126,21.2440756 38.5796975,21.3237059 38.5984454,21.4070084 C38.6166134,21.4906975 38.6255042,21.5738067 38.6237647,21.6576891 C38.622605,21.7390588 38.6125546,21.820042 38.5932269,21.9002521 C38.5738992,21.9804622 38.5441345,22.0566134 38.5041261,22.1281261 C38.4648908,22.1996387 38.413479,22.2628403 38.3506639,22.3185042 C38.288042,22.3741681 38.2124706,22.4176555 38.1245294,22.4491597 C38.0365882,22.4808571 37.9347311,22.4972857 37.8187647,22.4978655 C37.7027983,22.4972857 37.6007479,22.481437 37.513,22.4497395 C37.4250588,22.4182353 37.3494874,22.3747479 37.2866723,22.3198571 C37.2240504,22.2645798 37.1724454,22.2013782 37.1320504,22.1304454 C37.0922353,22.0589328 37.0624706,21.9833613 37.0423697,21.9031513 C37.023042,21.823521 37.0120252,21.7427311 37.0102857,21.6611681 C37.0079664,21.577479 37.016084,21.4935966 37.0348319,21.4099076 C37.053,21.326605 37.0821849,21.2469748 37.1233529,21.1714034 C37.1637479,21.0958319 37.2165126,21.028958 37.2802941,20.9698151 C37.3448487,20.9112521 37.4215798,20.864479 37.5110672,20.8304622 C37.6001681,20.7970252 37.7027983,20.779437 37.8187647,20.7788571 L37.8187647,20.7788571 Z M42.4353866,22.8353277 L41.6901092,21.9951513 C41.8066555,21.970605 41.9046471,21.9331092 41.9848571,21.8815042 C42.0644874,21.830479 42.1284622,21.7695966 42.176395,21.6992437 C42.224521,21.6285042 42.2596975,21.5529328 42.2807647,21.4707899 C42.3024118,21.3888403 42.313042,21.3055378 42.3124622,21.2201092 C42.3124622,21.1122605 42.2937143,21.0096303 42.2554454,20.9124118 C42.2173697,20.8151933 42.1618992,20.728605 42.0867143,20.6522605 C42.0124958,20.5761092 41.919916,20.5163866 41.8097479,20.4719328 C41.6995798,20.4272857 41.5718235,20.404479 41.426479,20.4027395 C41.2314622,20.404479 41.0362521,20.404479 40.8412353,20.4038992 C40.6462185,20.4033193 40.4510084,20.4027395 40.2559916,20.4027395 L40.2559916,22.8670252 L40.7198571,22.8670252 L40.7198571,22.044437 L41.1663277,22.044437 L41.8835798,22.8670252 L42.4353866,22.8670252 L42.4353866,22.8353277 L42.4353866,22.8353277 Z M41.426479,20.8351008 C41.4991513,20.8356807 41.5623529,20.8468908 41.6156975,20.8691176 C41.6684622,20.8913445 41.7125294,20.9213025 41.7469328,20.9587983 C41.7815294,20.9962941 41.8066555,21.0384286 41.8236639,21.085395 C41.8400924,21.1321681 41.8484034,21.1808739 41.8484034,21.2305462 C41.8484034,21.2804118 41.8400924,21.3289244 41.8242437,21.3758908 C41.8078151,21.4226639 41.7821092,21.4649916 41.7480924,21.5024874 C41.7142689,21.5399832 41.6702017,21.5697479 41.6168571,21.5921681 C41.5635126,21.614395 41.5003109,21.6254118 41.426479,21.6259916 L40.7198571,21.6259916 L40.7198571,20.8351008 L41.426479,20.8351008 L41.426479,20.8351008 Z M45.572084,20.7121765 C45.4872353,20.6288739 45.3952353,20.5591008 45.2962773,20.503437 C45.1971261,20.4479664 45.0935294,20.4062185 44.9856807,20.3781933 C44.8778319,20.3499748 44.7690168,20.3360588 44.6582689,20.3360588 C44.4847059,20.3364454 44.3283445,20.360605 44.1895714,20.407958 C44.050605,20.4555042 43.9294202,20.5210252 43.8250504,20.6054874 C43.7214538,20.6897563 43.6346723,20.7883277 43.565479,20.9002353 C43.4957059,21.0121429 43.4442941,21.1333277 43.4096975,21.2639832 C43.3751008,21.3940588 43.3575126,21.5287731 43.3575126,21.6683193 C43.3575126,21.798395 43.3727815,21.9247983 43.4038992,22.0473361 C43.4354034,22.1696807 43.4835294,22.2833277 43.5490504,22.389437 C43.6147647,22.4949664 43.6984538,22.5881261 43.801084,22.6677563 C43.903521,22.7473866 44.0260588,22.8102017 44.1677311,22.8546555 C44.3101765,22.8996891 44.4736891,22.9226891 44.6582689,22.9232689 C44.8016807,22.9226891 44.932916,22.9051008 45.0506218,22.8699244 C45.168521,22.8347479 45.2763697,22.7843025 45.3730084,22.7187815 C45.4696471,22.6524874 45.5587479,22.573437 45.638958,22.4802773 L45.638958,21.4431513 L44.584437,21.4431513 L44.584437,21.8581176 L45.2135546,21.8581176 L45.2135546,22.293958 C45.1497731,22.3449832 45.086958,22.3847983 45.0266555,22.4134034 C44.9663529,22.4427815 44.9054706,22.4626891 44.8451681,22.474479 C44.7846723,22.4854958 44.7226303,22.4914874 44.6582689,22.4909076 C44.5363109,22.4901345 44.4284622,22.474479 44.3353025,22.4439412 C44.2421429,22.4134034 44.1619328,22.3712689 44.0958319,22.3179244 C44.0295378,22.264 43.9750336,22.201958 43.9328992,22.1323782 C43.8913445,22.062605 43.8602269,21.9881933 43.8403193,21.9089496 C43.8204118,21.8298992 43.8109412,21.7496891 43.8109412,21.6683193 C43.8109412,21.5411429 43.8308487,21.4222773 43.8691176,21.3132689 C43.9075798,21.2036807 43.9632437,21.1076218 44.0364958,21.0248992 C44.1103277,20.9423697 44.1988487,20.8780084 44.3032185,20.8316218 C44.4079748,20.7854286 44.5264538,20.7618487 44.6582689,20.7612689 C44.7301681,20.7612689 44.8041933,20.7707395 44.8789916,20.7900672 C44.9539832,20.8088151 45.0260756,20.8368403 45.0958487,20.8731765 C45.1656218,20.9095126 45.2282437,20.9545462 45.2839076,21.0073109 L45.572084,20.7121765 L45.572084,20.7121765 Z M48.8038739,22.8670252 L49.3100672,22.8670252 L48.2062605,20.4027395 L47.7000672,20.4027395 L46.5962605,22.8670252 L47.0989748,22.8670252 L47.3098403,22.4029664 L48.5964874,22.4029664 L48.8038739,22.8670252 L48.8038739,22.8670252 Z M48.4101681,21.970605 L47.4961597,21.970605 L47.9530672,20.9207227 L48.4101681,21.970605 L48.4101681,21.970605 Z M51.9687899,21.9307899 L50.7629328,20.4027395 L50.3868151,20.4027395 L50.3868151,22.8670252 L50.8508739,22.8670252 L50.8508739,21.2054202 L52.144479,22.8670252 L52.4326555,22.8670252 L52.4326555,20.4027395 L51.9687899,20.4027395 L51.9687899,21.9307899 L51.9687899,21.9307899 Z M56.3919412,20.4027395 L56.0743866,20.4027395 L55.742916,20.4027395 L55.4253613,20.4027395 L55.4253613,22.8670252 L55.742916,22.8670252 L56.0743866,22.8670252 L56.3919412,22.8670252 C56.5641513,22.8658655 56.7170336,22.8422857 56.8519412,22.7966723 C56.9860756,22.7502857 57.102042,22.6865042 57.2004202,22.6057143 C57.2982185,22.5241513 57.3786218,22.4304118 57.4418235,22.3244958 C57.5050252,22.2178067 57.5514118,22.1047395 57.5813697,21.9833613 C57.6105546,21.8627563 57.6246639,21.7390588 57.6223445,21.6138151 C57.620605,21.4906975 57.6035966,21.3712521 57.5713193,21.2533529 C57.539042,21.1362269 57.4916891,21.0268319 57.4277143,20.9242017 C57.3639328,20.8217647 57.2837227,20.7315042 57.1865042,20.6536134 C57.0896723,20.5755294 56.9748655,20.5140672 56.8430504,20.4701933 C56.7106555,20.4261261 56.5606723,20.4033193 56.3919412,20.4027395 L56.3919412,20.4027395 Z M55.8857479,20.8422521 L56.3919412,20.8422521 C56.4986303,20.8428319 56.5935294,20.8567479 56.6760588,20.8849664 C56.7585882,20.9129916 56.8308739,20.9522269 56.8904034,21.0020924 C56.9508992,21.0513782 57.0007647,21.1087815 57.04,21.1737227 C57.0798151,21.2388571 57.109,21.308437 57.1289076,21.383042 C57.1490084,21.4572605 57.1600252,21.5328319 57.1617647,21.6101429 C57.164084,21.6911261 57.1565462,21.7707563 57.1395378,21.8486471 C57.1225294,21.9265378 57.0945042,22.000563 57.0564286,22.0689832 C57.0183529,22.1375966 56.9684874,22.198479 56.907605,22.2512437 C56.8465294,22.3034286 56.7732773,22.3449832 56.6878487,22.3747479 C56.6022269,22.4047059 56.5038487,22.4199748 56.3919412,22.4205546 L55.8857479,22.4205546 L55.8857479,20.8422521 L55.8857479,20.8422521 Z M60.5937899,22.4099244 L59.2122437,22.4099244 L59.2122437,21.8546387 L60.5445042,21.8546387 L60.5445042,21.4222773 L59.2122437,21.4222773 L59.2122437,20.8526891 L60.5937899,20.8526891 L60.5937899,20.4027395 L58.7518571,20.4027395 L58.7518571,21.6354622 L58.7518571,22.8670252 L60.5937899,22.8670252 L60.5937899,22.4099244 L60.5937899,22.4099244 Z M64.1875882,22.8670252 L64.6514538,22.8670252 L64.6514538,20.8246639 L65.4319076,20.8246639 L65.4319076,20.4027395 L64.9145042,20.4027395 L64.4183613,20.4027395 L63.922605,20.4027395 L63.4071345,20.4027395 L63.4071345,20.8246639 L64.1875882,20.8246639 L64.1875882,22.8670252 L64.1875882,22.8670252 Z M67.7004034,20.3571261 C67.5305126,20.3577059 67.3776303,20.3822521 67.2421429,20.4297983 C67.1068487,20.4777311 66.988563,20.5432521 66.8872857,20.6271345 C66.786395,20.7115966 66.7027059,20.8082353 66.6352521,20.9184034 C66.5683782,21.0277983 66.5181261,21.1456975 66.4846891,21.2709412 C66.4512521,21.3963782 66.4348235,21.5241345 66.4348235,21.6542101 C66.4348235,21.7842857 66.4512521,21.9114622 66.4835294,22.0343866 C66.5158067,22.158084 66.565479,22.2734706 66.6311933,22.3801597 C66.6972941,22.4872353 66.7805966,22.5815546 66.8812941,22.6625378 C66.9821849,22.7439076 67.1004706,22.8076891 67.2369244,22.8534958 C67.3727983,22.8991092 67.5276134,22.9226891 67.7004034,22.9232689 C67.8731933,22.9221092 68.0272353,22.8985294 68.1633025,22.8517563 C68.2985966,22.8053697 68.4163025,22.7410084 68.5158403,22.6582857 C68.6161513,22.5763361 68.6986807,22.481437 68.764395,22.3735882 C68.829916,22.2659328 68.8786218,22.1503529 68.9112857,22.0274286 C68.9441429,21.9043109 68.9611513,21.7788739 68.9623109,21.6507311 C68.9634706,21.5212353 68.948395,21.3940588 68.914958,21.2692017 C68.8821008,21.1445378 68.8322353,21.0268319 68.7655546,20.9172437 C68.6981008,20.8076555 68.6138319,20.7110168 68.5123613,20.6271345 C68.4116639,20.5432521 68.2931849,20.4771513 68.1578908,20.4297983 C68.0220168,20.3822521 67.8697143,20.3577059 67.7004034,20.3571261 L67.7004034,20.3571261 Z M67.7004034,20.7788571 C67.8163697,20.779437 67.9188067,20.7964454 68.0073277,20.8304622 C68.0964286,20.8638992 68.1725798,20.9100924 68.2363613,20.9686555 C68.3003361,21.0272185 68.3519412,21.0940924 68.3923361,21.169084 C68.4321513,21.2440756 68.4613361,21.3237059 68.4802773,21.4070084 C68.4982521,21.4906975 68.5071429,21.5738067 68.5054034,21.6576891 C68.5042437,21.7390588 68.4941933,21.820042 68.4748655,21.9002521 C68.4555378,21.9804622 68.4257731,22.0566134 68.3857647,22.1281261 C68.3467227,22.1996387 68.2949244,22.2628403 68.2323025,22.3185042 C68.1696807,22.3741681 68.0941092,22.4176555 68.0061681,22.4491597 C67.9182269,22.4808571 67.8163697,22.4972857 67.7004034,22.4978655 C67.584437,22.4972857 67.4823866,22.481437 67.3946387,22.4497395 C67.3066975,22.4182353 67.2311261,22.3747479 67.1683109,22.3198571 C67.1056891,22.2645798 67.054084,22.2013782 67.0136891,22.1304454 C66.9738739,22.0589328 66.9441092,21.9833613 66.9242017,21.9031513 C66.9048739,21.823521 66.8936639,21.7427311 66.8919244,21.6611681 C66.8894118,21.577479 66.8977227,21.4935966 66.9164706,21.4099076 C66.9346387,21.326605 66.9640168,21.2469748 67.0049916,21.1714034 C67.0453866,21.0958319 67.0981513,21.028958 67.1619328,20.9698151 C67.2262941,20.9112521 67.3032185,20.864479 67.3927059,20.8304622 C67.4818067,20.7970252 67.584437,20.779437 67.7004034,20.7788571 L67.7004034,20.7788571 Z M70.1376303,22.8670252 L70.5982101,22.8670252 L70.5982101,20.4029328 L70.1376303,20.4029328 L70.1376303,22.8670252 Z" id="Fill-1"></path>
                    <path d="M26.719042,16.6734538 C31.312084,16.6734538 35.0355714,12.9501597 35.0355714,8.35711765 C35.0355714,3.76407563 31.312084,0.0405882353 26.719042,0.0405882353 C22.126,0.0405882353 18.4027059,3.76407563 18.4027059,8.35711765 C18.4027059,12.9501597 22.126,16.6734538 26.719042,16.6734538 L26.719042,16.6734538 Z M33.4083697,8.35711765 C29.0642689,4.0497395 26.1059664,2.32744538 24.4544118,2.32744538 C22.8028571,2.32744538 21.4640252,3.71923529 21.4640252,5.43592437 C21.4640252,6.59268908 22.316958,7.88320168 23.5011681,8.35711765 C22.316958,8.83084034 21.4640252,10.1213529 21.4640252,11.2781176 C21.4640252,12.995 22.8028571,14.3865966 24.4544118,14.3865966 C26.1059664,14.3865966 29.0642689,12.6643025 33.4083697,8.35711765 L33.4083697,8.35711765 Z" id="Fill-2"></path>
                </g>
            </g>
        </g>
    </g>
</svg>