<?xml version="1.0" encoding="UTF-8"?>
<svg width="154px" height="21px" viewBox="0 0 154 21" version="1.1" xmlns="http://www.w3.org/2000/svg" xmlns:xlink="http://www.w3.org/1999/xlink">
    <!-- Generator: Sketch 42 (36781) - http://www.bohemiancoding.com/sketch -->
    <title>hb_logo</title>
    <desc>Created with Sketch.</desc>
    <defs></defs>
    <g id="one-pager" stroke="none" stroke-width="1" fill="none" fill-rule="evenodd">
        <g id="Landing_page" transform="translate(-656.000000, -4498.000000)" fill="#6B6B6B">
            <g id="Happy_Customers" transform="translate(161.000000, 4141.000000)">
                <g id="hb_logo" transform="translate(495.000000, 357.000000)">
                    <path d="M111.38451,15.9109271 L114.525469,15.9109271 L114.525469,12.8822604 L111.38451,12.8822604 L111.38451,15.9109271 Z M119.430208,13.60975 C119.722969,13.8439583 120.14326,13.9690833 120.688677,13.9819167 C121.761865,14.0244271 122.4685,13.3611042 122.802167,11.9903437 L125.61026,11.9903437 C125.622292,12.6584792 125.378458,13.3675208 124.875552,14.1278958 C124.52825,14.6540625 124.170521,15.0663333 123.806375,15.3719271 C123.318708,15.7737708 122.79575,16.0480833 122.236698,16.2004792 C121.846885,16.2991354 121.258958,16.3592917 120.479333,16.3873646 C118.900833,16.4443125 117.651188,15.9325833 116.732,14.851375 C116.030979,14.0525 115.61149,13.1044375 115.471927,12.0128021 C115.402146,11.5026771 115.368458,10.9885417 115.368458,10.4784167 C115.368458,9.34507292 115.533688,8.40503125 115.870563,7.65748958 C116.470521,6.31560417 117.196406,5.42529167 118.049021,4.98173958 C118.549521,4.7210625 119.41176,4.552625 120.625313,4.48284375 C121.838063,4.41386458 122.83826,4.62240625 123.617885,5.1060625 C124.20501,5.467 124.694281,6.07417708 125.084896,6.93320833 C125.435406,7.67914583 125.61026,8.3208125 125.61026,8.86061458 L122.802167,8.86061458 C122.608865,8.07216667 122.306479,7.546 121.903031,7.28532292 C121.664813,7.13372917 121.245323,7.04229167 120.644563,7.016625 C119.641958,6.96047917 118.963396,7.51311458 118.61449,8.67372917 C118.44525,9.21353125 118.362635,9.85519792 118.362635,10.6019375 C118.362635,11.1000312 118.417979,11.5491979 118.528667,11.9510417 C118.739615,12.7523229 119.040396,13.3049583 119.430208,13.60975 L119.430208,13.60975 Z M133.551688,8.23819792 C133.078458,7.39440625 132.377438,6.97170833 131.45825,6.97170833 C130.535854,6.97170833 129.838042,7.39440625 129.363208,8.23819792 C128.999865,8.87344792 128.819396,9.60735417 128.819396,10.4367083 C128.819396,11.2660625 128.999865,11.9967604 129.363208,12.6352187 C129.838042,13.4766042 130.535854,13.8985 131.45825,13.8985 C132.377438,13.8985 133.078458,13.4766042 133.551688,12.6352187 C133.915833,11.9967604 134.094698,11.2660625 134.094698,10.4367083 C134.094698,9.60735417 133.915833,8.87344792 133.551688,8.23819792 L133.551688,8.23819792 Z M131.45825,16.3873646 C129.851677,16.3873646 128.545885,15.9301771 127.541677,15.0182083 C126.424375,14.0091875 125.864521,12.4820208 125.864521,10.4367083 C125.864521,8.39139583 126.424375,6.86182292 127.541677,5.85360417 C128.545885,4.94003125 129.851677,4.48284375 131.45825,4.48284375 C133.064021,4.48284375 134.368208,4.94003125 135.373219,5.85360417 C136.490521,6.86182292 137.048771,8.39139583 137.048771,10.4367083 C137.048771,12.4820208 136.490521,14.0091875 135.373219,15.0182083 C134.368208,15.9301771 133.064021,16.3873646 131.45825,16.3873646 L131.45825,16.3873646 Z M151.064375,15.9109271 L151.064375,8.1764375 C151.064375,7.45696875 150.576708,7.06154167 149.597365,6.99336458 C148.899552,6.95326042 148.349323,7.18185417 147.942667,7.67914583 C147.622635,8.07778125 147.463021,8.52935417 147.463021,9.02584375 L147.463021,15.9109271 L144.527396,15.9109271 L144.527396,8.1764375 C144.362969,7.40002083 143.823167,7.01020833 142.917615,6.99336458 C142.373802,6.98053125 141.911,7.14014583 141.535625,7.47140625 C141.128969,7.84517708 140.928448,8.36332292 140.928448,9.02584375 L140.928448,15.9109271 L137.997635,15.9109271 L137.997635,4.67053125 L140.928448,4.67053125 L140.928448,6.35009375 C141.403281,5.70120833 141.835604,5.23760417 142.226219,4.96088542 C142.701052,4.6151875 143.251281,4.44033333 143.881719,4.44033333 C144.06299,4.44033333 144.248271,4.45477083 144.447188,4.48284375 C145.103292,4.56786458 145.62625,4.74833333 146.01526,5.02505208 C146.252677,5.19028125 146.624042,5.55522917 147.12775,6.12390625 C147.517563,5.58169792 147.895344,5.19028125 148.257083,4.94003125 C148.788063,4.59433333 149.451385,4.4226875 150.247854,4.4226875 C150.513344,4.4226875 150.798083,4.44033333 151.106083,4.48284375 C153.031885,4.73309375 153.997594,5.94423958 153.997594,8.11467708 L153.997594,15.9109271 L151.064375,15.9109271 L151.064375,15.9109271 Z" id="Fill-1"></path>
                    <g id="Group-5">
                        <path d="M6.99577083,8.79725 C6.99577083,7.60695833 6.38779167,7.016625 5.17263542,7.016625 C4.59914583,7.016625 4.10345833,7.19548958 3.68717708,7.5508125 C3.18346875,7.98153125 2.9308125,8.58229167 2.9308125,9.35710417 L2.9308125,15.9109271 L0,15.9109271 L0,0.793260417 L2.72227083,0.793260417 L2.72227083,6.12390625 C3.46259375,5.02986458 4.62802083,4.48284375 6.22095833,4.48284375 C7.21153125,4.48284375 8.04248958,4.7210625 8.71142708,5.19028125 C9.52233333,5.77098958 9.92658333,6.60676042 9.92658333,7.69839583 L9.92658333,15.9109271 L6.99577083,15.9109271 L6.99577083,8.79725 L6.99577083,8.79725 Z M16.0889896,6.91075 C15.26525,6.87064583 14.63,7.1176875 14.1816354,7.65748958 C13.8070625,8.0994375 13.6249896,8.63041667 13.638625,9.25523958 L18.1407188,9.25523958 C18.1407188,7.75935417 17.4565417,6.98053125 16.0889896,6.91075 L16.0889896,6.91075 Z M13.638625,11.2043021 C13.5552083,11.9767083 13.6723125,12.5806771 13.9955521,13.0081875 C14.4968542,13.7003854 15.1585729,14.0444792 15.9855208,14.0444792 C16.4322813,14.0444792 16.8790417,13.927375 17.3241979,13.6915625 C17.7861979,13.4437188 18.0653229,13.1252917 18.1639792,12.7378854 L21.0538854,12.7378854 C20.8164688,13.7749792 20.1387083,14.6540625 19.0214063,15.3719271 C17.9875208,16.0480833 16.9424063,16.3873646 15.8780417,16.3873646 C14.7888125,16.3873646 13.8070625,16.1042292 12.926375,15.5379583 C11.8940938,14.8762396 11.2163333,13.9819167 10.8946979,12.8622083 C10.7976458,12.5301458 10.7278646,12.0745625 10.6861563,11.4938542 C10.6147708,10.6781354 10.6500625,9.87685417 10.789625,9.08920833 C11.3061667,6.01963542 13.0089896,4.48284375 15.9005,4.48284375 C17.8407396,4.48284375 19.2804792,5.22316667 20.2149063,6.70301042 C20.8710104,7.7385 21.1982604,8.96247917 21.1982604,10.37575 C21.1982604,10.5931146 21.1918438,10.8698333 21.1774063,11.2043021 L13.638625,11.2043021 L13.638625,11.2043021 Z M29.2255104,8.3208125 C28.7915833,7.47782292 28.1435,7.05432292 27.2756458,7.05432292 C26.3949583,7.05432292 25.7404583,7.47782292 25.3073333,8.3208125 C24.9728646,8.96969792 24.8052292,9.70119792 24.8052292,10.5193229 C24.8052292,11.3350417 24.9728646,12.0657396 25.3073333,12.714625 C25.7404583,13.5608229 26.3949583,13.9819167 27.2756458,13.9819167 C28.1435,13.9819167 28.7915833,13.5608229 29.2255104,12.714625 C29.5607813,12.0657396 29.7284167,11.3350417 29.7284167,10.5193229 C29.7284167,9.70119792 29.5607813,8.96969792 29.2255104,8.3208125 L29.2255104,8.3208125 Z M29.7284167,16.1154583 C29.2656146,16.2991354 28.6464063,16.3873646 27.8627708,16.3873646 C27.1657604,16.3873646 26.5714167,16.237375 26.0821458,15.9301771 C25.7749479,15.7376771 25.3498438,15.3430521 24.8052292,14.7495104 L24.8052292,20.4523229 L21.8728125,20.4523229 L21.8728125,4.67053125 L24.8052292,4.67053125 L24.8052292,6.37094792 C25.4340625,5.6258125 25.8102396,5.20391667 25.9345625,5.1060625 C26.4101979,4.73309375 27.0406354,4.52695833 27.8226667,4.48284375 C28.9945104,4.41386458 30.0540625,4.86463542 31.0037292,5.83194792 C32.1226354,6.98053125 32.6816875,8.58790625 32.6816875,10.6628958 C32.6816875,12.599125 32.1635417,14.0926042 31.1304583,15.1425313 C30.6700625,15.6141563 30.2008438,15.9365938 29.7284167,16.1154583 L29.7284167,16.1154583 Z M41.041,9.69077083 C41.59925,9.84076042 42.0813021,10.1535729 42.4879583,10.6219896 C42.9331146,11.1481563 43.1552917,11.7425 43.1552917,12.406625 C43.1552917,13.1116563 42.9884583,13.7677604 42.6547917,14.3765417 C42.2224687,15.1657917 41.5719792,15.7104063 40.704125,16.0135938 C39.895625,16.2919167 38.9475625,16.4130313 37.8575313,16.3873646 C36.7819375,16.3592917 35.9517813,16.2141146 35.3662604,15.9526354 C33.7460521,15.2476042 32.9175,14.1359167 32.8733854,12.6151667 L35.7624896,12.6151667 C35.9453646,13.2087083 36.2565729,13.6241875 36.7049375,13.8575938 C37.0113333,14.0091875 37.5511354,14.1278958 38.3179271,14.2097083 C38.9066562,14.2794896 39.3582292,14.1896563 39.6814688,13.9402083 C39.9581875,13.7180313 40.0993542,13.4348958 40.0993542,13.0891979 C40.0993542,12.551 39.8547187,12.2125208 39.3654479,12.0753646 L35.7223854,11.0366667 C34.13025,10.5818854 33.3193438,9.66911458 33.2920729,8.29915625 C33.264,7.05432292 33.7243958,6.07417708 34.6748646,5.35470833 C35.3863125,4.81651042 36.3849063,4.52695833 37.6690417,4.48284375 C39.0791042,4.44033333 40.2533542,4.7210625 41.1877813,5.31380208 C42.3042812,6.03327083 42.8625312,7.02865625 42.8625312,8.29915625 L40.0359896,8.29915625 C40.0231562,7.8973125 39.9581875,7.60695833 39.8458958,7.42729167 C39.7071354,7.19548958 39.4095625,7.007 38.9475625,6.87064583 C38.5553437,6.74391667 38.1936042,6.68215625 37.8575313,6.68215625 C37.4115729,6.68215625 36.9848646,6.79364583 36.5822188,7.016625 C36.2726146,7.17944792 36.1210208,7.44253125 36.1210208,7.80186458 C36.1210208,8.1764375 36.3504167,8.4266875 36.8116146,8.54780208 L41.041,9.69077083 L41.041,9.69077083 Z M44.1258125,3.38479167 L47.056625,3.38479167 L47.056625,0.793260417 L44.1258125,0.793260417 L44.1258125,3.38479167 Z M44.1258125,15.9109271 L47.056625,15.9109271 L47.056625,4.67053125 L44.1258125,4.67053125 L44.1258125,15.9109271 Z M55.9380938,8.2775 C55.5065729,7.43611458 54.8616979,7.016625 53.9946458,7.016625 C53.1131563,7.016625 52.4578542,7.43611458 52.0255313,8.2775 C51.6894583,8.92879167 51.5210208,9.66109375 51.5210208,10.4784167 C51.5210208,11.2941354 51.6894583,12.0272396 52.0255313,12.6753229 C52.4578542,13.5191146 53.1131563,13.9402083 53.9946458,13.9402083 C54.8616979,13.9402083 55.5065729,13.5191146 55.9380938,12.6753229 C56.2749688,12.0272396 56.4426042,11.2941354 56.4426042,10.4784167 C56.4426042,9.66109375 56.2749688,8.92879167 55.9380938,8.2775 L55.9380938,8.2775 Z M56.9054063,15.8259063 C56.2749688,16.2413854 55.4512292,16.4282708 54.4325833,16.3873646 C53.2182292,16.3328229 52.2469063,15.8010417 51.5210208,14.7928229 L51.5210208,15.9109271 L48.5910104,15.9109271 L48.5910104,0.793260417 L51.5210208,0.793260417 L51.5210208,6.20491667 C52.1081458,4.97532292 53.1909583,4.40103125 54.7694583,4.48284375 C56.6671875,4.57989583 57.9657604,5.43170833 58.6651771,7.035875 C59.1664792,8.16921875 59.4175313,9.25523958 59.4175313,10.2907292 C59.4175313,11.396 59.1247708,12.5646354 58.5384479,13.7942292 C58.0924896,14.7374792 57.5470729,15.4128333 56.9054063,15.8259063 L56.9054063,15.8259063 Z M67.3589583,14.5209167 C66.6884167,15.5997188 65.7539896,16.2221354 64.5532708,16.3873646 C63.3260833,16.3729271 62.3964688,16.1852396 61.7676354,15.8259063 C60.7056771,15.2195313 60.1755,14.1054375 60.1755,12.4908438 L60.1755,4.67053125 L63.1071146,4.67053125 L63.1071146,11.6374271 C63.1071146,12.3713333 63.1905313,12.8758438 63.361375,13.1525625 C63.6525313,13.6634896 64.2749479,13.8848646 65.2238125,13.8150833 C66.5504583,13.7180313 67.2635104,13.0891979 67.3589583,11.9285833 L67.3589583,4.67053125 L70.291375,4.67053125 L70.291375,15.9109271 L67.3589583,15.9109271 L67.3589583,14.5209167 L67.3589583,14.5209167 Z M74.8215417,9.58489583 L74.8215417,15.9109271 L71.8859167,15.9109271 L71.8859167,4.67053125 L74.8215417,4.67053125 L74.8215417,6.84898958 C75.0581563,6.17203125 75.5241667,5.58169792 76.2227813,5.08520833 C76.8227396,4.65609375 77.3906146,4.44033333 77.9215938,4.44033333 C78.0451146,4.44033333 78.1782604,4.45477083 78.3162188,4.48284375 L78.3162188,7.44975 C77.8991354,7.40723958 77.5646667,7.38798958 77.3112083,7.38798958 C75.8586354,7.38798958 75.0292813,8.11948958 74.8215417,9.58489583 L74.8215417,9.58489583 Z M85.06575,10.6219896 C84.7152396,10.8305313 84.2556458,10.9765104 83.6861667,11.0583229 C83.237,11.1128646 82.7894375,11.1698125 82.341875,11.2243542 C81.9520625,11.2941354 81.629625,11.4593646 81.3801771,11.7216458 C81.129125,11.9839271 81.0031979,12.2975417 81.0031979,12.6584792 C81.0031979,12.9720938 81.0938333,13.2568333 81.2751042,13.5054792 C81.5109167,13.8527813 81.9095521,14.0244271 82.4678021,14.0244271 C82.6354375,14.0244271 82.8191146,14.0091875 83.0132188,13.9819167 C84.3815729,13.7613438 85.06575,12.8541875 85.06575,11.2652604 L85.06575,10.6219896 L85.06575,10.6219896 Z M85.0874063,14.7928229 C83.9420313,15.8692188 82.7613646,16.4074167 81.5454063,16.4074167 C81.3625313,16.4074167 81.1900833,16.401 81.0240521,16.3873646 C78.9843542,16.1675938 78.0074167,15.0125938 78.0924375,12.9239688 C78.1774583,10.9187604 79.2715,9.73729167 81.3801771,9.37715625 C82.4541667,9.33785417 83.4383229,9.16380208 84.3326458,8.86061458 C84.8475833,8.68094792 85.0930208,8.25825 85.06575,7.59492708 C85.0529167,7.29013542 84.8965104,7.04951042 84.6061563,6.87064583 C84.2556458,6.6460625 83.766375,6.5498125 83.1391458,6.57948958 C81.9095521,6.63483333 81.2654792,7.24201042 81.2141458,8.40503125 L78.4485625,8.40503125 C78.4766354,5.79104167 80.0398958,4.48284375 83.1391458,4.48284375 C84.2412083,4.48284375 85.1355313,4.62240625 85.8197083,4.90072917 C87.173625,5.45176042 87.8505833,6.50329167 87.8505833,8.05211458 L87.8505833,14.1912604 C87.8505833,14.6885521 88.0679479,15.1280938 88.5002708,15.5179063 L88.5002708,15.9109271 L85.4010208,15.9109271 C85.1628021,15.6061354 85.0593333,15.2339688 85.0874063,14.7928229 L85.0874063,14.7928229 Z M95.9604479,8.25825 C95.528125,7.41445833 94.8776354,6.99336458 94.0137917,6.99336458 C93.1331042,6.99336458 92.4778021,7.41445833 92.0446771,8.25825 C91.7086042,8.90633333 91.5425729,9.64184375 91.5425729,10.4567604 C91.5425729,11.2748854 91.7086042,12.0055833 92.0446771,12.6584792 C92.4778021,13.5006667 93.1331042,13.9209583 94.0137917,13.9209583 C94.8776354,13.9209583 95.528125,13.5006667 95.9604479,12.6584792 C96.2957188,12.0055833 96.4649583,11.2748854 96.4649583,10.4567604 C96.4649583,9.64184375 96.2957188,8.90633333 95.9604479,8.25825 L95.9604479,8.25825 Z M96.4649583,14.7928229 C95.7374688,15.8010417 94.7669479,16.3312188 93.5509896,16.3873646 C92.5315417,16.4282708 91.7005833,16.2421875 91.0613229,15.8259063 C90.4308854,15.4128333 89.8950938,14.7342708 89.4475313,13.7942292 C88.9309896,12.6881563 88.6430417,11.64625 88.5885,10.6628958 C88.5195208,9.50308333 88.7633542,8.29354167 89.3224063,7.03667708 C90.0338542,5.43170833 91.3332292,4.57989583 93.2157188,4.48284375 C94.7942188,4.40103125 95.8778333,4.97532292 96.4649583,6.20491667 L96.4649583,0.793260417 L99.3957708,0.793260417 L99.3957708,15.9718854 L96.4649583,15.9718854 L96.4649583,14.7928229 L96.4649583,14.7928229 Z M107.127854,10.6219896 C106.778948,10.8305313 106.319354,10.9765104 105.747469,11.0583229 C105.299906,11.1128646 104.85074,11.1698125 104.403177,11.2243542 C104.013365,11.2941354 103.694135,11.4593646 103.440677,11.7216458 C103.189625,11.9839271 103.066104,12.2975417 103.066104,12.6584792 C103.066104,12.9720938 103.155938,13.2568333 103.338813,13.5054792 C103.576229,13.8527813 103.970052,14.0244271 104.53151,14.0244271 C104.698344,14.0244271 104.879615,14.0091875 105.076927,13.9819167 C106.443677,13.7613438 107.127854,12.8541875 107.127854,11.2652604 L107.127854,10.6219896 L107.127854,10.6219896 Z M107.463125,15.9109271 C107.225708,15.6061354 107.121437,15.2339688 107.147906,14.7928229 C106.002531,15.8692188 104.822667,16.4074167 103.609917,16.4074167 C103.428646,16.4074167 103.253792,16.401 103.086958,16.3873646 C101.046458,16.1675938 100.069521,15.0125938 100.156146,12.9239688 C100.236354,10.9187604 101.332802,9.73729167 103.440677,9.37715625 C104.516271,9.33785417 105.502031,9.16380208 106.395552,8.86061458 C106.911292,8.68094792 107.154323,8.25825 107.127854,7.59492708 C107.116625,7.29013542 106.960219,7.04951042 106.667458,6.87064583 C106.319354,6.6460625 105.829281,6.5498125 105.20125,6.57948958 C103.970052,6.63483333 103.329188,7.24201042 103.274646,8.40503125 L100.510667,8.40503125 C100.537938,5.79104167 102.102,4.48284375 105.20125,4.48284375 C106.304115,4.48284375 107.198438,4.62240625 107.883417,4.90072917 C109.234927,5.45176042 109.91349,6.50329167 109.91349,8.05211458 L109.91349,14.1912604 C109.91349,14.6885521 110.130052,15.1280938 110.562375,15.5179063 L110.562375,15.9109271 L107.463125,15.9109271 L107.463125,15.9109271 Z" id="Fill-2"></path>
                    </g>
                </g>
            </g>
        </g>
    </g>
</svg>