<?xml version="1.0" encoding="UTF-8"?>
<svg width="45px" height="45px" viewBox="0 0 45 45" version="1.1" xmlns="http://www.w3.org/2000/svg" xmlns:xlink="http://www.w3.org/1999/xlink">
    <!-- Generator: Sketch 42 (36781) - http://www.bohemiancoding.com/sketch -->
    <title>Hema</title>
    <desc>Created with Sketch.</desc>
    <defs>
        <polygon id="path-1" points="0 44.9881057 44.9546035 44.9881057 44.9546035 0.0453964758 0 0.0453964758"></polygon>
    </defs>
    <g id="one-pager" stroke="none" stroke-width="1" fill="none" fill-rule="evenodd">
        <g id="Landing_page" transform="translate(-1229.000000, -4280.000000)">
            <g id="Happy_Customers" transform="translate(161.000000, 4141.000000)">
                <g id="Hema" transform="translate(1068.000000, 139.000000)">
                    <g id="Group-3">
                        <mask id="mask-2" fill="white">
                            <use xlink:href="#path-1"></use>
                        </mask>
                        <g id="Clip-2"></g>
                        <path d="M44.0559912,0.0453964758 L0.899801762,0.0453964758 C0.402621145,0.0453964758 0,0.448215859 0,0.943810573 L0,44.1011894 C0,44.5967841 0.402422907,45 0.899008811,45 L44.0548018,45 C44.5519824,45 44.9546035,44.5967841 44.9546035,44.1011894 L44.9546035,0.943810573 C44.9546035,0.448215859 44.5519824,0.0453964758 44.0559912,0.0453964758" id="Fill-1" fill="#6B6B6B" mask="url(#mask-2)"></path>
                    </g>
                    <path d="M9.21568282,27.5261233 C9.21568282,27.6254405 9.2961674,27.7055286 9.39528634,27.7055286 L10.9238987,27.7055286 C11.0230176,27.7055286 11.1035022,27.6254405 11.1035022,27.5261233 L11.1035022,17.554163 C11.1035022,17.4550441 11.0230176,17.3745595 10.9238987,17.3745595 L9.39528634,17.3745595 C9.2961674,17.3745595 9.21568282,17.4550441 9.21568282,17.554163 L9.21568282,21.1926211 C9.21568282,21.2921366 9.135,21.3720264 9.03588106,21.3720264 L5.17004405,21.3720264 C5.07092511,21.3720264 4.99004405,21.2921366 4.99004405,21.1926211 L4.99004405,17.554163 C4.99004405,17.4550441 4.90975771,17.3745595 4.81004405,17.3745595 L3.28143172,17.3745595 C3.18231278,17.3745595 3.10182819,17.4550441 3.10182819,17.554163 L3.10182819,27.5261233 C3.10182819,27.6254405 3.18231278,27.7055286 3.28143172,27.7055286 L4.81004405,27.7055286 C4.90975771,27.7055286 4.99004405,27.6254405 4.99004405,27.5261233 L4.99004405,23.2590529 C4.99004405,23.1597357 5.07092511,23.0786564 5.17004405,23.0786564 L9.03588106,23.0786564 C9.135,23.0786564 9.21568282,23.1597357 9.21568282,23.2590529 L9.21568282,27.5261233" id="Fill-4" fill="#FFFFFF"></path>
                    <path d="M15.005815,19.2609912 C15.005815,19.1614758 15.0861013,19.080793 15.1854185,19.080793 L19.860859,19.080793 C19.959978,19.080793 20.0402643,19.0009031 20.0402643,18.9013877 L20.0402643,17.554163 C20.0402643,17.4550441 19.959978,17.3743612 19.860859,17.3743612 L13.2975991,17.3743612 C13.1984802,17.3743612 13.1177974,17.4550441 13.1177974,17.554163 L13.1177974,27.5261233 C13.1177974,27.6254405 13.1984802,27.7055286 13.2975991,27.7055286 L19.860859,27.7055286 C19.959978,27.7055286 20.0402643,27.6254405 20.0402643,27.5261233 L20.0402643,26.1781057 C20.0402643,26.0797797 19.959978,25.9987004 19.860859,25.9987004 L15.1854185,25.9987004 C15.0861013,25.9987004 15.005815,25.9186123 15.005815,25.8194934 L15.005815,23.2590529 C15.005815,23.1597357 15.0861013,23.0786564 15.1854185,23.0786564 L19.0514537,23.0786564 C19.1511674,23.0786564 19.231652,22.9985683 19.231652,22.8992511 L19.231652,21.55163 C19.231652,21.452511 19.1511674,21.3720264 19.0514537,21.3720264 L15.1854185,21.3720264 C15.0861013,21.3720264 15.005815,21.2917401 15.005815,21.1926211 L15.005815,19.2609912" id="Fill-5" fill="#FFFFFF"></path>
                    <path d="M39.1525771,24.0369383 C39.2518943,24.0369383 39.3048238,23.9562555 39.2703304,23.8571366 L37.9524449,19.9881278 C37.9361894,19.9413436 37.9185463,19.9181498 37.8947577,19.9181498 C37.8703744,19.9181498 37.8519383,19.9413436 37.8368722,19.9881278 L36.5187885,23.8571366 C36.4846916,23.9562555 36.5370264,24.0369383 36.6359471,24.0369383 L39.1525771,24.0369383 L39.1525771,24.0369383 Z M38.7802863,17.3747577 C38.879207,17.3747577 38.9872467,17.4550441 39.0223348,17.554163 L42.4714758,27.5261233 C42.504978,27.6254405 42.4522467,27.7055286 42.3527313,27.7055286 L40.7801101,27.7055286 C40.6801982,27.7055286 40.5725551,27.6254405 40.5380617,27.5261233 L39.9827974,25.87837 C39.9488987,25.7796476 39.8402643,25.6985683 39.7409471,25.6985683 L36.0475771,25.6985683 C35.9482599,25.6985683 35.8406167,25.7796476 35.8055286,25.87837 L35.2502643,27.5261233 C35.2161674,27.6254405 35.1077313,27.7055286 35.0090088,27.7055286 L33.4355947,27.7055286 C33.3360793,27.7055286 33.283348,27.6254405 33.3172467,27.5261233 L36.7667841,17.554163 C36.8012775,17.4550441 36.9093172,17.3747577 37.0090308,17.3747577 L38.7802863,17.3747577 L38.7802863,17.3747577 Z" id="Fill-6" fill="#FFFFFF"></path>
                    <path d="M26.5004405,27.5261233 C26.4009251,27.5261233 26.2903084,27.4462335 26.2538326,27.3461233 L23.7187665,20.4680617 C23.6852643,20.3750881 23.6640529,20.3802423 23.6640529,20.479163 L23.6640529,27.5261233 C23.6640529,27.6254405 23.5839648,27.7055286 23.4846476,27.7055286 L21.9564317,27.7055286 C21.8567181,27.7055286 21.7762335,27.6254405 21.7762335,27.5261233 L21.7762335,17.554163 C21.7762335,17.4550441 21.8567181,17.3745595 21.9564317,17.3745595 L24.2028634,17.3745595 C24.3021806,17.3745595 24.4125991,17.4550441 24.4492731,17.554163 L26.9262555,24.3455947 C26.9476652,24.4022907 26.9629295,24.418348 26.9873128,24.418348 C27.011696,24.418348 27.0263656,24.4022907 27.0471806,24.3455947 L29.524163,17.554163 C29.56163,17.4550441 29.6722467,17.3745595 29.7711674,17.3745595 L32.0179956,17.3745595 C32.1169163,17.3745595 32.1975991,17.4550441 32.1975991,17.554163 L32.1975991,27.5261233 C32.1975991,27.6254405 32.1169163,27.7055286 32.0179956,27.7055286 L30.489978,27.7055286 C30.3894714,27.7055286 30.3097797,27.6254405 30.3097797,27.5261233 L30.3097797,20.479163 C30.3097797,20.3802423 30.2889648,20.3750881 30.2544714,20.4680617 L27.7205947,27.3461233 C27.6831278,27.4462335 27.572511,27.5261233 27.4735903,27.5261233 L26.5004405,27.5261233" id="Fill-7" fill="#FFFFFF"></path>
                </g>
            </g>
        </g>
    </g>
</svg>