<?xml version="1.0" encoding="UTF-8"?>
<svg width="103px" height="30px" viewBox="0 0 103 30" version="1.1" xmlns="http://www.w3.org/2000/svg" xmlns:xlink="http://www.w3.org/1999/xlink">
    <!-- Generator: Sketch 42 (36781) - http://www.bohemiancoding.com/sketch -->
    <title>morhipo</title>
    <desc>Created with Sketch.</desc>
    <defs></defs>
    <g id="one-pager" stroke="none" stroke-width="1" fill="none" fill-rule="evenodd">
        <g id="Landing_page" transform="translate(-437.000000, -4493.000000)" fill="#6B6B6B">
            <g id="Happy_Customers" transform="translate(161.000000, 4141.000000)">
                <g id="morhipo" transform="translate(276.000000, 352.000000)">
                    <path d="M0.0419354839,9.36645161 L0.0419354839,10.1687097 L2.25741935,10.1687097 L2.25741935,21.2777419 L0.169677419,21.2777419 L0.169677419,22.0803226 L7.42677419,22.0803226 L7.42677419,21.2777419 L5.66064516,21.2777419 L5.66064516,15.1448387 C5.66064516,13.946129 5.99193548,12.8441935 6.65612903,11.8380645 C7.31935484,10.8319355 8.04645161,10.3283871 8.83870968,10.3283871 C9.67451613,10.3283871 10.1770968,10.6932258 10.3477419,11.4209677 C10.3693548,11.5490323 10.3809677,12.2774194 10.3809677,13.603871 L10.3809677,21.2777419 L8.71064516,21.2777419 L8.71064516,22.0803226 L15.5490323,22.0803226 L15.5490323,21.2777419 L13.7841935,21.2777419 L13.7841935,15.0812903 C13.7841935,13.9251613 14.0406452,12.8867742 14.5541935,11.9667742 C15.196129,10.8751613 16.0632258,10.3283871 17.1541935,10.3283871 C17.7970968,10.3283871 18.213871,10.6077419 18.4064516,11.163871 C18.4712903,11.3996774 18.5029032,11.9135484 18.5029032,12.7051613 L18.5029032,21.2777419 L16.8009677,21.2777419 L16.8009677,22.0803226 L23.9609677,22.0803226 L23.9609677,21.2777419 L21.906129,21.2777419 L21.906129,15.0812903 C21.906129,12.8545161 21.7887097,11.4525806 21.5535484,10.8751613 C21.0825806,9.74032258 19.9154839,9.17290323 18.0535484,9.17290323 C16.32,9.17290323 14.9283871,10.0619355 13.8803226,11.8380645 C13.2806452,10.0619355 12.0496774,9.17290323 10.1870968,9.17290323 C8.08935484,9.17290323 6.60193548,10.2229032 5.72516129,12.32 L5.66064516,12.32 L5.66064516,9.23709677 C2.38548387,9.34483871 0.512580645,9.38709677 0.0419354839,9.36645161 L0.0419354839,9.36645161 Z M25.84,20.6035484 C27.1764516,21.91 28.7558065,22.5619355 30.5751613,22.5619355 C32.3941935,22.5619355 33.9735484,21.91 35.3109677,20.6035484 C36.6483871,19.2983871 37.3180645,17.7451613 37.3180645,15.9474194 C37.3180645,14.1493548 36.6432258,12.5719355 35.2948387,11.2119355 C33.9464516,9.85290323 32.3732258,9.17290323 30.5751613,9.17290323 C28.7770968,9.17290323 27.2045161,9.85290323 25.856129,11.2119355 C24.5077419,12.5719355 23.8329032,14.1493548 23.8329032,15.9474194 C23.8329032,17.7451613 24.5022581,19.2983871 25.84,20.6035484 L25.84,20.6035484 Z M33.1122581,20.5077419 C32.7474194,21.4487097 31.9025806,21.9196774 30.5751613,21.9196774 C29.2480645,21.9196774 28.4025806,21.4487097 28.0387097,20.5077419 C27.7819355,19.8212903 27.653871,18.3035484 27.653871,15.9474194 C27.653871,13.5932258 27.7503226,12.1167742 27.9429032,11.5170968 C28.2848387,10.3822581 29.1629032,9.81580645 30.5751613,9.81580645 C31.9880645,9.81580645 32.8658065,10.3822581 33.2080645,11.5170968 C33.4006452,12.1167742 33.4967742,13.5932258 33.4967742,15.9474194 C33.4967742,18.3035484 33.3690323,19.8212903 33.1122581,20.5077419 L33.1122581,20.5077419 Z M37.6380645,9.36645161 L37.6380645,10.1687097 L39.7577419,10.1687097 L39.7577419,21.2777419 L37.8641935,21.2777419 L37.8641935,22.0803226 L46.1148387,22.0803226 L46.1148387,21.2777419 L43.2258065,21.2777419 L43.2258065,18.2919355 C43.2258065,14.8451613 43.8890323,12.4593548 45.2158065,11.1312903 C45.7077419,10.6393548 46.1570968,10.3929032 46.5641935,10.3929032 C46.7996774,10.3929032 46.8745161,10.6283871 46.7893548,11.0996774 C46.7464516,11.3141935 46.7251613,11.4751613 46.7251613,11.5806452 C46.7251613,11.9667742 46.8858065,12.3093548 47.206129,12.6083871 C47.5277419,12.9087097 47.8812903,13.0580645 48.266129,13.0580645 C49.6141935,13.0580645 50.2887097,12.4593548 50.2887097,11.26 C50.2887097,10.5758065 50.0322581,10.056129 49.5177419,9.70290323 C49.0041935,9.35 48.4048387,9.17290323 47.7206452,9.17290323 C46.6712903,9.17290323 45.7616129,9.55903226 44.9916129,10.3283871 C44.4977419,10.8 43.91,11.6248387 43.2258065,12.8009677 L43.2258065,9.23709677 C40.0148387,9.34483871 38.1525806,9.38709677 37.6380645,9.36645161 L37.6380645,9.36645161 Z M57.3848387,21.2777419 L55.4574194,21.2777419 L55.4574194,17.0390323 C55.4574194,15.0277419 55.5954839,13.6796774 55.8751613,12.9935484 C56.1529032,12.3093548 56.56,11.6990323 57.0941935,11.163871 C57.7148387,10.5429032 58.3467742,10.2325806 58.99,10.2325806 C59.9306452,10.2325806 60.5077419,10.7354839 60.7225806,11.7412903 C60.7880645,12.106129 60.8183871,13.3583871 60.8183871,15.4980645 L60.8183871,21.2777419 L58.796129,21.2777419 L58.796129,22.0803226 L66.2448387,22.0803226 L66.2448387,21.2777419 L64.2219355,21.2777419 L64.2219355,16.3006452 C64.2219355,13.776129 64.1254839,12.0522581 63.9332258,11.1312903 C63.7845161,10.4470968 63.2596774,9.93290323 62.36,9.59064516 C61.6751613,9.31258065 60.926129,9.17290323 60.1122581,9.17290323 C57.8874194,9.17290323 56.3458065,10.2006452 55.4890323,12.2558065 L55.4245161,12.2558065 L55.4245161,0.151612903 C53.3909677,0.536451613 51.4648387,0.697096774 49.6464516,0.632903226 L49.6464516,1.43580645 L51.9580645,1.43580645 L51.9580645,21.2777419 L49.8387097,21.2777419 L49.8387097,22.0803226 L57.3848387,22.0803226 L57.3848387,21.2777419 L57.3848387,21.2777419 Z M73.5022581,21.2777419 L71.1245161,21.2777419 L71.1245161,9.23709677 C67.8716129,9.34483871 65.9341935,9.38709677 65.313871,9.36645161 L65.313871,10.1687097 L67.6580645,10.1687097 L67.6580645,21.2777419 L65.313871,21.2777419 L65.313871,22.0803226 L73.5022581,22.0803226 L73.5022581,21.2777419 L73.5022581,21.2777419 Z M72.4412903,9.36645161 L72.4412903,10.1687097 L74.7858065,10.1687097 L74.7858065,28.7903226 L72.4741935,28.7903226 L72.4741935,29.5935484 L80.5016129,29.5935484 L80.5016129,28.7903226 L78.2529032,28.7903226 L78.2529032,20.2822581 L78.3183871,20.2822581 C79.0251613,21.8029032 80.3396774,22.5619355 82.266129,22.5619355 C83.9370968,22.5619355 85.3693548,21.8441935 86.5680645,20.4112903 C87.7029032,19.0406452 88.27,17.5106452 88.27,15.8193548 C88.27,14.0645161 87.6929032,12.5180645 86.5380645,11.1796774 C85.3806452,9.84225806 83.956129,9.17290323 82.266129,9.17290323 C81.4522581,9.17290323 80.6774194,9.42967742 79.9383871,9.94354839 C79.2003226,10.4577419 78.6593548,11.0887097 78.3183871,11.8380645 L78.2529032,11.8380645 L78.2529032,9.23709677 C75,9.34483871 73.0625806,9.38709677 72.4412903,9.36645161 L72.4412903,9.36645161 Z M81.9448387,21.9196774 C80.8970968,21.9196774 80.0080645,21.4703226 79.2809677,20.5716129 C78.5954839,19.7354839 78.2529032,18.7735484 78.2529032,17.6816129 L78.2529032,13.5074194 C78.2529032,12.8229032 78.6377419,12.0522581 79.4096774,11.1958065 C80.2645161,10.2754839 81.1322581,9.81580645 82.0103226,9.81580645 C82.9303226,9.81580645 83.5822581,10.0619355 83.9674194,10.5535484 C84.2893548,10.9816129 84.4493548,11.6674194 84.4493548,12.6083871 L84.4493548,19.4796774 C84.4493548,21.1070968 83.6158065,21.9196774 81.9448387,21.9196774 L81.9448387,21.9196774 Z M91.1454839,20.6035484 C92.4809677,21.91 94.06,22.5619355 95.8790323,22.5619355 C97.6983871,22.5619355 99.2767742,21.91 100.615484,20.6035484 C101.953871,19.2983871 102.622258,17.7451613 102.622258,15.9474194 C102.622258,14.1493548 101.948065,12.5719355 100.599032,11.2119355 C99.2522581,9.85290323 97.6770968,9.17290323 95.8790323,9.17290323 C94.0812903,9.17290323 92.5087097,9.85290323 91.1593548,11.2119355 C89.8116129,12.5719355 89.1380645,14.1493548 89.1380645,15.9474194 C89.1380645,17.7451613 89.8064516,19.2983871 91.1454839,20.6035484 L91.1454839,20.6035484 Z M98.416129,20.5077419 C98.0532258,21.4487097 97.2064516,21.9196774 95.8790323,21.9196774 C94.5532258,21.9196774 93.7070968,21.4487097 93.3441935,20.5077419 C93.0858065,19.8212903 92.9567742,18.3035484 92.9567742,15.9474194 C92.9567742,13.5932258 93.0551613,12.1167742 93.2477419,11.5170968 C93.5893548,10.3822581 94.4664516,9.81580645 95.8790323,9.81580645 C97.2919355,9.81580645 98.1683871,10.3822581 98.5125806,11.5170968 C98.7051613,12.1167742 98.8009677,13.5932258 98.8009677,15.9474194 C98.8009677,18.3035484 98.6725806,19.8212903 98.416129,20.5077419 L98.416129,20.5077419 Z" id="Fill-6"></path>
                    <path d="M82.3167742,28.5390323 C82.1654839,28.6819355 82.0903226,28.8503226 82.0903226,29.0445161 C82.0903226,29.2393548 82.1654839,29.4096774 82.3167742,29.5506452 C82.4648387,29.6935484 82.6348387,29.7645161 82.8219355,29.7645161 C83.0016129,29.7645161 83.1635484,29.6935484 83.3103226,29.5506452 C83.4551613,29.4096774 83.53,29.2393548 83.53,29.0445161 C83.53,28.8503226 83.4551613,28.6819355 83.3103226,28.5390323 C83.1635484,28.3980645 83.0016129,28.3277419 82.8219355,28.3277419 C82.6348387,28.3277419 82.4648387,28.3980645 82.3167742,28.5390323 M86.1032258,25.9541935 C86.2387097,25.5216129 86.5416129,25.303871 87.0135484,25.303871 C87.1774194,25.303871 87.336129,25.3283871 87.4848387,25.3819355 C87.6951613,25.4564516 87.8,25.5616129 87.8,25.6967742 C87.8,25.7483871 87.7425806,25.8306452 87.626129,25.9429032 C87.51,26.0558065 87.4503226,26.176129 87.4503226,26.303871 C87.4503226,26.6858065 87.6832258,26.8764516 88.1470968,26.8764516 C88.3058065,26.8764516 88.4393548,26.8080645 88.5464516,26.6683871 C88.6541935,26.5293548 88.7103226,26.3819355 88.7103226,26.2258065 C88.7103226,25.8419355 88.5154839,25.546129 88.1267742,25.3358065 C87.8112903,25.1645161 87.4470968,25.0783871 87.0364516,25.0783871 C86.413871,25.0783871 85.8858065,25.2690323 85.45,25.6512903 C85.2419355,25.8306452 85.066129,26.0848387 84.9293548,26.4106452 C84.7903226,26.7351613 84.7132258,27.0403226 84.6980645,27.3267742 C84.6674194,28.0083871 84.863871,28.5848387 85.2880645,29.0564516 C85.7119355,29.5296774 86.2593548,29.7645161 86.9354839,29.7645161 C87.4225806,29.7645161 87.8383871,29.6232258 88.1816129,29.3370968 C88.5274194,29.0525806 88.7374194,28.6706452 88.8109677,28.1916129 L88.5516129,28.1916129 C88.4480645,28.603871 88.2635484,28.9267742 88.0022581,29.1574194 C87.7248387,29.4135484 87.3916129,29.5393548 87.0022581,29.5393548 C86.6348387,29.5393548 86.3777419,29.4341935 86.2329032,29.226129 C86.0854839,29.016129 86.0132258,28.643871 86.0132258,28.1135484 L86.0132258,27.2148387 C86.0132258,26.5767742 86.0432258,26.1564516 86.1032258,25.9541935 M89.9509677,29.0793548 C90.4209677,29.5354839 90.9722581,29.7645161 91.6096774,29.7645161 C92.2474194,29.7645161 92.7987097,29.5354839 93.2667742,29.0793548 C93.736129,28.6232258 93.9687097,28.0790323 93.9687097,27.4490323 C93.9687097,26.8212903 93.7341935,26.2677419 93.2603226,25.7922581 C92.7887097,25.3174194 92.2396774,25.0783871 91.6096774,25.0783871 C90.9796774,25.0783871 90.4303226,25.3174194 89.9564516,25.7922581 C89.4845161,26.2677419 89.2496774,26.8212903 89.2496774,27.4490323 C89.2496774,28.0790323 89.4825806,28.6232258 89.9509677,29.0793548 M92.4974194,29.0445161 C92.3690323,29.3754839 92.0735484,29.5393548 91.6096774,29.5393548 C91.146129,29.5393548 90.8493548,29.3754839 90.7225806,29.0445161 C90.6319355,28.8064516 90.5864516,28.273871 90.5864516,27.4490323 C90.5864516,26.6264516 90.6206452,26.1096774 90.6880645,25.8993548 C90.8077419,25.5022581 91.1151613,25.303871 91.6096774,25.303871 C92.1041935,25.303871 92.4112903,25.5022581 92.5322581,25.8993548 C92.5983871,26.1096774 92.6329032,26.6264516 92.6329032,27.4490323 C92.6329032,28.273871 92.5870968,28.8064516 92.4974194,29.0445161 M94.1590323,25.1451613 L94.1590323,25.4267742 L94.9364516,25.4267742 L94.9364516,29.3158065 L94.2054839,29.3158065 L94.2054839,29.5964516 L96.7458065,29.5964516 L96.7458065,29.3158065 L96.1277419,29.3158065 L96.1277419,27.1687097 C96.1277419,26.7487097 96.2441935,26.3629032 96.4748387,26.0119355 C96.7080645,25.6590323 96.9619355,25.4829032 97.2403226,25.4829032 C97.5329032,25.4829032 97.7080645,25.6112903 97.7670968,25.8648387 C97.7748387,25.9106452 97.7783871,26.1645161 97.7783871,26.6287097 L97.7783871,29.3158065 L97.1951613,29.3158065 L97.1951613,29.5964516 L99.5880645,29.5964516 L99.5880645,29.3158065 L98.9693548,29.3158065 L98.9693548,27.1454839 C98.9693548,26.7409677 99.0612903,26.3783871 99.2406452,26.0558065 C99.4658065,25.6741935 99.7674194,25.4829032 100.15129,25.4829032 C100.374194,25.4829032 100.522258,25.5806452 100.588387,25.7751613 C100.61129,25.8574194 100.623226,26.0367742 100.623226,26.3154839 L100.623226,29.3158065 L100.027097,29.3158065 L100.027097,29.5964516 L102.533226,29.5964516 L102.533226,29.3158065 L101.813871,29.3158065 L101.813871,27.1454839 C101.813871,26.3670968 101.771613,25.8764516 101.689677,25.6741935 C101.525161,25.2767742 101.117097,25.0783871 100.466129,25.0783871 C99.8590323,25.0783871 99.3706452,25.3896774 99.003871,26.0119355 C98.7941935,25.3896774 98.363871,25.0783871 97.7116129,25.0783871 C96.9770968,25.0783871 96.4580645,25.4451613 96.1503226,26.18 L96.1277419,26.18 L96.1277419,25.1012903 C94.9803226,25.1377419 94.3258065,25.1529032 94.1590323,25.1451613" id="Fill-7"></path>
                    <path d="M71.0529032,3.4116129 C71.0529032,4.41225806 70.2419355,5.22290323 69.2406452,5.22290323 C68.2403226,5.22290323 67.4280645,4.41225806 67.4280645,3.4116129 C67.4280645,2.41032258 68.2403226,1.59967742 69.2406452,1.59967742 C70.2419355,1.59967742 71.0529032,2.41032258 71.0529032,3.4116129" id="Fill-8"></path>
                </g>
            </g>
        </g>
    </g>
</svg>