<?xml version="1.0" encoding="UTF-8"?>
<svg width="114px" height="20px" viewBox="0 0 114 20" version="1.1" xmlns="http://www.w3.org/2000/svg" xmlns:xlink="http://www.w3.org/1999/xlink">
    <!-- Generator: Sketch 42 (36781) - http://www.bohemiancoding.com/sketch -->
    <title>path2859</title>
    <desc>Created with Sketch.</desc>
    <defs></defs>
    <g id="one-pager" stroke="none" stroke-width="1" fill="none" fill-rule="evenodd">
        <g id="Landing_page" transform="translate(-979.000000, -4387.000000)" fill="#6B6B6B">
            <g id="Happy_Customers" transform="translate(161.000000, 4141.000000)">
                <path d="M856.481844,265.598963 L850.387396,265.598963 L850.387396,257.968354 L844.043268,257.968354 L844.043268,265.598963 L837.94882,265.598963 L837.94882,246.401037 L844.043268,246.401037 L844.043268,253.95253 L850.387396,253.95253 L850.387396,246.401037 L856.481844,246.401037 L856.481844,265.598963 L856.481844,265.598963 Z M877.681899,250.258628 L877.681899,265.598963 L871.587451,265.598963 L871.587451,246.401037 L882.607393,246.401037 L883.52383,250.258628 L877.681899,250.258628 L877.681899,250.258628 Z M867.081872,265.598963 L860.987423,265.598963 L860.987423,246.401037 L867.081872,246.401037 L867.081872,265.598963 L867.081872,265.598963 Z M891.788787,265.598963 L885.697176,265.598963 L885.697176,246.401037 L891.788787,246.401037 L891.788787,265.598963 L891.788787,265.598963 Z M921.835439,260.699222 C921.835439,261.7441 922.922112,262.226981 924.672705,262.226981 C926.593534,262.226981 928.681762,261.823216 930.100396,261.258491 L929.601037,265.438003 C928.012168,265.759924 926.593534,266 924.008785,266 C919.08329,266 915.743828,264.131224 915.743828,260.216342 C915.743828,253.469649 925.262856,254.83372 925.262856,251.701814 C925.262856,250.498704 924.340745,249.857591 922.087955,249.857591 C920.087682,249.857591 916.995062,250.498704 915.159351,251.382622 L915.828946,246.963034 C917.664657,246.319192 920.167126,246 922.173073,246 C927.263129,246 931.436748,247.606875 931.436748,252.4275 C931.436748,258.849543 921.835439,257.646433 921.835439,260.699222 L921.835439,260.699222 Z M904.644441,250.978857 C910.316137,250.978857 913.908116,253.79157 913.908116,258.691311 C913.908116,264.071204 910.069295,266 903.807448,266 C901.38726,266 898.464875,265.83904 896.379484,265.598963 L896.379484,246.401037 L902.473933,246.401037 L902.473933,250.978857 L904.644441,250.978857 L904.644441,250.978857 Z M907.898786,258.609467 C907.898786,256.121402 906.647551,254.432683 903.47265,254.432683 L902.473933,254.432683 L902.473933,262.366116 C902.828591,262.385213 903.160551,262.385213 903.47265,262.385213 C906.477316,262.385213 907.898786,261.021143 907.898786,258.609467 L907.898786,258.609467 Z M826.264957,250.978857 C831.93949,250.978857 835.528632,253.79157 835.528632,258.691311 C835.528632,264.071204 831.68981,266 825.430801,266 C823.007775,266 820.088228,265.83904 818,265.598963 L818,246.401037 L824.094448,246.401037 L824.094448,250.978857 L826.264957,250.978857 L826.264957,250.978857 Z M829.522139,258.609467 C829.522139,256.121402 828.268067,254.432683 825.096003,254.432683 L824.094448,254.432683 L824.094448,262.366116 C824.449107,262.385213 824.783904,262.385213 825.096003,262.385213 C828.100668,262.385213 829.522139,261.021143 829.522139,258.609467 L829.522139,258.609467 Z" id="path2859" transform="translate(874.718374, 256.000000) scale(1, -1) translate(-874.718374, -256.000000) "></path>
            </g>
        </g>
    </g>
</svg>