<?xml version="1.0" encoding="UTF-8"?>
<svg width="95px" height="47px" viewBox="0 0 95 47" version="1.1" xmlns="http://www.w3.org/2000/svg" xmlns:xlink="http://www.w3.org/1999/xlink">
    <!-- Generator: Sketch 42 (36781) - http://www.bohemiancoding.com/sketch -->
    <title>Staples</title>
    <desc>Created with Sketch.</desc>
    <defs></defs>
    <g id="one-pager" stroke="none" stroke-width="1" fill="none" fill-rule="evenodd">
        <g id="Landing_page" transform="translate(-1165.000000, -793.000000)">
            <g id="Header_clients" transform="translate(-11.000000, 743.000000)">
                <g id="header_clients" transform="translate(173.000000, 50.000000)">
                    <g id="Staples" transform="translate(1003.000000, 0.000000)">
                        <g id="Group-10">
                            <polyline id="Fill-2" fill="#6B6B6B" points="0.269181818 7.16910227 68.0298295 0.0897272727 70.9427614 27.6210455 3.18211364 34.7004205 0.269181818 7.16910227"></polyline>
                            <path d="M6.69643182,21.9789091 C6.84063636,23.3504545 7.73363636,25.609125 11.4995114,25.2138977 C12.4053295,25.1193636 15.5372386,24.4950114 15.1858068,21.1670909 C14.9764432,19.1797386 13.6177159,18.6990568 12.1692614,18.4774091 L9.58426136,18.0779091 C9.14096591,18.0154205 8.46106818,17.9000568 8.37027273,17.0375 C8.26398864,16.0355455 9.20719318,15.6093409 10.0270227,15.5233523 C11.9102273,15.3262727 12.2061136,16.4788409 12.3161364,16.9659318 L14.3857386,16.7490909 C14.2287159,15.3951705 13.1466477,13.2652159 9.98376136,13.5968864 C6.63394318,13.9477841 6.245125,16.1850909 6.37490909,17.4172386 C6.63180682,19.851625 8.28428409,20.0839545 9.99551136,20.3248295 L11.1315227,20.4855909 C12.2536477,20.6490227 13.0537159,20.7985682 13.1450455,21.661125 C13.2684205,22.8323864 12.1601818,23.2131932 11.1400682,23.3200114 C9.25686364,23.5181591 8.84561364,22.3768068 8.76603409,21.7620682 L6.69643182,21.9789091 L6.69643182,21.9789091 Z" id="Fill-3" fill="#F9F9F9"></path>
                            <path d="M6.69643182,21.9789091 C6.84063636,23.3504545 7.73363636,25.609125 11.4995114,25.2138977 C12.4053295,25.1193636 15.5372386,24.4950114 15.1858068,21.1670909 C14.9764432,19.1797386 13.6177159,18.6990568 12.1692614,18.4774091 L9.58426136,18.0779091 C9.14096591,18.0154205 8.46106818,17.9000568 8.37027273,17.0375 C8.26398864,16.0355455 9.20719318,15.6093409 10.0270227,15.5233523 C11.9102273,15.3262727 12.2061136,16.4788409 12.3161364,16.9659318 L14.3857386,16.7490909 C14.2287159,15.3951705 13.1466477,13.2652159 9.98376136,13.5968864 C6.63394318,13.9477841 6.245125,16.1850909 6.37490909,17.4172386 C6.63180682,19.851625 8.28428409,20.0839545 9.99551136,20.3248295 L11.1315227,20.4855909 C12.2536477,20.6490227 13.0537159,20.7985682 13.1450455,21.661125 C13.2684205,22.8323864 12.1601818,23.2131932 11.1400682,23.3200114 C9.25686364,23.5181591 8.84561364,22.3768068 8.76603409,21.7620682 L6.69643182,21.9789091 L6.69643182,21.9789091 Z" id="Stroke-4" stroke="#FFFFFF" stroke-width="0.134"></path>
                            <polygon id="Fill-5" fill="#F9F9F9" points="19.7538864 14.8471932 22.8735114 14.5197955 22.6673523 12.5634205 14.2714432 13.4436023 14.4786705 15.3999773 17.5977614 15.0731136 18.5580568 24.1782955 20.7141818 23.9518409"></polygon>
                            <polygon id="Stroke-6" stroke="#FFFFFF" stroke-width="0.134" points="19.7538864 14.8471932 22.8735114 14.5197955 22.6673523 12.5634205 14.2714432 13.4436023 14.4786705 15.3999773 17.5977614 15.0731136 18.5580568 24.1782955 20.7141818 23.9518409"></polygon>
                            <polygon id="Fill-7" fill="#F9F9F9" points="54.6497841 9.21146591 47.0598182 10.0072614 48.2252045 21.0682841 56.0608523 20.2473864 55.8541591 18.2910114 50.1329773 18.8907955 49.8306818 16.0253977 54.8623523 15.4977159 54.6556591 13.5413409 49.6239886 14.0684886 49.379375 11.7419886 54.8559432 11.168375"></polygon>
                            <polygon id="Stroke-8" stroke="#FFFFFF" stroke-width="0.134" points="54.6497841 9.21146591 47.0598182 10.0072614 48.2252045 21.0682841 56.0608523 20.2473864 55.8541591 18.2910114 50.1329773 18.8907955 49.8306818 16.0253977 54.8623523 15.4977159 54.6556591 13.5413409 49.6239886 14.0684886 49.379375 11.7419886 54.8559432 11.168375"></polygon>
                            <path d="M56.3845114,16.7715227 C56.5281818,18.1425341 57.4206477,20.4012045 61.188125,20.0059773 C62.092875,19.9114432 65.2247841,19.287625 64.8744205,15.9591705 C64.6645227,13.9723523 63.3057955,13.4916705 61.857875,13.2689545 L59.2723409,12.8705227 C58.8290455,12.8075 58.1486136,12.6926705 58.0572841,11.8295795 C57.9526023,10.827625 58.8958068,10.4024886 59.7145682,10.3165 C61.5988409,10.1188864 61.8947273,11.2714545 62.0042159,11.7585455 L64.0738182,11.5411705 C63.9167955,10.18725 62.8341932,8.05782955 59.6713068,8.3895 C56.3220227,8.74039773 55.9332045,10.9777045 56.0624545,12.2098523 C56.3193523,14.6437045 57.9718295,14.8760341 59.6830568,15.1169091 L60.8201364,15.2782045 C61.9411932,15.4411023 62.7423295,15.5911818 62.833125,16.4537386 C62.9565,17.6244659 61.8482614,18.0058068 60.8281477,18.112625 C58.9444091,18.3097045 58.5336932,17.1694205 58.4541136,16.5546818 L56.3845114,16.7715227 L56.3845114,16.7715227 Z" id="Fill-9" fill="#F9F9F9"></path>
                            <path d="M56.3845114,16.7715227 C56.5281818,18.1425341 57.4206477,20.4012045 61.188125,20.0059773 C62.092875,19.9114432 65.2247841,19.287625 64.8744205,15.9591705 C64.6645227,13.9723523 63.3057955,13.4916705 61.857875,13.2689545 L59.2723409,12.8705227 C58.8290455,12.8075 58.1486136,12.6926705 58.0572841,11.8295795 C57.9526023,10.827625 58.8958068,10.4024886 59.7145682,10.3165 C61.5988409,10.1188864 61.8947273,11.2714545 62.0042159,11.7585455 L64.0738182,11.5411705 C63.9167955,10.18725 62.8341932,8.05782955 59.6713068,8.3895 C56.3220227,8.74039773 55.9332045,10.9777045 56.0624545,12.2098523 C56.3193523,14.6437045 57.9718295,14.8760341 59.6830568,15.1169091 L60.8201364,15.2782045 C61.9411932,15.4411023 62.7423295,15.5911818 62.833125,16.4537386 C62.9565,17.6244659 61.8482614,18.0058068 60.8281477,18.112625 C58.9444091,18.3097045 58.5336932,17.1694205 58.4541136,16.5546818 L56.3845114,16.7715227 L56.3845114,16.7715227 Z" id="Stroke-10" stroke="#FFFFFF" stroke-width="0.134"></path>
                            <path d="M40.4135909,20.6864091 L39.5542386,12.5308409 C39.4351364,11.4012386 40.2886136,10.3853977 41.459875,10.2625568 C42.6316705,10.14025 43.6202727,10.8943864 43.8275,12.0490909 L44.7728409,15.4256136 L42.9158068,16.0825455 L41.7546932,12.2878295 L41.6692386,12.3043864 L42.446875,19.6534773 L47.5196705,19.1209886 L47.7349091,21.1681591 L41.8716591,21.7828977 C41.8663182,21.7839659 41.7589659,21.7951818 41.6553523,21.8053295 C41.0304659,21.8710227 40.4771477,21.2893977 40.4135909,20.6864091" id="Fill-11" fill="#F9F9F9"></path>
                            <path d="M64.1309659,8.489375 C63.9974432,8.65494318 63.9418977,8.84454545 63.9643295,9.05711364 C63.9867614,9.27128409 64.0802273,9.44539773 64.2441932,9.58105682 C64.4097614,9.71618182 64.5988295,9.77279545 64.8119318,9.75089773 C65.0255682,9.72846591 65.1986136,9.63339773 65.3321364,9.46676136 C65.4656591,9.300125 65.5212045,9.10998864 65.4987727,8.89581818 C65.4758068,8.68325 65.3818068,8.51020455 65.2178409,8.37507955 C65.0512045,8.23995455 64.8621364,8.18440909 64.6495682,8.20630682 C64.4380682,8.22820455 64.2655568,8.32273864 64.1309659,8.489375 L64.1309659,8.489375 Z M65.4304091,9.54367045 C65.2739205,9.73754545 65.0725682,9.84756818 64.82475,9.87320455 C64.578,9.899375 64.3579545,9.83421591 64.16675,9.67719318 C63.9750114,9.52017045 63.8660568,9.31828409 63.8404205,9.06993182 C63.8147841,8.82425 63.8794091,8.60527273 64.0353636,8.41193182 C64.1907841,8.22019318 64.3910682,8.11177273 64.6372841,8.08613636 C64.8845682,8.05996591 65.1051477,8.12459091 65.2974205,8.28001136 C65.4902273,8.43489773 65.5991818,8.63625 65.6248182,8.883 C65.6504545,9.12975 65.5863636,9.35032955 65.4304091,9.54367045 L65.4304091,9.54367045 Z M64.8626705,8.62022727 C64.8178068,8.601 64.7467727,8.59565909 64.6511705,8.60580682 L64.5037614,8.62129545 L64.5411477,8.97646591 L64.6971023,8.96044318 C64.7702727,8.95243182 64.8242159,8.93961364 64.86,8.92092045 C64.9235568,8.88727273 64.9513295,8.83279545 64.9438523,8.75748864 C64.9369091,8.68592045 64.9091364,8.64052273 64.8626705,8.62022727 L64.8626705,8.62022727 Z M64.6623864,8.48563636 C64.7841591,8.47281818 64.8744205,8.47495455 64.9331705,8.49257955 C65.0389205,8.524625 65.0982045,8.60153409 65.1110227,8.724375 C65.1201023,8.8125 65.0955341,8.88032955 65.0357159,8.92839773 C65.0042045,8.9535 64.9577386,8.97432955 64.8984545,8.99088636 C64.9758977,8.99515909 65.03625,9.02132955 65.077375,9.06939773 C65.1185,9.11746591 65.142,9.16660227 65.1468068,9.21573864 L65.1553523,9.28784091 C65.1574886,9.31027273 65.1606932,9.33430682 65.1644318,9.36047727 C65.1687045,9.38557955 65.1729773,9.40267045 65.1788523,9.41068182 L65.1863295,9.42243182 L65.0239659,9.43898864 C65.0228977,9.43578409 65.0212955,9.43257955 65.0207614,9.429375 C65.0196932,9.42563636 65.018625,9.42296591 65.0175568,9.41869318 L65.0100795,9.38718182 L65.0020682,9.30973864 C64.9903182,9.19597727 64.9513295,9.12440909 64.8851023,9.09396591 C64.8471818,9.07740909 64.7820227,9.07313636 64.6906932,9.08275 L64.5534318,9.09717045 L64.5945568,9.48385227 L64.4215114,9.50254545 L64.3184318,8.52195455 L64.6623864,8.48563636 L64.6623864,8.48563636 Z" id="Fill-12" fill="#FFFFFF"></path>
                            <path d="M24.5270568,21.2472045 L24.0485114,23.6025455 L21.7770227,23.84075 L24.2909886,12.3930455 L26.77825,12.1324091 L31.5823977,22.8131591 L29.2377386,23.059375 L28.3367273,20.8482386 L24.5270568,21.2472045 L24.5270568,21.2472045 Z M25.7613409,14.7628068 L24.9003864,19.2764091 L27.5307841,19.0008182 L25.7901818,14.7596023 L25.7613409,14.7628068 L25.7613409,14.7628068 Z" id="Fill-13" fill="#FFFFFF"></path>
                            <path d="M24.5270568,21.2472045 L24.0485114,23.6025455 L21.7770227,23.84075 L24.2909886,12.3930455 L26.77825,12.1324091 L31.5823977,22.8131591 L29.2377386,23.059375 L28.3367273,20.8482386 L24.5270568,21.2472045 L24.5270568,21.2472045 Z M25.7613409,14.7628068 L24.9003864,19.2764091 L27.5307841,19.0008182 L25.7901818,14.7596023 L25.7613409,14.7628068 L25.7613409,14.7628068 Z" id="Stroke-14" stroke="#FFFFFF" stroke-width="0.134"></path>
                            <path d="M33.8506818,18.5409659 L34.2715455,22.5311591 L32.1148864,22.7576136 L30.9484318,11.6960568 L35.6633864,11.2009545 C37.6614205,10.992125 39.0137386,12.2360227 39.2433977,14.4092386 C39.3486136,15.410125 39.0975909,17.9913864 36.3229886,18.2824659 L33.8506818,18.5409659 L33.8506818,18.5409659 Z M33.6487955,16.6310568 L35.6468295,16.4211591 C37.2571136,16.2523864 37.1273295,15.0197045 37.0755227,14.5267386 C36.9612273,13.4484091 36.3534318,13.0606591 35.0171364,13.201125 L33.3064432,13.3795114 L33.6487955,16.6310568 L33.6487955,16.6310568 Z" id="Fill-15" fill="#FFFFFF"></path>
                            <path d="M33.8506818,18.5409659 L34.2715455,22.5311591 L32.1148864,22.7576136 L30.9484318,11.6960568 L35.6633864,11.2009545 C37.6614205,10.992125 39.0137386,12.2360227 39.2433977,14.4092386 C39.3486136,15.410125 39.0975909,17.9913864 36.3229886,18.2824659 L33.8506818,18.5409659 L33.8506818,18.5409659 Z M33.6487955,16.6310568 L35.6468295,16.4211591 C37.2571136,16.2523864 37.1273295,15.0197045 37.0755227,14.5267386 C36.9612273,13.4484091 36.3534318,13.0606591 35.0171364,13.201125 L33.3064432,13.3795114 L33.6487955,16.6310568 L33.6487955,16.6310568 Z" id="Stroke-16" stroke="#FFFFFF" stroke-width="0.134"></path>
                            <path d="M44.1693182,44.2718636 C44.0251136,44.368 43.8424545,44.4214091 43.5818182,44.4214091 C43.1588182,44.4214091 42.8896364,44.1645114 42.8896364,43.5663295 C42.4372614,44.1538295 41.8310682,44.4214091 41.1383523,44.4214091 C40.2336023,44.4214091 39.4922841,43.9722386 39.4922841,42.8709432 C39.4922841,41.6201023 40.3297386,41.3530568 41.1762727,41.1709318 C42.0810227,40.9786591 42.8506477,41.04275 42.8506477,40.3580455 C42.8506477,39.5670568 42.2636818,39.438875 41.7445455,39.438875 C41.0512955,39.438875 40.5417727,39.673875 40.5027841,40.4867614 L39.6850909,40.4867614 C39.7331591,39.1178864 40.6859773,38.6372045 41.7920795,38.6372045 C42.68775,38.6372045 43.6592614,38.8615227 43.6592614,40.1550909 L43.6592614,42.999125 C43.6592614,43.4269318 43.6592614,43.6197386 43.9188295,43.6197386 C43.9866591,43.6197386 44.0630341,43.6090568 44.1693182,43.5663295 L44.1693182,44.2718636 L44.1693182,44.2718636 Z M80.1579659,44.2718636 C80.0137614,44.368 79.8305682,44.4214091 79.571,44.4214091 C79.1474659,44.4214091 78.8782841,44.1645114 78.8782841,43.5663295 C78.4259091,44.1538295 77.8197159,44.4214091 77.127,44.4214091 C76.22225,44.4214091 75.4814659,43.9722386 75.4814659,42.8709432 C75.4814659,41.6201023 76.3183864,41.3530568 77.1654545,41.1709318 C78.0702045,40.9786591 78.8398295,41.04275 78.8398295,40.3580455 C78.8398295,39.5670568 78.2528636,39.438875 77.7331932,39.438875 C77.0399432,39.438875 76.5304205,39.673875 76.4919659,40.4867614 L75.6737386,40.4867614 C75.7218068,39.1178864 76.674625,38.6372045 77.7812614,38.6372045 C78.6758636,38.6372045 79.6484432,38.8615227 79.6484432,40.1550909 L79.6484432,42.999125 C79.6484432,43.4269318 79.6484432,43.6197386 79.9080114,43.6197386 C79.9747727,43.6197386 80.0522159,43.6090568 80.1579659,43.5663295 L80.1579659,44.2718636 L80.1579659,44.2718636 Z M74.8272045,42.5392727 C74.6060909,43.7586023 73.8167045,44.4214091 72.7004545,44.4214091 C71.1126023,44.4214091 70.3622045,43.2026136 70.3141364,41.5132841 C70.3141364,39.856 71.2957955,38.6372045 72.6523864,38.6372045 C74.4132841,38.6372045 74.9521818,40.4653977 74.9041136,41.8016932 L71.1804318,41.8016932 C71.1510568,42.764125 71.6418864,43.6197386 72.7292955,43.6197386 C73.4027841,43.6197386 73.8743864,43.2560227 74.019125,42.5392727 L74.8272045,42.5392727 L74.8272045,42.5392727 Z M62.3369545,44.2718636 C62.1922159,44.368 62.0095568,44.4214091 61.7499886,44.4214091 C61.3264545,44.4214091 61.0567386,44.1645114 61.0567386,43.5663295 C60.6048977,44.1538295 59.9981705,44.4214091 59.3054545,44.4214091 C58.4012386,44.4214091 57.6604545,43.9722386 57.6604545,42.8709432 C57.6604545,41.6201023 58.497375,41.3530568 59.3444432,41.1709318 C60.2486591,40.9786591 61.0182841,41.04275 61.0182841,40.3580455 C61.0182841,39.5670568 60.4313182,39.438875 59.9121818,39.438875 C59.2189318,39.438875 58.708875,39.673875 58.6709545,40.4867614 L57.8527273,40.4867614 C57.9007955,39.1178864 58.8536136,38.6372045 59.96025,38.6372045 C60.8548523,38.6372045 61.8268977,38.8615227 61.8268977,40.1550909 L61.8268977,42.999125 C61.8268977,43.4269318 61.8268977,43.6197386 62.0864659,43.6197386 C62.1537614,43.6197386 62.2306705,43.6090568 62.3369545,43.5663295 L62.3369545,44.2718636 L62.3369545,44.2718636 Z M32.5159886,38.7653864 L33.5072614,38.7653864 L33.5072614,39.5670568 L32.5159886,39.5670568 L32.5159886,42.999125 C32.5159886,43.4167841 32.6222727,43.4915568 33.1317955,43.4915568 L33.5072614,43.4915568 L33.5072614,44.2932273 L32.8818409,44.2932273 C32.0347727,44.2932273 31.6982955,44.1009545 31.6982955,43.0851136 L31.6982955,39.5670568 L30.8517614,39.5670568 L30.8517614,38.7653864 L31.6982955,38.7653864 L31.6982955,37.1081023 L32.5159886,37.1081023 L32.5159886,38.7653864 L32.5159886,38.7653864 Z M92.1055795,38.8700682 L92.3293636,38.8700682 L92.3293636,39.1066705 L92.3347045,39.1066705 C92.4415227,38.9261477 92.6038864,38.8326818 92.8025682,38.8326818 C92.9788182,38.8326818 93.1411818,38.9106591 93.1999318,39.1066705 C93.2976705,38.9357614 93.4685795,38.8326818 93.6528409,38.8326818 C93.9417841,38.8326818 94.1345909,38.9667386 94.1345909,39.2994773 L94.1345909,40.4776818 L93.8963864,40.4776818 L93.8963864,39.4233864 C93.8963864,39.2247045 93.8493864,39.0660795 93.6170568,39.0660795 C93.3868636,39.0660795 93.2389205,39.2279091 93.2389205,39.4767955 L93.2389205,40.4776818 L93.00125,40.4776818 L93.00125,39.4233864 C93.00125,39.2150909 92.9425,39.0660795 92.7299318,39.0660795 C92.4468636,39.0660795 92.3437841,39.3555568 92.3437841,39.4767955 L92.3437841,40.4776818 L92.1055795,40.4776818 L92.1055795,38.8700682 L92.1055795,38.8700682 Z M90.8515341,39.9708295 C90.8600795,40.2074318 91.044875,40.2822045 91.2408864,40.2822045 C91.3888295,40.2822045 91.5907159,40.2448182 91.5907159,40.0423977 C91.5907159,39.8373068 91.3557159,39.803125 91.1175114,39.7438409 C90.8825114,39.6850909 90.6448409,39.5980341 90.6448409,39.2898636 C90.6448409,38.9667386 90.9327159,38.8326818 91.1848068,38.8326818 C91.5036591,38.8326818 91.7584205,38.9448409 91.7781818,39.3363295 L91.5399773,39.3363295 C91.5234205,39.1312386 91.3610568,39.0660795 91.2045682,39.0660795 C91.0614318,39.0660795 90.8963977,39.109875 90.8963977,39.2711705 C90.8963977,39.4607727 91.1479545,39.4922841 91.3690682,39.5510341 C91.6072727,39.6103182 91.8428068,39.697375 91.8428068,40.0082159 C91.8428068,40.390625 91.52075,40.5150682 91.2264659,40.5150682 C90.9022727,40.5150682 90.62775,40.3692614 90.6138636,39.9708295 L90.8515341,39.9708295 L90.8515341,39.9708295 Z M90.0119432,44.2932273 L91.080125,44.2932273 L91.080125,43.1064773 L90.0119432,43.1064773 L90.0119432,44.2932273 Z M87.6833068,45.0308068 C87.3078409,46.1107386 86.9708295,46.5059659 86.2396591,46.5059659 C86.0473864,46.5059659 85.8545795,46.4846023 85.6719205,46.4098295 L85.6719205,45.5761136 C85.8257386,45.6295227 85.9891705,45.7042955 86.1531364,45.7042955 C86.4896136,45.7042955 86.6728068,45.5227045 86.826625,45.2017159 L87.1636364,44.2611818 L85.1907045,38.7653864 L86.1141477,38.7653864 L87.5674091,43.2880682 L87.5866364,43.2880682 L88.9822159,38.7653864 L89.8485114,38.7653864 L87.6833068,45.0308068 L87.6833068,45.0308068 Z M81.4184205,42.5504886 C81.4472614,43.3628409 82.0822955,43.6197386 82.7563182,43.6197386 C83.266375,43.6197386 83.9585568,43.4915568 83.9585568,42.7961705 C83.9585568,42.0901023 83.1504773,41.9731364 82.33225,41.7696477 C81.5241705,41.5666932 80.7064773,41.2670682 80.7064773,40.2085 C80.7064773,39.0965227 81.69775,38.6372045 82.5635114,38.6372045 C83.6605341,38.6372045 84.5364432,39.02175 84.6032045,40.3692614 L83.7855114,40.3692614 C83.7278295,39.6637273 83.1697045,39.438875 82.6308068,39.438875 C82.1399773,39.438875 81.5722386,39.5884205 81.5722386,40.1449432 C81.5722386,40.7970682 82.4385341,40.9038864 83.1985455,41.1068409 C84.0167727,41.3097955 84.8248523,41.6094205 84.8248523,42.6786705 C84.8248523,43.9936023 83.7182159,44.4214091 82.7077159,44.4214091 C81.592,44.4214091 80.6487955,43.9188295 80.6007273,42.5504886 L81.4184205,42.5504886 L81.4184205,42.5504886 Z M78.8302159,41.4379773 C78.5124318,41.694875 77.896625,41.7055568 77.3481136,41.8129091 C76.8092159,41.9191932 76.3472273,42.1333636 76.3472273,42.8068523 C76.3472273,43.4055682 76.8092159,43.6197386 77.3096591,43.6197386 C78.3874545,43.6197386 78.8302159,42.8709432 78.8302159,42.3683636 L78.8302159,41.4379773 L78.8302159,41.4379773 Z M74.0378182,41.0000227 C73.9993636,40.1337273 73.4123977,39.438875 72.6043182,39.438875 C71.7481705,39.438875 71.2375795,40.1550909 71.1804318,41.0000227 L74.0378182,41.0000227 L74.0378182,41.0000227 Z M63.5974091,42.5504886 C63.62625,43.3628409 64.2612841,43.6197386 64.9347727,43.6197386 C65.4448295,43.6197386 66.1375455,43.4915568 66.1375455,42.7961705 C66.1375455,42.0901023 65.3294659,41.9731364 64.5112386,41.7696477 C63.7031591,41.5666932 62.8854659,41.2670682 62.8854659,40.2085 C62.8854659,39.0965227 63.8762045,38.6372045 64.7425,38.6372045 C65.8395227,38.6372045 66.7148977,39.02175 66.7827273,40.3692614 L65.9645,40.3692614 C65.9068182,39.6637273 65.3486932,39.438875 64.8097955,39.438875 C64.3189659,39.438875 63.7512273,39.5884205 63.7512273,40.1449432 C63.7512273,40.7970682 64.6169886,40.9038864 65.3775341,41.1068409 C66.1957614,41.3097955 67.0038409,41.6094205 67.0038409,42.6786705 C67.0038409,43.9936023 65.8972045,44.4214091 64.8867045,44.4214091 C63.7704545,44.4214091 62.82725,43.9188295 62.7791818,42.5504886 L63.5974091,42.5504886 L63.5974091,42.5504886 Z M61.0086705,41.4379773 C60.6914205,41.694875 60.0756136,41.7055568 59.5271023,41.8129091 C58.9882045,41.9191932 58.5262159,42.1333636 58.5262159,42.8068523 C58.5262159,43.4055682 58.9882045,43.6197386 59.4886477,43.6197386 C60.5659091,43.6197386 61.0086705,42.8709432 61.0086705,42.3683636 L61.0086705,41.4379773 L61.0086705,41.4379773 Z M55.5625455,44.2932273 L54.69625,44.2932273 L53.68575,39.8987273 L53.6670568,39.8987273 L52.6656364,44.2932273 L51.7806477,44.2932273 L50.1831818,38.7653864 L51.0879318,38.7653864 L52.2132614,43.2880682 L52.2330227,43.2880682 L53.2339091,38.7653864 L54.1285114,38.7653864 L55.1678523,43.2880682 L55.1870795,43.2880682 L56.3033295,38.7653864 L57.1498636,38.7653864 L55.5625455,44.2932273 L55.5625455,44.2932273 Z M46.0648068,38.7653864 L47.0560795,38.7653864 L47.0560795,39.5670568 L46.0648068,39.5670568 L46.0648068,42.999125 C46.0648068,43.4167841 46.1705568,43.4915568 46.6811477,43.4915568 L47.0560795,43.4915568 L47.0560795,44.2932273 L46.430125,44.2932273 C45.5835909,44.2932273 45.2471136,44.1009545 45.2471136,43.0851136 L45.2471136,39.5670568 L44.4000455,39.5670568 L44.4000455,38.7653864 L45.2471136,38.7653864 L45.2471136,37.1081023 L46.0648068,37.1081023 L46.0648068,38.7653864 L46.0648068,38.7653864 Z M42.8415682,41.4379773 C42.5237841,41.694875 41.9079773,41.7055568 41.3594659,41.8129091 C40.8205682,41.9191932 40.3585795,42.1333636 40.3585795,42.8068523 C40.3585795,43.4055682 40.8205682,43.6197386 41.3204773,43.6197386 C42.3988068,43.6197386 42.8415682,42.8709432 42.8415682,42.3683636 L42.8415682,41.4379773 L42.8415682,41.4379773 Z M34.4120114,36.6589318 L35.2297045,36.6589318 L35.2297045,39.5777386 L35.2489318,39.5777386 C35.5186477,38.9149318 36.2204432,38.6372045 36.8175568,38.6372045 C38.1260795,38.6372045 38.5303864,39.4709205 38.5303864,40.6576705 L38.5303864,44.2932273 L37.7121591,44.2932273 L37.7121591,40.5508523 C37.7121591,39.8768295 37.3270795,39.438875 36.7021932,39.438875 C35.7109205,39.438875 35.2297045,40.1764545 35.2297045,41.1709318 L35.2297045,44.2932273 L34.4120114,44.2932273 L34.4120114,36.6589318 L34.4120114,36.6589318 Z" id="Fill-17" fill="#6B6B6B"></path>
                        </g>
                    </g>
                </g>
            </g>
        </g>
    </g>
</svg>