<?xml version="1.0" encoding="UTF-8"?>
<svg width="69px" height="47px" viewBox="0 0 69 47" version="1.1" xmlns="http://www.w3.org/2000/svg" xmlns:xlink="http://www.w3.org/1999/xlink">
    <!-- Generator: Sketch 42 (36781) - http://www.bohemiancoding.com/sketch -->
    <title>tommy_hilfiger</title>
    <desc>Created with Sketch.</desc>
    <defs></defs>
    <g id="one-pager" stroke="none" stroke-width="1" fill="none" fill-rule="evenodd">
        <g id="Landing_page" transform="translate(-924.000000, -793.000000)">
            <g id="Header_clients" transform="translate(-11.000000, 743.000000)">
                <g id="header_clients" transform="translate(173.000000, 50.000000)">
                    <g id="tommy_hilfiger" transform="translate(762.000000, 0.000000)">
                        <g id="Group-6">
                            <polygon id="Fill-1" fill="#DCDCDC" points="0.0233057851 41.7084215 68.6576777 41.7084215 68.6576777 5.25001653 0.0233057851 5.25001653"></polygon>
                            <polygon id="Fill-3" fill="#A3A3A3" points="34.3286446 41.7084215 68.6576777 41.7084215 68.6576777 5.25001653 34.3286446 5.25001653"></polygon>
                            <polygon id="Fill-4" fill="#6B6B6B" points="0.0233057851 8.26267769 68.6576777 8.26267769 68.6576777 0.0602066116 0.0233057851 0.0602066116"></polygon>
                            <polygon id="Fill-5" fill="#6B6B6B" points="0.0233057851 46.9766942 68.6576777 46.9766942 68.6576777 39.8513388 0.0233057851 39.8513388"></polygon>
                        </g>
                        <polyline id="Fill-7" fill="#FFFFFF" points="18.5110083 2.32242149 16.914562 2.32242149 16.914562 6.56834711 16.2744298 6.56834711 16.2744298 2.32242149 14.694686 2.32242149 14.694686 1.75376033 18.5110083 1.75376033 18.5110083 2.32242149"></polyline>
                        <path d="M23.9742727,6.10495041 C24.2127686,6.10495041 24.4326198,6.06066942 24.633438,5.97249587 C24.8342562,5.88393388 25.0074959,5.7561405 25.1535455,5.5891157 C25.299595,5.42209091 25.413405,5.21816529 25.4949752,4.97850413 C25.576157,4.73806612 25.6169421,4.465 25.6169421,4.15930579 C25.6169421,3.85283471 25.576157,3.58015702 25.4949752,3.33971901 C25.413405,3.09966942 25.3003719,2.89613223 25.155876,2.72910744 C25.0109917,2.56169421 24.8393058,2.43467769 24.6396529,2.34805785 C24.4403884,2.26104959 24.2228678,2.21715702 23.9867025,2.21715702 C23.7482066,2.21715702 23.5275785,2.26104959 23.325595,2.34805785 C23.1232231,2.43467769 22.9488182,2.56130579 22.8012149,2.72677686 C22.6536116,2.89263636 22.5386364,3.09617355 22.4555124,3.33738843 C22.3727769,3.57938017 22.3316033,3.85283471 22.3316033,4.15930579 C22.3316033,4.465 22.3723884,4.73806612 22.4535702,4.97850413 C22.5351405,5.21816529 22.6489504,5.42209091 22.795,5.5891157 C22.9410496,5.7561405 23.1142893,5.88393388 23.3151074,5.97249587 C23.5155372,6.06066942 23.7353884,6.10495041 23.9742727,6.10495041 L23.9742727,6.10495041 Z M23.9785455,1.6698595 C24.312595,1.6698595 24.6206198,1.72928926 24.9030083,1.84853719 C25.1850083,1.96817355 25.4281653,2.13675207 25.6317025,2.35427273 C25.8352397,2.57179339 25.993719,2.83398347 26.1075289,3.13967769 C26.2213388,3.44614876 26.2780496,3.78563636 26.2780496,4.15930579 C26.2780496,4.53258678 26.2213388,4.87246281 26.1075289,5.17854545 C25.993719,5.4846281 25.8352397,5.74720661 25.6317025,5.96628099 C25.4281653,6.18535537 25.1850083,6.35432231 24.9030083,6.47395868 C24.6206198,6.59281818 24.312595,6.65302479 23.9785455,6.65302479 C23.6413884,6.65302479 23.3318099,6.59281818 23.0498099,6.47395868 C22.7674215,6.35432231 22.523876,6.18535537 22.3187851,5.96628099 C22.1140826,5.74720661 21.954438,5.4846281 21.8410165,5.17854545 C21.7268182,4.87246281 21.6701074,4.53258678 21.6701074,4.15930579 C21.6701074,3.78563636 21.7268182,3.44614876 21.8410165,3.13967769 C21.954438,2.83398347 22.1140826,2.57179339 22.3187851,2.35427273 C22.523876,2.13675207 22.7674215,1.96817355 23.0498099,1.84853719 C23.3318099,1.72928926 23.6413884,1.6698595 23.9785455,1.6698595 L23.9785455,1.6698595 Z" id="Fill-8" fill="#FFFFFF"></path>
                        <polyline id="Fill-9" fill="#FFFFFF" points="34.3527273 6.56834711 33.7463884 6.56834711 33.7463884 2.47002479 32.3732893 6.56834711 31.8003554 6.56834711 30.4272562 2.47002479 30.4272562 6.56834711 29.8248017 6.56834711 29.8248017 1.75376033 30.7811157 1.75376033 32.0866281 5.76818182 33.3968017 1.75376033 34.3527273 1.75376033 34.3527273 6.56834711"></polyline>
                        <polyline id="Fill-10" fill="#FFFFFF" points="42.6550248 6.56834711 42.0482975 6.56834711 42.0482975 2.47002479 40.6751983 6.56834711 40.1026529 6.56834711 38.7291653 2.47002479 38.7291653 6.56834711 38.1270992 6.56834711 38.1270992 1.75376033 39.0830248 1.75376033 40.3889256 5.76818182 41.6990992 1.75376033 42.6550248 1.75376033 42.6550248 6.56834711"></polyline>
                        <polyline id="Fill-11" fill="#FFFFFF" points="50.3463223 1.75376033 48.4507851 4.52986777 48.4507851 6.56834711 47.8149256 6.56834711 47.8149256 4.52986777 45.9236612 1.75376033 46.6989669 1.75376033 48.1396529 3.96936364 49.5710165 1.75376033 50.3463223 1.75376033"></polyline>
                        <polyline id="Fill-12" fill="#FFFFFF" points="13.0492975 45.8327686 12.4091653 45.8327686 12.4091653 43.5666694 9.90301653 43.5666694 9.90301653 45.8327686 9.2667686 45.8327686 9.2667686 41.0181818 9.90301653 41.0181818 9.90301653 42.9937355 12.4091653 42.9937355 12.4091653 41.0181818 13.0492975 41.0181818 13.0492975 45.8327686"></polyline>
                        <polygon id="Fill-13" fill="#FFFFFF" points="16.9032975 45.8327686 17.5434298 45.8327686 17.5434298 41.0181818 16.9032975 41.0181818"></polygon>
                        <polyline id="Fill-14" fill="#FFFFFF" points="24.3673636 45.8327686 21.3892727 45.8327686 21.3892727 41.0181818 22.0255207 41.0181818 22.0255207 45.2598347 24.3673636 45.2598347 24.3673636 45.8327686"></polyline>
                        <polyline id="Fill-15" fill="#FFFFFF" points="31.0728264 41.586843 28.4614132 41.586843 28.4614132 43.0780248 30.7275124 43.0780248 30.7275124 43.6509587 28.4614132 43.6509587 28.4614132 45.8327686 27.8255537 45.8327686 27.8255537 41.0181818 31.0728264 41.0181818 31.0728264 41.586843"></polyline>
                        <polygon id="Fill-16" fill="#FFFFFF" points="34.7124132 45.8327686 35.3525455 45.8327686 35.3525455 41.0181818 34.7124132 41.0181818"></polygon>
                        <path d="M41.3040661,45.9170579 C40.9587521,45.9170579 40.6429587,45.8572397 40.3562975,45.7379917 C40.0700248,45.6183554 39.8249256,45.4497769 39.6213884,45.2326446 C39.4178512,45.0147355 39.2593719,44.7533223 39.145562,44.4468512 C39.0317521,44.1407686 38.9750413,43.7993388 38.9750413,43.4233388 C38.9750413,43.0469504 39.0309752,42.7059091 39.1432314,42.3998264 C39.255876,42.0937438 39.4128017,41.8315537 39.6151736,41.6140331 C39.817157,41.3969008 40.060314,41.2287107 40.3438678,41.1110165 C40.6274215,40.9929339 40.9404959,40.934281 41.2830909,40.934281 C41.5697521,40.934281 41.8358264,40.970405 42.081314,41.0434298 C42.3271901,41.1164545 42.5419917,41.2205537 42.725719,41.3553388 C42.9098347,41.490124 43.0586033,41.6520992 43.1724132,41.8412645 C43.2858347,42.0312066 43.3541983,42.2429008 43.3763388,42.4755702 L42.7152314,42.4755702 C42.7012479,42.3209752 42.6585207,42.1819174 42.5866612,42.0583967 C42.5151901,41.9352645 42.4176942,41.8303884 42.2941736,41.7445455 C42.1702645,41.6594793 42.0238264,41.5942231 41.8536942,41.5491653 C41.6839504,41.503719 41.4967273,41.4815785 41.2916364,41.4815785 C41.0442066,41.4815785 40.8189174,41.5243058 40.6153802,41.6101488 C40.411843,41.6956033 40.2378264,41.8214545 40.0933306,41.9869256 C39.9484463,42.1523967 39.8361901,42.3559339 39.7561736,42.595595 C39.676157,42.8356446 39.6361488,43.1114298 39.6361488,43.4233388 C39.6361488,43.7294215 39.676157,44.0032645 39.7561736,44.2448678 C39.8361901,44.4860826 39.9492231,44.6896198 40.0952727,44.8554793 C40.2413223,45.0209504 40.4161157,45.1479669 40.6196529,45.2369174 C40.8231901,45.3250909 41.0488678,45.3689835 41.2959091,45.3689835 C41.9865372,45.3689835 42.5031488,45.1405868 42.8457438,44.6826281 L42.8457438,43.9496612 L41.5736364,43.9496612 L41.5736364,43.3771157 L43.4610165,43.3771157 L43.4610165,45.8327686 L43.0100496,45.8327686 L42.8457438,45.3270331 C42.5171322,45.7205124 42.0032397,45.9170579 41.3040661,45.9170579" id="Fill-17" fill="#FFFFFF"></path>
                        <polyline id="Fill-18" fill="#FFFFFF" points="50.7180496 45.8327686 47.1297355 45.8327686 47.1297355 41.0181818 50.6089008 41.0181818 50.6089008 41.586843 47.765595 41.586843 47.765595 43.0613223 50.4232314 43.0613223 50.4232314 43.629595 47.765595 43.629595 47.765595 45.2598347 50.7180496 45.2598347 50.7180496 45.8327686"></polyline>
                        <path d="M54.9476612,43.2003802 L56.3708678,43.2003802 C56.5705207,43.2003802 56.7418182,43.1852314 56.8851488,43.1557107 C57.0277025,43.1265785 57.1453967,43.0788017 57.2366777,43.0127686 C57.3275702,42.9467355 57.3943802,42.8605041 57.436719,42.7532975 C57.4786694,42.6472562 57.4996446,42.5179091 57.4996446,42.3660331 C57.4996446,41.8187355 57.1558843,41.5448926 56.4679752,41.5448926 L54.9476612,41.5448926 L54.9476612,43.2003802 L54.9476612,43.2003802 Z M58.3250579,45.8327686 L57.6348182,45.8327686 L57.1842397,44.547843 C57.1415124,44.4355868 57.0863554,44.331876 57.0172149,44.2363223 C56.9488512,44.1407686 56.8684463,44.0584215 56.7775537,43.9900579 C56.6866612,43.9209174 56.5848926,43.8677025 56.4741901,43.8300248 C56.3630992,43.7919587 56.2473471,43.7729256 56.1265455,43.7729256 L54.9476612,43.7729256 L54.9476612,45.8327686 L54.3110248,45.8327686 L54.3110248,41.0181818 L56.4431157,41.0181818 C56.6280083,41.0181818 56.7973636,41.0267273 56.950405,41.0434298 C57.1030579,41.0605207 57.2386198,41.0869339 57.356314,41.1238347 C57.4747851,41.1603471 57.5823802,41.2182231 57.6810413,41.2982397 C57.7789256,41.3782562 57.8632149,41.4738099 57.9335207,41.5849008 C58.0042149,41.6956033 58.0589835,41.8179587 58.0982149,41.9515785 C58.1370579,42.0844215 58.1568678,42.2230909 58.1568678,42.3660331 C58.1568678,42.5318926 58.1316198,42.6849339 58.0807355,42.8255455 C58.0306281,42.9657686 57.9587686,43.0904545 57.8663223,43.2003802 C57.7734876,43.3095289 57.6604545,43.4015868 57.5272231,43.4757769 C57.3936033,43.5503554 57.2440579,43.6086198 57.0785868,43.6509587 C57.4153554,43.7632149 57.6697769,44.0537603 57.8410744,44.522595 L58.3250579,45.8327686 L58.3250579,45.8327686 Z" id="Fill-19" fill="#FFFFFF"></path>
                    </g>
                </g>
            </g>
        </g>
    </g>
</svg>