<?xml version="1.0" encoding="UTF-8" standalone="no"?>
<svg width="140px" height="164px" viewBox="0 0 140 164" version="1.1" xmlns="http://www.w3.org/2000/svg" xmlns:xlink="http://www.w3.org/1999/xlink" xmlns:sketch="http://www.bohemiancoding.com/sketch/ns">
    <!-- Generator: Sketch Beta 3.4 (14718) - http://www.bohemiancoding.com/sketch -->
    <title>logo</title>
    <desc>Created with Sketch Beta.</desc>
    <defs></defs>
    <g id="Page-1" stroke="none" stroke-width="1" fill="none" fill-rule="evenodd" sketch:type="MSPage">
        <g id="logo" sketch:type="MSArtboardGroup" fill="#FFFFFF">
            <path d="M64.8974375,65.3980048 C64.8974375,66.9805769 63.6147212,68.2632933 62.032149,68.2632933 C60.4499471,68.2632933 59.1672308,66.9805769 59.1672308,65.3980048 C59.1672308,63.8158029 60.4499471,62.5330865 62.032149,62.5330865 C63.6147212,62.5330865 64.8974375,63.8158029 64.8974375,65.3980048" id="Fill-1" sketch:type="MSShapeGroup"></path>
            <path d="M67.0874952,70.615125 C67.0874952,71.43325 66.4241106,72.0962644 65.6059856,72.0962644 C64.7878606,72.0962644 64.124476,71.43325 64.124476,70.615125 C64.124476,69.797 64.7878606,69.1336154 65.6059856,69.1336154 C66.4241106,69.1336154 67.0874952,69.797 67.0874952,70.615125" id="Fill-2" sketch:type="MSShapeGroup"></path>
            <path d="M67.9100625,58.0374712 C67.9100625,59.7014856 66.5614519,61.049726 64.8974375,61.049726 C63.2334231,61.049726 61.8848125,59.7014856 61.8848125,58.0374712 C61.8848125,56.3734567 63.2334231,55.0248462 64.8974375,55.0248462 C66.5614519,55.0248462 67.9100625,56.3734567 67.9100625,58.0374712" id="Fill-3" sketch:type="MSShapeGroup"></path>
            <path d="M74.6320144,65.0429904 C74.6320144,67.2485962 72.8439856,69.0362548 70.63875,69.0362548 C68.4335144,69.0362548 66.6454856,67.2485962 66.6454856,65.0429904 C66.6454856,62.8373846 68.4335144,61.049726 70.63875,61.049726 C72.8439856,61.049726 74.6320144,62.8373846 74.6320144,65.0429904" id="Fill-4" sketch:type="MSShapeGroup"></path>
            <path d="M20.4799135,76.0725 L23.8064615,76.0725 L23.8064615,82.6456346 C23.8064615,83.8754135 23.8908654,84.7287067 24.0600433,85.206625 C24.228851,85.6852837 24.5009423,86.0565865 24.8755769,86.3216442 C25.2498413,86.5870721 25.7107308,86.7192308 26.2589856,86.7192308 C26.8068702,86.7192308 27.2714615,86.5889231 27.6546106,86.3279375 C28.0370192,86.0665817 28.3205865,85.6830625 28.5067933,85.1770096 C28.6433942,84.7994135 28.7118798,83.9916538 28.7118798,82.754101 L28.7118798,76.0725 L32.002149,76.0725 L32.002149,81.8863702 C32.002149,84.1763798 31.8214952,85.7430337 31.4594471,86.5870721 C31.0178077,87.6154663 30.3666394,88.4050865 29.5074231,88.9551923 C28.6474663,89.5056683 27.5546586,89.7810913 26.2286298,89.7810913 C24.7904327,89.7810913 23.6272885,89.4597644 22.7395673,88.8163702 C21.851476,88.1740865 21.2269615,87.2782212 20.8652837,86.128774 C20.608,85.333601 20.4799135,83.8876298 20.4799135,81.7901202 L20.4799135,76.0725" id="Fill-5" sketch:type="MSShapeGroup"></path>
            <path d="M41.322851,78.1622356 L39.2860529,80.1990337 C38.4583029,79.3794279 37.7071827,78.9699952 37.0323221,78.9699952 C36.6625,78.9699952 36.37375,79.048476 36.1645913,79.2046971 C35.9554327,79.3612885 35.8514087,79.55675 35.8514087,79.7892308 C35.8514087,79.9661827 35.9173029,80.1290673 36.0502019,80.2775144 C36.1823606,80.4263317 36.5099808,80.6291971 37.0323221,80.8857404 L38.2376683,81.4887837 C39.5070577,82.1155192 40.3788606,82.754101 40.8527067,83.404899 C41.3269231,84.0560673 41.5638462,84.8190337 41.5638462,85.6949087 C41.5638462,86.860274 41.136274,87.832399 40.2803894,88.6116538 C39.424875,89.3912788 38.277649,89.7810913 36.8398221,89.7810913 C34.9270385,89.7810913 33.4003654,89.0333029 32.2598029,87.5388365 L34.2843846,85.333601 C34.6697548,85.7833846 35.1225,86.1469135 35.640399,86.4241875 C36.1582981,86.7014615 36.6184471,86.8399135 37.020476,86.8399135 C37.4539712,86.8399135 37.8038029,86.7358894 38.0688606,86.5267308 C38.3339183,86.3175721 38.4664471,86.0769471 38.4664471,85.8037452 C38.4664471,85.2973221 37.9885288,84.8031154 37.0323221,84.321125 L35.923226,83.7669471 C33.8023942,82.6978317 32.7417933,81.3606971 32.7417933,79.7533221 C32.7417933,78.7167837 33.1412308,77.8305433 33.9408462,77.0953413 C34.7404615,76.3605096 35.7629327,75.9932788 37.0082596,75.9932788 C37.8600721,75.9932788 38.6611683,76.1794856 39.4126587,76.5530096 C40.164149,76.9269038 40.8005096,77.4633125 41.322851,78.1622356" id="Fill-6" sketch:type="MSShapeGroup"></path>
            <path d="M52.3601346,77.1031154 L55.6504038,77.1031154 L55.6504038,89.443476 L52.3601346,89.443476 L52.3601346,88.0571058 C51.7182212,88.6682933 51.0740865,89.1077115 50.4277308,89.3772115 C49.7817452,89.6459712 49.0813413,89.7810913 48.3272596,89.7810913 C46.634,89.7810913 45.169149,89.124 43.9327067,87.8101875 C42.6970048,86.496375 42.0791538,84.8634567 42.0791538,82.9106923 C42.0791538,80.8857404 42.6770144,79.2269087 43.8731058,77.9334567 C45.0684567,76.6396346 46.5210913,75.9932788 48.2310096,75.9932788 C49.0176683,75.9932788 49.7554615,76.1413558 50.4462404,76.4389904 C51.1359087,76.7362548 51.77375,77.1823365 52.3601346,77.7768654 L52.3601346,77.1031154 L52.3601346,77.1031154 L52.3601346,77.1031154 Z M48.9014279,79.0303365 C47.8837692,79.0303365 47.0389904,79.3897933 46.3667212,80.1090769 C45.6940817,80.8279904 45.3572067,81.7497692 45.3572067,82.8747837 C45.3572067,84.0075721 45.6996346,84.9400865 46.3844904,85.6712163 C47.068976,86.4023462 47.9119038,86.767726 48.9129038,86.767726 C49.9461106,86.767726 50.8027356,86.4082692 51.4835192,85.6893558 C52.1643029,84.9704423 52.5045096,84.0279327 52.5045096,82.8629375 C52.5045096,81.7216346 52.1643029,80.7980048 51.4835192,80.0909375 C50.8027356,79.3842404 49.9424087,79.0303365 48.9014279,79.0303365 L48.9014279,79.0303365 L48.9014279,79.0303365 Z" id="Fill-7" sketch:type="MSShapeGroup"></path>
            <path d="M59.7206683,71.7834519 L59.7206683,77.7768654 C60.3151971,77.1823365 60.9582212,76.7362548 61.649,76.4389904 C62.3397788,76.1413558 63.0790529,75.9932788 63.8668221,75.9932788 C65.5782212,75.9932788 67.0323365,76.6396346 68.2295385,77.9334567 C69.4271106,79.2269087 70.0253413,80.8857404 70.0253413,82.9106923 C70.0253413,84.8634567 69.40675,86.496375 68.1695673,87.8101875 C66.9316442,89.124 65.4656827,89.7810913 63.7702019,89.7810913 C63.0150096,89.7810913 62.3120144,89.6459712 61.6612163,89.3772115 C61.0104183,89.1077115 60.3633221,88.6682933 59.7206683,88.0571058 L59.7206683,89.443476 L56.4544615,89.443476 L56.4544615,71.7834519 L59.7206683,71.7834519 L59.7206683,71.7834519 L59.7206683,71.7834519 Z M63.1797452,79.0303365 C62.1432067,79.0303365 61.28325,79.3842404 60.6002452,80.0909375 C59.9176106,80.7980048 59.5759231,81.7216346 59.5759231,82.8629375 C59.5759231,84.0279327 59.9176106,84.9704423 60.6002452,85.6893558 C61.28325,86.4082692 62.1432067,86.767726 63.1797452,86.767726 C64.1840769,86.767726 65.0299663,86.4023462 65.7166731,85.6712163 C66.40375,84.9400865 66.7472885,84.0075721 66.7472885,82.8747837 C66.7472885,81.7497692 66.4100433,80.8279904 65.7348125,80.1090769 C65.0599519,79.3897933 64.2081394,79.0303365 63.1797452,79.0303365 L63.1797452,79.0303365 L63.1797452,79.0303365 Z" id="Fill-8" sketch:type="MSShapeGroup"></path>
            <path d="M75.3224231,71.7834519 L78.6126923,71.7834519 L78.6126923,89.4431058 L75.3224231,89.4431058 L75.3224231,71.7834519 L75.3224231,71.7834519 Z" id="Fill-9" sketch:type="MSShapeGroup"></path>
            <path d="M79.4907885,71.7834519 L82.7810577,71.7834519 L82.7810577,89.4431058 L79.4907885,89.4431058 L79.4907885,71.7834519 L79.4907885,71.7834519 Z" id="Fill-10" sketch:type="MSShapeGroup"></path>
            <path d="M93.9564231,77.1031154 L97.2466923,77.1031154 L97.2466923,89.443476 L93.9564231,89.443476 L93.9564231,88.0571058 C93.3137692,88.6682933 92.6696346,89.1077115 92.0243894,89.3772115 C91.3776635,89.6459712 90.6776298,89.7810913 89.9235481,89.7810913 C88.2299183,89.7810913 86.7650673,89.124 85.5293654,87.8101875 C84.2932933,86.496375 83.6754423,84.8634567 83.6754423,82.9106923 C83.6754423,80.8857404 84.2733029,79.2269087 85.4693942,77.9334567 C86.6651154,76.6396346 88.1173798,75.9932788 89.8269279,75.9932788 C90.6135865,75.9932788 91.3513798,76.1413558 92.0417885,76.4389904 C92.7321971,76.7362548 93.3700385,77.1823365 93.9564231,77.7768654 L93.9564231,77.1031154 L93.9564231,77.1031154 L93.9564231,77.1031154 Z M90.496976,79.0303365 C89.4800577,79.0303365 88.6352788,79.3897933 87.9626394,80.1090769 C87.29,80.8279904 86.9538654,81.7497692 86.9538654,82.8747837 C86.9538654,84.0075721 87.2959231,84.9400865 87.9807788,85.6712163 C88.6656346,86.4023462 89.5078221,86.767726 90.5091923,86.767726 C91.5420288,86.767726 92.399024,86.4082692 93.0798077,85.6893558 C93.7602212,84.9704423 94.1007981,84.0279327 94.1007981,82.8629375 C94.1007981,81.7216346 93.7602212,80.7980048 93.0798077,80.0909375 C92.399024,79.3842404 91.5379567,79.0303365 90.496976,79.0303365 L90.496976,79.0303365 L90.496976,79.0303365 Z" id="Fill-11" sketch:type="MSShapeGroup"></path>
            <path d="M72.5419087,78.3969375 C71.6330865,78.3969375 70.8964038,79.13325 70.8964038,80.0420721 L70.8964038,89.443476 L74.1866731,89.443476 L74.1866731,80.0420721 C74.1866731,79.13325 73.4499904,78.3969375 72.5419087,78.3969375" id="Fill-12" sketch:type="MSShapeGroup"></path>
            <path d="M71.2988029,71.2681442 C72.1124856,71.2681442 72.8088173,71.5631875 73.3907596,72.1517933 C73.9723317,72.740399 74.2636731,73.4541298 74.2636731,74.291875 C74.2636731,75.1188846 73.9752933,75.824101 73.3989038,76.4071538 C72.823625,76.9905769 72.1343269,77.2822885 71.3328606,77.2822885 C70.5088125,77.2822885 69.8054471,76.9846538 69.223875,76.390125 C68.6419327,75.7955962 68.3513317,75.0737212 68.3513317,74.2237596 C68.3513317,73.4085962 68.6389712,72.7122644 69.2146202,72.1347644 C69.7906394,71.5568942 70.4858606,71.2681442 71.2988029,71.2681442" id="Fill-13" sketch:type="MSShapeGroup"></path>
        </g>
    </g>
</svg>